<mxfile modified="2022-12-16T14:07:39.698Z" host="app.diagrams.net" agent="5.0 (Macintosh; Intel Mac OS X 10_15_7) AppleWebKit/537.36 (KHTML, like Gecko) Chrome/108.0.0.0 Safari/537.36" etag="iX-GdWtEyl6G1qwhl69-" version="16.0.2" type="github">
  <diagram id="Ht1M8jgEwFfnCIfOTk4-" name="Page-1">
    <mxGraphModel dx="1666" dy="769" grid="1" gridSize="10" guides="1" tooltips="1" connect="1" arrows="1" fold="1" page="1" pageScale="1" pageWidth="827" pageHeight="1169" math="0" shadow="0">
      <root>
        <mxCell id="0" />
        <mxCell id="1" parent="0" />
        <mxCell id="UEzPUAAOIrF-is8g5C7q-2" value="AWS Cloud" style="points=[[0,0],[0.25,0],[0.5,0],[0.75,0],[1,0],[1,0.25],[1,0.5],[1,0.75],[1,1],[0.75,1],[0.5,1],[0.25,1],[0,1],[0,0.75],[0,0.5],[0,0.25]];outlineConnect=0;gradientColor=none;html=1;whiteSpace=wrap;fontSize=12;fontStyle=0;shape=mxgraph.aws4.group;grIcon=mxgraph.aws4.group_aws_cloud_alt;strokeColor=#232F3E;fillColor=none;verticalAlign=top;align=left;spacingLeft=30;fontColor=#232F3E;dashed=0;container=1;pointerEvents=0;collapsible=0;recursiveResize=0;" parent="1" vertex="1">
          <mxGeometry x="110" y="160" width="1550" height="711" as="geometry" />
        </mxCell>
        <mxCell id="B8WcgsVvd8YaLCZ8lpms-3" value="" style="rounded=0;whiteSpace=wrap;html=1;" vertex="1" parent="UEzPUAAOIrF-is8g5C7q-2">
          <mxGeometry x="310" y="270" width="530" height="170" as="geometry" />
        </mxCell>
        <mxCell id="B8WcgsVvd8YaLCZ8lpms-2" value="" style="rounded=0;whiteSpace=wrap;html=1;" vertex="1" parent="UEzPUAAOIrF-is8g5C7q-2">
          <mxGeometry x="410" y="169" width="360" height="60" as="geometry" />
        </mxCell>
        <mxCell id="B8WcgsVvd8YaLCZ8lpms-4" value="" style="rounded=0;whiteSpace=wrap;html=1;" vertex="1" parent="UEzPUAAOIrF-is8g5C7q-2">
          <mxGeometry x="410" y="540" width="360" height="80" as="geometry" />
        </mxCell>
        <mxCell id="B8WcgsVvd8YaLCZ8lpms-5" value="" style="rounded=0;whiteSpace=wrap;html=1;" vertex="1" parent="UEzPUAAOIrF-is8g5C7q-2">
          <mxGeometry x="1010" y="460" width="410" height="150" as="geometry" />
        </mxCell>
        <mxCell id="B8WcgsVvd8YaLCZ8lpms-8" value="Amazon Aurora" style="sketch=0;outlineConnect=0;fontColor=#232F3E;gradientColor=none;fillColor=#2E27AD;strokeColor=none;dashed=0;verticalLabelPosition=bottom;verticalAlign=top;align=center;html=1;fontSize=12;fontStyle=0;aspect=fixed;pointerEvents=1;shape=mxgraph.aws4.aurora_instance;" vertex="1" parent="UEzPUAAOIrF-is8g5C7q-2">
          <mxGeometry x="439" y="550" width="40" height="40" as="geometry" />
        </mxCell>
        <object label="DynamoDB" id="B8WcgsVvd8YaLCZ8lpms-9">
          <mxCell style="sketch=0;points=[[0,0,0],[0.25,0,0],[0.5,0,0],[0.75,0,0],[1,0,0],[0,1,0],[0.25,1,0],[0.5,1,0],[0.75,1,0],[1,1,0],[0,0.25,0],[0,0.5,0],[0,0.75,0],[1,0.25,0],[1,0.5,0],[1,0.75,0]];outlineConnect=0;fontColor=#232F3E;gradientColor=#4D72F3;gradientDirection=north;fillColor=#3334B9;strokeColor=#ffffff;dashed=0;verticalLabelPosition=bottom;verticalAlign=top;align=center;html=1;fontSize=12;fontStyle=0;aspect=fixed;shape=mxgraph.aws4.resourceIcon;resIcon=mxgraph.aws4.dynamodb;" vertex="1" parent="UEzPUAAOIrF-is8g5C7q-2">
            <mxGeometry x="540" y="542.5" width="47.5" height="47.5" as="geometry" />
          </mxCell>
        </object>
        <mxCell id="B8WcgsVvd8YaLCZ8lpms-11" value="Amazon Opensearch" style="sketch=0;points=[[0,0,0],[0.25,0,0],[0.5,0,0],[0.75,0,0],[1,0,0],[0,1,0],[0.25,1,0],[0.5,1,0],[0.75,1,0],[1,1,0],[0,0.25,0],[0,0.5,0],[0,0.75,0],[1,0.25,0],[1,0.5,0],[1,0.75,0]];outlineConnect=0;fontColor=#232F3E;gradientColor=#945DF2;gradientDirection=north;fillColor=#5A30B5;strokeColor=#ffffff;dashed=0;verticalLabelPosition=bottom;verticalAlign=top;align=center;html=1;fontSize=12;fontStyle=0;aspect=fixed;shape=mxgraph.aws4.resourceIcon;resIcon=mxgraph.aws4.elasticsearch_service;" vertex="1" parent="UEzPUAAOIrF-is8g5C7q-2">
          <mxGeometry x="1050" y="475" width="50" height="50" as="geometry" />
        </mxCell>
        <mxCell id="B8WcgsVvd8YaLCZ8lpms-12" value="Amazon Elasticache" style="sketch=0;points=[[0,0,0],[0.25,0,0],[0.5,0,0],[0.75,0,0],[1,0,0],[0,1,0],[0.25,1,0],[0.5,1,0],[0.75,1,0],[1,1,0],[0,0.25,0],[0,0.5,0],[0,0.75,0],[1,0.25,0],[1,0.5,0],[1,0.75,0]];outlineConnect=0;fontColor=#232F3E;gradientColor=#4D72F3;gradientDirection=north;fillColor=#3334B9;strokeColor=#ffffff;dashed=0;verticalLabelPosition=bottom;verticalAlign=top;align=center;html=1;fontSize=12;fontStyle=0;aspect=fixed;shape=mxgraph.aws4.resourceIcon;resIcon=mxgraph.aws4.elasticache;" vertex="1" parent="UEzPUAAOIrF-is8g5C7q-2">
          <mxGeometry x="649" y="544" width="46" height="46" as="geometry" />
        </mxCell>
        <mxCell id="B8WcgsVvd8YaLCZ8lpms-19" value="React, Node, PhP" style="text;html=1;align=center;verticalAlign=middle;resizable=0;points=[];autosize=1;strokeColor=none;fillColor=none;" vertex="1" parent="UEzPUAAOIrF-is8g5C7q-2">
          <mxGeometry x="430" y="180" width="110" height="20" as="geometry" />
        </mxCell>
        <mxCell id="B8WcgsVvd8YaLCZ8lpms-20" value="Microservices" style="text;html=1;align=center;verticalAlign=middle;resizable=0;points=[];autosize=1;strokeColor=none;fillColor=none;" vertex="1" parent="UEzPUAAOIrF-is8g5C7q-2">
          <mxGeometry x="320" y="270" width="90" height="20" as="geometry" />
        </mxCell>
        <mxCell id="B8WcgsVvd8YaLCZ8lpms-21" value="Payment" style="text;html=1;align=center;verticalAlign=middle;resizable=0;points=[];autosize=1;strokeColor=none;fillColor=none;" vertex="1" parent="UEzPUAAOIrF-is8g5C7q-2">
          <mxGeometry x="360" y="354.5" width="60" height="20" as="geometry" />
        </mxCell>
        <mxCell id="B8WcgsVvd8YaLCZ8lpms-22" value="inventory" style="text;html=1;align=center;verticalAlign=middle;resizable=0;points=[];autosize=1;strokeColor=none;fillColor=none;" vertex="1" parent="UEzPUAAOIrF-is8g5C7q-2">
          <mxGeometry x="470" y="354.5" width="60" height="20" as="geometry" />
        </mxCell>
        <mxCell id="B8WcgsVvd8YaLCZ8lpms-28" value="shipping" style="text;html=1;align=center;verticalAlign=middle;resizable=0;points=[];autosize=1;strokeColor=none;fillColor=none;" vertex="1" parent="UEzPUAAOIrF-is8g5C7q-2">
          <mxGeometry x="360" y="390" width="60" height="20" as="geometry" />
        </mxCell>
        <mxCell id="B8WcgsVvd8YaLCZ8lpms-27" value="Pricing" style="text;html=1;align=center;verticalAlign=middle;resizable=0;points=[];autosize=1;strokeColor=none;fillColor=none;" vertex="1" parent="UEzPUAAOIrF-is8g5C7q-2">
          <mxGeometry x="500" y="390" width="50" height="20" as="geometry" />
        </mxCell>
        <mxCell id="B8WcgsVvd8YaLCZ8lpms-25" value="Catalogue/store" style="text;html=1;align=center;verticalAlign=middle;resizable=0;points=[];autosize=1;strokeColor=none;fillColor=none;" vertex="1" parent="UEzPUAAOIrF-is8g5C7q-2">
          <mxGeometry x="685" y="360" width="100" height="20" as="geometry" />
        </mxCell>
        <mxCell id="B8WcgsVvd8YaLCZ8lpms-24" value="cart" style="text;html=1;align=center;verticalAlign=middle;resizable=0;points=[];autosize=1;strokeColor=none;fillColor=none;" vertex="1" parent="UEzPUAAOIrF-is8g5C7q-2">
          <mxGeometry x="570" y="360" width="40" height="20" as="geometry" />
        </mxCell>
        <mxCell id="B8WcgsVvd8YaLCZ8lpms-23" value="Location Services" style="text;html=1;align=center;verticalAlign=middle;resizable=0;points=[];autosize=1;strokeColor=none;fillColor=none;" vertex="1" parent="UEzPUAAOIrF-is8g5C7q-2">
          <mxGeometry x="607" y="390" width="110" height="20" as="geometry" />
        </mxCell>
        <mxCell id="B8WcgsVvd8YaLCZ8lpms-29" value="" style="sketch=0;points=[[0,0,0],[0.25,0,0],[0.5,0,0],[0.75,0,0],[1,0,0],[0,1,0],[0.25,1,0],[0.5,1,0],[0.75,1,0],[1,1,0],[0,0.25,0],[0,0.5,0],[0,0.75,0],[1,0.25,0],[1,0.5,0],[1,0.75,0]];outlineConnect=0;fontColor=#232F3E;gradientColor=#945DF2;gradientDirection=north;fillColor=#5A30B5;strokeColor=#ffffff;dashed=0;verticalLabelPosition=bottom;verticalAlign=top;align=center;html=1;fontSize=12;fontStyle=0;aspect=fixed;shape=mxgraph.aws4.resourceIcon;resIcon=mxgraph.aws4.api_gateway;" vertex="1" parent="UEzPUAAOIrF-is8g5C7q-2">
          <mxGeometry x="130" y="10" width="48" height="48" as="geometry" />
        </mxCell>
        <mxCell id="B8WcgsVvd8YaLCZ8lpms-31" value="" style="sketch=0;points=[[0,0,0],[0.25,0,0],[0.5,0,0],[0.75,0,0],[1,0,0],[0,1,0],[0.25,1,0],[0.5,1,0],[0.75,1,0],[1,1,0],[0,0.25,0],[0,0.5,0],[0,0.75,0],[1,0.25,0],[1,0.5,0],[1,0.75,0]];outlineConnect=0;fontColor=#232F3E;gradientColor=#945DF2;gradientDirection=north;fillColor=#5A30B5;strokeColor=#ffffff;dashed=0;verticalLabelPosition=bottom;verticalAlign=top;align=center;html=1;fontSize=12;fontStyle=0;aspect=fixed;shape=mxgraph.aws4.resourceIcon;resIcon=mxgraph.aws4.cloudfront;" vertex="1" parent="UEzPUAAOIrF-is8g5C7q-2">
          <mxGeometry x="580" y="55" width="40" height="40" as="geometry" />
        </mxCell>
        <mxCell id="B8WcgsVvd8YaLCZ8lpms-33" value="" style="sketch=0;points=[[0,0,0],[0.25,0,0],[0.5,0,0],[0.75,0,0],[1,0,0],[0,1,0],[0.25,1,0],[0.5,1,0],[0.75,1,0],[1,1,0],[0,0.25,0],[0,0.5,0],[0,0.75,0],[1,0.25,0],[1,0.5,0],[1,0.75,0]];outlineConnect=0;fontColor=#232F3E;gradientColor=#945DF2;gradientDirection=north;fillColor=#5A30B5;strokeColor=#ffffff;dashed=0;verticalLabelPosition=bottom;verticalAlign=top;align=center;html=1;fontSize=12;fontStyle=0;aspect=fixed;shape=mxgraph.aws4.resourceIcon;resIcon=mxgraph.aws4.route_53;" vertex="1" parent="UEzPUAAOIrF-is8g5C7q-2">
          <mxGeometry x="840" y="50" width="50" height="50" as="geometry" />
        </mxCell>
        <mxCell id="B8WcgsVvd8YaLCZ8lpms-34" value="Route53" style="text;html=1;align=center;verticalAlign=middle;resizable=0;points=[];autosize=1;strokeColor=none;fillColor=none;" vertex="1" parent="UEzPUAAOIrF-is8g5C7q-2">
          <mxGeometry x="835" y="100" width="60" height="20" as="geometry" />
        </mxCell>
        <mxCell id="UEzPUAAOIrF-is8g5C7q-45" value="Amazon S3" style="outlineConnect=0;fontColor=#232F3E;gradientColor=#60A337;gradientDirection=north;fillColor=#277116;strokeColor=#ffffff;dashed=0;verticalLabelPosition=bottom;verticalAlign=top;align=center;html=1;fontSize=12;fontStyle=0;aspect=fixed;shape=mxgraph.aws4.resourceIcon;resIcon=mxgraph.aws4.s3;labelBackgroundColor=#ffffff;" parent="UEzPUAAOIrF-is8g5C7q-2" vertex="1">
          <mxGeometry x="20" y="131" width="78" height="78" as="geometry" />
        </mxCell>
        <mxCell id="B8WcgsVvd8YaLCZ8lpms-32" value="CloudFront" style="text;html=1;align=center;verticalAlign=middle;resizable=0;points=[];autosize=1;strokeColor=none;fillColor=none;" vertex="1" parent="UEzPUAAOIrF-is8g5C7q-2">
          <mxGeometry x="565" y="100" width="70" height="20" as="geometry" />
        </mxCell>
        <mxCell id="B8WcgsVvd8YaLCZ8lpms-18" value="Web Layer" style="text;html=1;align=center;verticalAlign=middle;resizable=0;points=[];autosize=1;strokeColor=none;fillColor=none;" vertex="1" parent="UEzPUAAOIrF-is8g5C7q-2">
          <mxGeometry x="610" y="149" width="70" height="20" as="geometry" />
        </mxCell>
        <mxCell id="B8WcgsVvd8YaLCZ8lpms-35" value="InternetGateway" style="sketch=0;outlineConnect=0;fontColor=#232F3E;gradientColor=none;fillColor=#4D27AA;strokeColor=none;dashed=0;verticalLabelPosition=bottom;verticalAlign=top;align=center;html=1;fontSize=12;fontStyle=0;aspect=fixed;pointerEvents=1;shape=mxgraph.aws4.internet_gateway;" vertex="1" parent="UEzPUAAOIrF-is8g5C7q-2">
          <mxGeometry x="590" y="-40" width="50" height="50" as="geometry" />
        </mxCell>
        <mxCell id="B8WcgsVvd8YaLCZ8lpms-38" value="" style="sketch=0;points=[[0,0,0],[0.25,0,0],[0.5,0,0],[0.75,0,0],[1,0,0],[0,1,0],[0.25,1,0],[0.5,1,0],[0.75,1,0],[1,1,0],[0,0.25,0],[0,0.5,0],[0,0.75,0],[1,0.25,0],[1,0.5,0],[1,0.75,0]];outlineConnect=0;fontColor=#232F3E;gradientColor=#F54749;gradientDirection=north;fillColor=#C7131F;strokeColor=#ffffff;dashed=0;verticalLabelPosition=bottom;verticalAlign=top;align=center;html=1;fontSize=12;fontStyle=0;aspect=fixed;shape=mxgraph.aws4.resourceIcon;resIcon=mxgraph.aws4.waf;" vertex="1" parent="UEzPUAAOIrF-is8g5C7q-2">
          <mxGeometry x="710" y="50" width="50" height="50" as="geometry" />
        </mxCell>
        <mxCell id="B8WcgsVvd8YaLCZ8lpms-39" value="WAF" style="text;html=1;align=center;verticalAlign=middle;resizable=0;points=[];autosize=1;strokeColor=none;fillColor=none;" vertex="1" parent="UEzPUAAOIrF-is8g5C7q-2">
          <mxGeometry x="710" y="100" width="40" height="20" as="geometry" />
        </mxCell>
        <mxCell id="B8WcgsVvd8YaLCZ8lpms-40" value="" style="sketch=0;outlineConnect=0;fontColor=#232F3E;gradientColor=none;fillColor=#4D27AA;strokeColor=none;dashed=0;verticalLabelPosition=bottom;verticalAlign=top;align=center;html=1;fontSize=12;fontStyle=0;aspect=fixed;pointerEvents=1;shape=mxgraph.aws4.application_load_balancer;" vertex="1" parent="UEzPUAAOIrF-is8g5C7q-2">
          <mxGeometry x="430" y="46" width="58" height="58" as="geometry" />
        </mxCell>
        <mxCell id="B8WcgsVvd8YaLCZ8lpms-58" value="" style="edgeStyle=orthogonalEdgeStyle;rounded=0;orthogonalLoop=1;jettySize=auto;html=1;exitX=0.514;exitY=-0.2;exitDx=0;exitDy=0;exitPerimeter=0;" edge="1" parent="UEzPUAAOIrF-is8g5C7q-2" source="B8WcgsVvd8YaLCZ8lpms-32" target="UEzPUAAOIrF-is8g5C7q-45">
          <mxGeometry relative="1" as="geometry">
            <Array as="points">
              <mxPoint x="601" y="160" />
            </Array>
          </mxGeometry>
        </mxCell>
        <mxCell id="B8WcgsVvd8YaLCZ8lpms-44" value="" style="rounded=0;whiteSpace=wrap;html=1;" vertex="1" parent="UEzPUAAOIrF-is8g5C7q-2">
          <mxGeometry x="1070" y="163.5" width="360" height="191" as="geometry" />
        </mxCell>
        <mxCell id="B8WcgsVvd8YaLCZ8lpms-47" value="" style="sketch=0;points=[[0,0,0],[0.25,0,0],[0.5,0,0],[0.75,0,0],[1,0,0],[0,1,0],[0.25,1,0],[0.5,1,0],[0.75,1,0],[1,1,0],[0,0.25,0],[0,0.5,0],[0,0.75,0],[1,0.25,0],[1,0.5,0],[1,0.75,0]];outlineConnect=0;fontColor=#232F3E;gradientColor=#F78E04;gradientDirection=north;fillColor=#D05C17;strokeColor=#ffffff;dashed=0;verticalLabelPosition=bottom;verticalAlign=top;align=center;html=1;fontSize=12;fontStyle=0;aspect=fixed;shape=mxgraph.aws4.resourceIcon;resIcon=mxgraph.aws4.eks;" vertex="1" parent="UEzPUAAOIrF-is8g5C7q-2">
          <mxGeometry x="790" y="270" width="40" height="40" as="geometry" />
        </mxCell>
        <mxCell id="B8WcgsVvd8YaLCZ8lpms-50" value="EKS" style="text;html=1;align=center;verticalAlign=middle;resizable=0;points=[];autosize=1;strokeColor=none;fillColor=none;" vertex="1" parent="UEzPUAAOIrF-is8g5C7q-2">
          <mxGeometry x="790" y="310" width="40" height="20" as="geometry" />
        </mxCell>
        <mxCell id="B8WcgsVvd8YaLCZ8lpms-51" value="" style="sketch=0;points=[[0,0,0],[0.25,0,0],[0.5,0,0],[0.75,0,0],[1,0,0],[0,1,0],[0.25,1,0],[0.5,1,0],[0.75,1,0],[1,1,0],[0,0.25,0],[0,0.5,0],[0,0.75,0],[1,0.25,0],[1,0.5,0],[1,0.75,0]];outlineConnect=0;fontColor=#232F3E;gradientColor=#F78E04;gradientDirection=north;fillColor=#D05C17;strokeColor=#ffffff;dashed=0;verticalLabelPosition=bottom;verticalAlign=top;align=center;html=1;fontSize=12;fontStyle=0;aspect=fixed;shape=mxgraph.aws4.resourceIcon;resIcon=mxgraph.aws4.ecr;" vertex="1" parent="UEzPUAAOIrF-is8g5C7q-2">
          <mxGeometry x="1250" y="180" width="58" height="58" as="geometry" />
        </mxCell>
        <mxCell id="B8WcgsVvd8YaLCZ8lpms-52" value="ECR" style="text;html=1;align=center;verticalAlign=middle;resizable=0;points=[];autosize=1;strokeColor=none;fillColor=none;" vertex="1" parent="UEzPUAAOIrF-is8g5C7q-2">
          <mxGeometry x="1259" y="240" width="40" height="20" as="geometry" />
        </mxCell>
        <mxCell id="B8WcgsVvd8YaLCZ8lpms-53" value="" style="shape=image;verticalLabelPosition=bottom;labelBackgroundColor=#ffffff;verticalAlign=top;aspect=fixed;imageAspect=0;image=data:image/png,iVBORw0KGgoAAAANSUhEUgAAAisAAAIACAMAAAB0G9zvAAAABGdBTUEAALGPC/xhBQAAAAFzUkdCAK7OHOkAAAMAUExURUdwTP//APmjJvmgJvmgI98/KflsIuRIKOJCKf9yAPVjJv8AANxDMvBYJt9DKfmjJPuhJPmjJvluJvmgJvRfJvmiJf+jIvp0JeZFLeNBKflqJvmgJflwJfyFJPmhJfyJJeREJ+BAJuNDJvyDJfyWJfqgI/mjJfhnJvyPJfyTJfydJPycJf+sKuFCKPlrI/mgI/+fJ/pyJPyBJfqiJuJCKPluJvt1JPBbJvRcJvmjI/ygJeBDKP+jJfyXJP+lKvyjJflqIuNDJft4I/mgJv+iJd9DJfuiJf6iJOFALONAKeJCKPyLJvptJPhmJeRAJuRHJfuiJfqiJeFCKPyiJOJDKPx+Jf+kJOJCKflqJuJCKPybJeZKJuJCKPprJfyeJO1TJ/toJuJDJ91EIeJCKOJCKPdkJvqjJfyiJfujJuJCKPlvJvlrJuFCKPuiJfqhJvltJvyjJeFCKP+kKPlrJeJCKO9WJ+JCKPyjJepRKPyjJOJCKPugI/yjJedIJ/yeJvuhJfx6JvqkJvuiJvtpJOpSJvyZJOJEKPyOJfyjJf+jJeJCKOBDJeNDKOJCKOJCKPyjJfyjJfyjJvltI/uhJvmiJPlyJvhuIuBBKONAJeJDKOJFJ/+iJvuiI+FCKPyhJv+jJfuiJPujJeFCJuJCKPmjI+FCKeJBKf+hIflwJeFCKPqiJeRIKOFCKPuiJvyjJfmjJ+FCJ/ujJOJDKPmiI+JCKOJBKelNKOtQJuNCKeNCK/mgI+JDKPuiJeJCKPujJeJDKPyiJPtoJeBBJ/yjJfyjJPyiJvyiJuFCKOJCKONDKPyeJt9DKfujJvlqI/hsI+FDKfdnJvuiJfqjJftpJPyiJeFDKftrJfx9JP+iJ/mjI/yjJftpJftqJvyiJudMJvx7JPyiJN9AJ/+fH+JDJt9DKPyhJuJCKOdPJ+hNKPhwI+tVJfx8JeFCJ/FfJvdoJPx8JvuiJuJCJ+RGJv+qIvyQJft4JPRjJfyhJuhNKOpSKPh5JPRtJvxtJuJDKfyjJvxuJqlypeAAAAD8dFJOUwAB+P77/fvJUALBAQXC/vXg/f78wPAK4gr4/fDwxOjDFPXvx8Hm6sjAwMzJA7f09AblyuJA/N3BwPrUGRfDEmf5+tj2FPueKRHxvMHlxQ3njzjQvqzNHpr3jMfa3uHSyM46B3mSw6NemIf38cFG5PesywzpYcVyWcvFftjV48/a1TTc0cjEJ8BvG5/0WW2xfnS67d0w6vTq+UnrIdgzziRSiuEv8qbFD+lFqN5dTmMtIUtl7Zfm0s83Hetpg6KTK8vU2nrRs8hNglPV9kLu8vLKhjzZa1bc0ibst9zWd9XTsO0I6OTC19DW7cXR1MDL0D+p7w++2sRVfXLDk8sjYYUAACAASURBVHja7Jz7c1bVFYYRiCUmBAQvoIIBREWJFxpRm94CpYaoqGk0jUaUBK2pEUzF2MZ6qRdUSELvQCu1DRKlUktjqEGa4lBroFSZjsXpdFBLSTPjlNHSX9rOdJ8WkEtIvvN9+77WXme9f8CZWe96vn3YR/MMGsTh4Enutor6qqr6ju5c7sJycjor61o39LY0F5EYJ7t9jziUnnU5vF6b6aw/XO2sivzwxykpEH1SPoYXbO9QqcnqU+2GztDnGdMmjkkpv4espfHYapeuCnyeLtEv83nHltLdv9qekqDnKew/j8haxVu2kupWQet3WDBgHrGP12wliwZWOzbkf99uzBo4UHE+79lG6gZWK5oDnqchxTxiEe/ZQoryUlRbF/BAbalYKeBFW8imVNVmFdFiXxSX8KbNU5qqWtFOi30h1vGmjZOflbLaUmLsixZetYtb0MFP/SW02Bdj5/CuHXyMCPriEMO+EDt514aZUyxondlx7PPnOOM0xVW7IswzuySOfTGB/2uzYVriqhVNQc6zLnYeMYy3bfYKGhtbbTkx9kUXr9soO+Or3T6GFvtiNv9fLEbZF1+t2EaLfSFW8r4NUr00TbVriLEvlvDCDdKdrtod1cHNM2ZCuoF280vIIF3pqhXdwc0zLO08Yi1vXDu5swWtMzs9+6KDV66dlemrnZhLi32xJ5t3rpsKQevMzsC+EPN457o/w+UZqq0IbKAlmVjhv/3QTWGmapdPDYv93ZkGauU/V9XM/EzVisKg5lmbcR7RyVvXSvYGQevM7sjMSi2vXSvzMle7IaSLQ/aezANV8dq1Upm52qAuDhLsC7Ga966RnFaJaitJ/fNrf7by4jWySqbaqhxa7IteXrxGamWqFeEIBjql5hGLefPqP8MtUtXWEmNfNPLqlbNartotwbyEquQGKuPVK2erXLViMy32hVjPu1fNXkHrzJZlX9Tw7hWzWLbaUM7sXtmB6nn5iqmRrTaQi4M0+yJvI29fLWWC1pndKD1P0M4qiKyXr7aeGPtBO6sg0iBfbRAXBwX2Q3ZWgaRNodsGUv/82p9NvH+FbFSpti2AgepVBiplABTSrFKtwH9x2JinMs+sfCZAPnVKrDQTY59ltwopUvoZBnBxUGOfZbcKaVerNgv7mV2UpTbQCvYMSqdUrVr0sttNivOw7FY6+Yo/Q/Rntir7LLuVziLVapHLbvNnqQ60nT2DkmkRtM5sZfZZdiubOSsErTO7QJ0Vlt3KpUm9WtSCcg32xdJq5kAm5erVopbdrtOYh2W3UhmzXaNazLLbFh1WWHYrk2061SIWlGuxH56zCiRrdKpFLLvdqTUPy24lklZpG6Lsdp8eKxWMQsZ061U7u5oW+6E5q0CyRNA6s4dpzhOYswoiuRM1q8Uqu+3SZYU9g5myUrdapBcHbfbFBvYMZkiFbrVIZbfa7LPsNlOmLteutoMY+0E5qyBSqF8tyouDAfuilXFIm/n61aK8OBiwH5KzCiISStuwLg4m7LPsNm3mmVTbg092m2PCvtjCQKRJpUm1CAXlRuyz7Dbtz7DVqNpKYuyz7DZNVplVi092a8a+2MtIxKZW0DqzDdln2W2aV9AWw2pribHPnsHYbDatthfZS8iUfZbdxqbRtFpkstvVxvOw7DYue42rxSW73WrOSgNTkTKLzastI8Z+EM4qiNSYV4vq4mCBfZbdxqTeQrc1xNhn2W3KrLdRLSbZbZmNgVh2myoNNqpF5Bm0wj7LblOmzUq3DcTYZ9ltimy0U20bMfZZdpsizXaqFVjObDWlbbDOKpDUWWKlmRj7LLsdEGWfIPYz2xb77BkckHZb1SKR3RbZYp9ltwNSYKtaJLLbTdbmQe2sgkjJLGvV4pDdltpjpZzxOCaL7FWL4uJgkX2W3fZLi71qUchuLbKP2VkFER2tJ+qLg032ETurINJks1oEslur7IsdLLvtk3Kb1SIQlFtlX4huJuRIxkywWu0+Yuyz7LZPttmtFlx2q6e0jQ/Lbo9mjd1qwQXlltln2e3RVO+wXO0aYuyz7PZIum1XCyy7tc4+y26PZImgdWZbZ59lt4ejr/WMDazstss+Kyy7/Shr7Ve7O5cW+yy7PZQK+9WCym5XOpiHZbcHY6L1jE0HMfZZdnswhS6q3TOVFvuiikEZZKj1RHhmO2GfZbcHkt3jpNr5xNhn2e0gY61nXMBkt2ZK2/iw7NZY6xmbTlrsY3NWgfwMqxxVW0mMfWTOKoisclUtlOzWFfssuzXXesZmNS32WXZrrLSNz1Zi7CdedrvZXbW9IAO5Yx+Vswoije6qBbk4OGQ/8bLbMofVNhJjP+Gy28Uuq4WQ3e51OVCyZbc1gtaZ7ZT9hMtu6512W0OM/UTLbte7rbaeGPuJlt02uK3Wu+zWMftYnFUgaXPcbQMx9pE4qyBS5LraNmLsJ1h22+y62jy/sltbStv4JFd2W+e6Ws+CcufsJ1d2a01pi+XMds9+YmW37e6r9Xpx8MA+BmcVSAoErTPbA/tJld3a1HrGxqfsttQHK8mU3a7zUW1xCS324Z1VIGnxUa1H2e0iL/MkUnY7Z6yXaluIsZ9I2W2Tn2q9XRw8sZ9I2W25n2q9yW49sZ9E2a1lpW189hFjH9hZBZFhvqr1dHHwxn4CZbdrfFXrSXa7zds8oM4qiFTP9lZtFzH2Eye7Xemv2tk+zmz7Stv4LM9OFitL/FXrRXbb7XGehMluc3cLWme2T/YTJrtd67NaD7JbF0rb+CRLdtvhs1oPFwev7CdLdutG6xkb97LbCr+sJEl2W+i32j2uLw7ZftlPlOx2vqB1ZntmP0myW0dKW7gz2zf7CZLddvquttXtxcGV0jY+yZHdVvqu1rHsdp73eRIju3WmtIU6s/2znxjZ7Wr/1bqV3fpnH8RZBZGt/qt1KrtdBTBPUmS3vQDVupTd1kKwkgzZ7WaIal0KyrdADJQM2W2joHVmg7CfENltGUi1jcTYT4TsdjFMtWXE2E+E7LZG0Dqzgdj37awCSb2gdWZDsZ8A2e1GqGrribGfANltA1S1jmS368HmoS+7bRO0zmw49snLbovyBK0zG459r84qiGyCq9bJxQGQfZ/OKpCUwlXrRHbbDDiPR2cVRHxoPWPjQnZbB8kKbdltO2S1Di4OoOwTl90WQFbrQHYLyj5t2W1JMWi1BcTYJy27XQdbbfEcWuyTlt22CFpnNjD7lGW3vrSe3i4O0OwTlt3uhK7W8sUBnH0/ziqQ7IOu1rLstgl8Hi/OKoj403rGxq7sthyeFaqy22Hw1S6tpsW+D2cVSLrgq7UqKN+GYB6isluPStv42JTdrsHASgdJVlZiqNbixSEXA/vunVUgWYKhWosXBxTs05TdelXaxqeCGPskZbdrcVS7PJcW+6KHoOy2Q9A6s5Gw79pZBZGpewStMxsL+wRlt/OwVLvBzsUhGwv7BGW387FUa0l2W4hmHqfOKojktApaZzYe9p06qyDSiadaK7LbnB48A/USY6UWT7VWBOWI2KcmuwVQ2sbHhuy2EhMrtGS3qzFVu8XCSwgT+8Rkt1sxVWvh4oCKfWKy215U1ZpfHP7zMVT59zA6acJVrfmfYL1+6n8xZZegk5NQNXvag1cYonJFdP+XUY30AB1W3kJV7JToN4asLIuiT6Ea6VIyqDyAqtdpUfQjQ1Zei6LoTEwzPUqGlcsQtfq/6c/uX/QPjVB5Zv8TosEzEE016hoqrOxC1OrCRw4s+ptGrLxz4BHR5G/zS8h6rsF0rDx+cM+vG7Hy6sFnROedhmeuW4mwcikiVq78aM3RUwao3HDoGdEUPHNd8k8arDyKp9L3hh5a85MGrDx5mJUh0/BMNpwEKj8YhabQ740/vOa/GbDytcMPiU7H80nuAxKsDMdzUM89suUhn9RG5akhR54SPf1FLLMdT+IldCuij3BH8xltVv7Y5ynR42iGu5cAKhMvwdLmpL5L/pY2K1/o+5joSizTncOvIHuZPqLvjkd/WhOVz40+hpXL38Py4Whp+Kx8gKTL7488ZsfRi5qsvHjsY6Lx7yMZ8LHgUZl9PJKPcDf22/FvNVn5c7/nRA8iecleHTwr9yL51T3Rf8VDn9NC5bnL+z8Iyye5C7aHzso5OIr8cPSAFd+nxcqXooGZxC8hG5mwEEWNz78ycMN3a7HylxSsXDidX0IWcguOD1VzU2x45ikaqHxlcIonRY9cgGHKO1eEzcrVKFg5K9WCo39psHJfyich+SR3S9CojEXxg5uUesE/1WDl7tSPwvFJ7ragWXkMxUe4man3e+FflVE5ZUQMK0P/jmDQN2bxK8gsb46M2W/0M2VWfhz3qOjs5xGM+nLAqBTfiaDA82P3e7syK7fHPiuai+Cj4wkBs/JVjB/hjubkixRRuej0+IdFZ8HPek9WuKzcBl/f9SemWe9diqz8IkqXcfwS0k/WG+DlXZzuJIjuUGTl82lZGTGdX0LaeRn+I9wn0m737KlqLs2X0j4tGvkm9LxX5YXKyglIP8Idze+VWLkrw9OiG8EHfjdQVPLugW5uXKbl/lqJlTsyPS56AnrikwJl5ZfQxc0YnGm3k1Vkt9njM7Iy+kPgkW8OlBVok8YZCzLuNrpOgZV/ZH5c9MrFwEPfFCYrVwHXdp7Ebq9VYOVaiedFcz8LO/RlQaLyLjAq58qsduRx0qgct0DmgdCf5N7mV5DGR7ghUqv9hjQr10VyGccvIeXcDFrZqSfLbfYP0qz8RJKVmTP4JaSYm0AbW3i/5GYfkn4JfUfyidHHz4Cc/C1+BanlkGZFJj+XROW70k+Mzgf9a/8XwmPlbci+zpRf7DJJVn4l/8joXH4JqeQF0I9wQ+X3+nVJVp5WYOXE6wGH38WvIIW8P1lhr9GfJJW2KnkJUswSnGcQUGk76kGlvcrJbpcpPTP6HaCYJTTPIKTSdoraWuVkt6+pPRTSlRya7BZQaTtNcatSsttnVB8K6EoOTXa7C+4j3LOqW5WR3b6jzMrgh8EqGB4UKnBK24UPKW9VRnb7qvJTowVgruSwZLdgMieFj3BHk1l2e4PGU//P3t2+RpmdYQA/k6RChG0Sg5E6caTVZM1uqKOhlkhW7WojiwoRMZQF2/2ikRRfsBQrRuPLgpF+UDfGD6tELUIWIUoIdEFEFI0fxLVGRY0vVQTxpbhKreuXJZbu2mU1M5lzn3Pd9znPzLn+gDwzz33iyVw+8zvurORoYbfOSNt5JkPNjN22mfxYd5VclDYhZ6TtpgKTmS4ikLaUOLOSvw5bUOYSLmE005JM2G1dvtHPdWYlRwm7dUTajt1oNtKM2O0Vw587uN5RJRcd7NYVaVtlOtJM2O0i0x/sCmZ5N2xBw2eC8UQLZlBIW1LcwCzRwW7dkLbTJptPtIlE2pKWoZtKLirOoBvSdk+7xUT7aKQtJRVOrOQFEVkrTkjbIdYx7be/i0baUuLESo4KduuEtJ1nNc9hsdsmux/txkqOxibkhLS9Vmo3z9VE0paUCWETShMXpG1HpeU4h8Fu1+TZrpVDDiq5aGC3DjzBX/3edpyDB6ikLSWtDujWKGC3LkjbifbjPEwmbT2v5L6JwFpxQNpOAEwzLXablrT1vJKLAnYrvwVNg0wzHXbbjfjhg7XXxG/LA++Xijxpu6cYMs16OmlLSULcSvbfGRQnbV+9jxlmPEknbUmVnHSb7T92K07abgPNMg1224P68fIwy989XyripO3TEtQslxuQtl5Xcr5vQtKk7ZRe2ChTYrfVA7i1In18me/YrTBpO+IcbpSDz1KslfPAnz/Yvkf27viN3UqTthORozxhRNpSImwl+43dCpO246CTTIHdapC2HldyS7xeK7KSxos87CSHYreXsBeQtpK9dgbnS96J8hrwJBvMSFtKjolWck88XioPRX9r3kMPcgh2G0OvRuHjy66GLej7TILPcQh2uxB/CdlKzmNnUJK0XZyPn2O/IWlLiqSV7K8zKEnaTokzjPFt7LadY60UvZC7S5fDFvTtt7Omc4zxLex2N8s1BovL5e7TBl/Xyk25e/ABzxh3GJO2lAhayb46g4Kk7XimKZ55Y620MF1l8D9iN+pWzm9BZsyKTq4bk7aUCFrJnjqDYqQtzTom5bQ5aUtJ75Tc3oTESNtR7/ENsdOCtKVkuhTM4id2K0baVjHO8EfY7X7Oy4hVcmO93IROCb37qawz3GlB2npZyb3j4VKRIm3HxFlHuO6HtXKWd63kCR1f5iN2K4Q5NbfyjvAH7LaR+TqDNTIwi4/YrQxpa2Qdk3LFirSlRMhK9m8TEiJt57FPcJEVaUuKjJX8dY5uQZtq2Qf4GrutK+FfKzJW8qyPfFsrIqTtZwn+Ab7GbmcKXGlwtAjM8tizpSJC2hpbx6TssiRtKVnfLHDb3s3FLahKZH7fYbdzSkWuJXJ8mW/YrQRpO1VmfN9ht0eEriXyLRC/nMF/CDxxbGMdk/I/7LZPaq1IWMkLvForAqRt8xax8a1RydlSFxus4D++zC/slp+0tbOOaelheYA/7X9tj82pTUiAtJ0nOL1+mU/M/09VTm1C/KTttQLB4fXxfNkjbSXHDrP4hN2ye4LW1jEpLUihRyNxdpjlL94sFXbSFmAdU1KJAgV108pdyS3NnS1oouzoJkuvFXYr2R/slnsLmiA8udHqhPAV2Ss5X7BbbtIWYx0TUsz9/OTQ1N7hvYe+OIPMpC3IOiY9R9ktfcnBRAfrTfQFu/0ma0q416lXdeLX5LaS/cBumUnbbfJjm6nUPvmrVuXAJsRL2j4tkZ/afqX65a/KayX7gd2ykrYdA/Iza2H9LvMwH9VZKzkfsFtW0hZqHevmttxzcW+G1Ur2AbtlJW0nOphY3hw4mK0bTit5iQdrhVPSGOdiYK/l0j4X197GeDM9wG7n8727F7MdjCs+4/X3DuMOLl7AaCU/cb5UGEnbCzUufrWbgOenGvy3JV8ldzWbt6D3XQzrcIxXLM0URivZOXbLR9pOcjGqzh+d6R2rd/EK+GAW19gtH2nLYR1nzPq6N4j1BheLhQ1muZytW9AUF39anqx7C86emSf/IorYKrkNbtcKF2k7y0UJt6xsyEEfR6fLv4ziC0w31a0zyEbaOijhippiqY59Xy7/Sj5m8klOZeUWNF5+QJ3X0xzmfUB+N2Sykkc5dQaZSNsP5f9MaEiqdGlcJ/1iShdn3ybERNqWrxSvwFaoYVJ9vFT49QzwWMkusVse0pbTOk6dXXVq+DyTXr3nZnHcWZfYLQ9pK13CFewsVJkyY3VWVHLvOFsqPKTtVOGpbNmsdCJdtbBUcu6w219zvJ0xwh87lq1RejnaIvq6ZnNYySN+4WqtcJC2zetFJzK5SWlHuGqpKc+iTYiDtOW3jt8s9fcrSmSrFo7jy1xhtxyeoOyTcAeTipbG+5Ivj8FKdoXdMpC2AtaxbqmSpmrZIVi1lDBYyX92slQYSFvGA8eG5kadMsklwaf14ngr2Q12i/cEZazj71OrUaq4r1rwVrIb7PYifK1UyQ1Bs1RJU7XIPTOOt5JdOIN40lawhNMuVVJn7hmxVzoefZcXZMEW9GraIbFSZa2yzL0TUq8VfnzZL38mv1bQpO0qMeuYWKqkTnev0KuFW8l/EF8qPwcfGitXwpFLldTZLvWNZ/TxZfKbENoTlLKOEysUKIVSVQsYZpHHbsGe4B0h69iwVEmdhTI6Gfr4MmnsFkzadiRkSpW2QoVMl0zVAq7klkZ6CxKyjls3K3RmihiZ+6B/HH4l7AwujWAJV79G4SNTtWCt5C9FlwqWtBWxjg+tVSxJilQtUCtZ1hmEkrYi1vHZvYor3QKmHdRKlsVukaSthHWc359UfJGoWhKPgLdcErtFkrYS1nHFecWawtP8H/k3Ah8BkXQGkaStgHXcN0dxR6BqAVZy8wXXCpC0fcpefha0xRR/nh9mXyxAK1kOuwWStl8cY39caLeSyRHuP9GBVrLcJoQjbUewl3D1ZUoqczu5H9CCleVLIihpcDMr8bVKMEluMwxXyYlht/OjUsIxliqp08O8pcIquSdCSwVG2k7jfW41/3hSSaeOt2op+Bfo1t+M2BZ0gfdzJnep4qRqqfwCdPOFsFsUactrHQuUKi6qFpSVLIPdokhb1hIu70pMuUoXa9UCglkuR2kLWsx54Ni+3cplWKsWEMyyQWKtXIW8VFbreHmZcpvrjFULyEqWcAYxpO0IRmM4/lI5T7KBj4jHWMm3IuMJMpZw6xqVD+mpZHuHkOPLJLBbCGnLx6zkH69WfqRuF9ub3BaNTQhC2vJZxyufKW8Su82lyZQiji/bGoktiM86vjtD+ZSF7Uzv8xjASh77OfdaQZC2XNaxy1IlddYs46rkAFYytzOIIG25rOPpR5V/aZrsbSXHjd0CSFuuA8eclyqps/+kr5UcN3ZrT9qOGc1y60YfUJ6GqWoBWMm8m5A9abuKxzr2pFRJnRUsVYu9lXyRda1Yk7Y8zErJjmrlc3iqFmsrmRe7tSZtWQ4c86lUSVO17OSoWqytZE7s1pq0/ZDjQaDVM5T/2cxAnJXYHl/Gid3aeoIc1nHezJiKQjiqll5LmOV3jNitJWk7aiP+drUcVVFJEx7aPGcJs/A5g3+1LAsZmBVPSxWxqsXSSuZzBh/bvTC8dRw/oCKV5EF41WJnJfNht3ak7Rj4P8H3G1XUsiKB/nNtk5ebkB1pu6o1x0qVNFXLDXRh8MjHTcjKE4SXcDWXVCQT2wnuDays5D/+xkPSFm0dR6JUSVO1gP+FtarkeLBbK9J2E/aXKSqlSpqqpR772KiNlcyD3dp4go+wf9KdmauinbXQv/NtrGQe7NaCtAUfOHaiTEU9e88ib8h6i08dHNitDWkLLeF6u1UWBFu1WMAsI/3agqDMyqLtKjsCrVrMYZY//dSnLWga8JHT0tPVKlsypw93XwrMKzk8dvsT4+Ox9gC/+BDVUiVN1dKG+3RYYVzJ4Z3BB8YlHNA6Xt2lsiu798HujbGVjMduR7ov4WYfialsSxmuajG2ktHYrTFpew1mHUe+VElTtcBwkQmebEKmpG0H7BH2E/dUdgZWtRwyrOTQ2K0h5gQ7cGygW2VtqvtBxFWr4f/CgLHb+W6ZlawpVVLnPOg5ZMNKDovdPnRawmVTqcJbtZhVcjc92IJAB44VL1TZnzYISVN7zWhQUOzWiLQFHTh2+LnKhWCqloSRlYzEbo1I21cQ67goC0sVzqplo4mVjHQGn5isFYh13DlX5U5eIqoWI5gFiN2akLZPER8EG5Iql7J3naNKDucMmpC2U3rt3/WxHpVjqT5u/xtmcnzZKZee4IhzoVQxyrOV1vetfQ/928Mw7PaWixKu9HahysXMuGt96z52twkZkLb21nFOlCqpc8W6aqFXcludbUEvrN9tjpQqqXO0xfbfZLKVjMJuyaRteY1tqdIUU7mcsuW2nwrIlRzGGaSTtrbWced1let5aal1ko8vw2C3ZNJ2UihV7NNoWbVQKzkMdkv1BC2t48qesFAQVcs4B5vQ58Sv4VseOLarLiwTSNVS9II2NwR2SyRtZ1kdOFawszCsEVDVUlxOG9xH4lvQB1aN48KwQHBVC9FKtsdu/z1CroRb1hVWB7JqocEs9tgtjbTdlGdTqoSlga1aaFayPXZLIm1trOPO/WFhpMwB8w8LvaTjy2ydQRJpO8qihDsYSpW0Vct947s6nQKz2DqDJNLWnFmpXBGWxDBVyw7jL29SKjlb7JZC2k4NpQpXLtVIVHKfipG2Y0z31dpQqmSuWlYb3tw8wvFlds7gp/oXajaVOLdsDktBIzNnG5I1+jCLHXarT9oaW8fL1oR1oJW5Z8xuMMFKtsFuCaStIbMyOZQq2rm3nLuSs9mE9D3BTWZntJ0MpQol3UZfjtC3km2wW21P8LNEKFUkst2oahmtDbM8MF4qv/2K1TpOhFKFnEKjqmV9Mzt2+yVrCXcjlCpiVYvu8WXm2O1IxhIulCqm6TKpWnS/BWKK3eqStibWcWsoVUSrFl0r2dQZ1CRtmw1OHq4PpYpw1VKh94s/n3ULMrCOD60N47asWk7Qn/nQq+QecpK29BLu7N4wbPuqZYB626sYN6F/6lnHVFI+vz+UKpCqZRH1xmvBLGbYrZYnSLaOQ6kCq1pOE39N41owixF2q0Pakq3jvjlhyLAsJOKNrTqVnAl2q0XaEpmVgrZYmDAwzw/T7r+OlXyVaQsiWsf7dofxgnOkCF7JGWC3GqQt0ToOpYrzqqX2Dgd2q0Ha0qzjeChVWJIkVS2JDgbs9gm4hAulClt6jhHmoGElk7HbzKTttlCqRLFqyVzJUZ3Bv0Gt44rzYaDeVC0ZKzkqdpvRE+wYCKVKNKuWjFYyFbvNRNoSrONQqnhWtWS0kmmb0AZcCRdKFe+qlkxW8ifQLUifWakvC1MUyvVOUCVHw263ZijhdB/Mir8MIxSsWhp0/yx4inMGM5C2F3QfD14XShXhqkXzv/0rO2CbUAZPUPPAsfzj1WF6wqnbhbCSKdjtJwjrOJQqLhK7rVe1DA+zPAaRtprW8d1QqjiqWtrtYZaLmC3ov+3dzUsUYQDHcVkWIQ/pumsLrax4URApTcqKfElDDwoVokiiePGFQFe8pCiYL5HRQXslKFJDUIyS8CBEiNHLwcrKPKRRSiCpHZQShfIlVvdldvaZZ56ZCdyZ+f3+AeEZcfTr7GfYrGPDJKLKbq2vnIlypCW59Pf/4xaUzhThGgdxyXZxFSyf2Aob/w/YLZW0ZYpwlYgqKkgt58KVY7c00jaK5WP5iCoBkFoYfqtcUY7dUkjbDAbruL4Al0odqcWcrxS7pZC2kdXiVjOiinpSy1SiQux2UYl1XL2MixQwqaVTFNsaS1eG3cYqiHCzqbhEAbTmFvlJjuUmFO2QzawY0hBVAmu15bKTHIsz2Cbbo3Y5wAAAA6BJREFUOkZUUWFqycxQgN0KkbbnGxBV1LiuURErOVI2dnvngDzrOKIblyVAU0sPPbUIvb5M/CZUJ+9JuDlElcBdlV2OlXxdFLtdlWMdmzoQVQI6tUxTr94heditAGlLf+FY0gQuR6CnFtpTLTarLOx2WIZ1XIOoooLU0iTZShbDbkMkW8eIKhpILSkysFsyaUuLcC+zcRlUsgu9wpcxSrozSCJtt45QvsYIooomUgvx9WW5km9BDuF/Ktge4QJoJLUQreR5iaQtJcIhqmgotZBeX2aRSNrmIKpoaaemJcAsxdI8wRkjooq2Uku7kf31ZUVSPMFbdkQVre3mPeYkZ5HgCQpZx5mIKireviwB/qSQHbu1sEY4RBW1pxYbo5X8kPkWJGAdj3zHaat8d1+zwSxHWW9BZOt4CFFFA4v/SLIhjTOM2C3/FnSb+CHqvCs4aE3sLenZAfsCG3b7icE6Nr9AVNFManlFspIPsziDDxis47CzOGINrd0gmuSes3iCS4SXRg/04Xy1lVoaxKxkMnbrS9r2+yPvoY8RVXSQWnhWcrIoaRtcgqii19TS4vNRjlbC90qyCLNyBlFFo6mlnprkSNhtKzXCTT3BoeonteTQsdvTVOsYUUVXqcX4k4rdcj3B8TBEFX0tlZdaYvpp2G2psHWMqKK/1MK1kvk3oV/7BSPcwG+cpB5SS6MQzPJB+BaUb0JUQWrhwCx87LZUwDq+/xmHqJutRZCt5EUB0jb4uE9UScAJ6mgF9UQrOVaAtOVGuBhEFb2llmcmwuvLHNFE0pbLrOSdwOHpbssclvYyyRm8WuhvHRu/7sHJ6TG1zHq72hIBu130t45vIKrodZOeHxhPE/2xWzdpG4cnVbCgoEHP3zclLiu5zfOt8sbBs45DKxBVdJ1aKnlJroxP2npeOIaoovt123yS3LuTvqStNQJRBeOnFpeVXOdD2jpcj17GVOGgMGdqMXOs5DIuaetmVq4hqmCu1JLktZLd2O2q94Vjxk5EFcyTWmq8VvKwl7TN2EY5WppxQBhnac7UYsr3YLfDHuu4vBang/ls0PlUy5DVjd2GrK+HO63jgxU4Goy/7dQyVriD3TpJWyezMtqFg8EIc6aWlB3i6ceOddyTgFPBiCuYc1rJxduShrV3046oggkuvsNsuLg+v7E319G0OY2ogtE2kVS9YNn4tnXpGKIKJrLUmrgvG5YcRBWMYWkrRX+yEFUwlmX/XcMh+O8foH/Q3smI8w4AAAAASUVORK5CYII=;" vertex="1" parent="UEzPUAAOIrF-is8g5C7q-2">
          <mxGeometry x="1120" y="189" width="55.28" height="51" as="geometry" />
        </mxCell>
        <mxCell id="B8WcgsVvd8YaLCZ8lpms-54" value="GitLab" style="text;html=1;align=center;verticalAlign=middle;resizable=0;points=[];autosize=1;strokeColor=none;fillColor=none;" vertex="1" parent="UEzPUAAOIrF-is8g5C7q-2">
          <mxGeometry x="1122.6399999999999" y="240" width="50" height="20" as="geometry" />
        </mxCell>
        <mxCell id="B8WcgsVvd8YaLCZ8lpms-59" value="" style="edgeStyle=orthogonalEdgeStyle;rounded=0;orthogonalLoop=1;jettySize=auto;html=1;" edge="1" parent="UEzPUAAOIrF-is8g5C7q-2" source="B8WcgsVvd8YaLCZ8lpms-55" target="B8WcgsVvd8YaLCZ8lpms-50">
          <mxGeometry relative="1" as="geometry" />
        </mxCell>
        <mxCell id="B8WcgsVvd8YaLCZ8lpms-55" value="" style="shape=image;verticalLabelPosition=bottom;labelBackgroundColor=#ffffff;verticalAlign=top;aspect=fixed;imageAspect=0;image=data:image/png,iVBORw0KGgoAAAANSUhEUgAAAWMAAAIICAYAAAC7GY/lAAAAAXNSR0IArs4c6QAAIABJREFUeF7sfQmYXEW59lt1lu7pZbbMZLJDCDEIWUBAcUMioECCKALqleWiqFe923+5gIKKCKIo7gtw3QDxqpGrsoTlR3+uigiILEmQJWRfZt96ej3nVH3/Uz0JTGZ679PdZyannifPw8PU8tVbVW/X+epbGPziI+Aj4CPgI9BwBFjDJfAF8BHwEfAR8BGAT8b+JvAR8BHwEfAAAj4Ze2ARfBGmIvAwkW5t6A3YLGgKppuG5IYDZpBmabrDeDHMiEuHk2mRJh0Nwsrolj3UHbcvXn1oBmBUrL3/dx+BeiPgk3G9EffHyyKwbtMmMySPChuUbrVEulnj5gEE63BnDpNYwrl2GBgtgqRDGOPziKgVDKESYOwH0U5w3g1BO8BptxS0i4CXdKY7+9sTWWQEmhJx2x5tGxqIrV69OF1C334VHwHXEfDJ2HVI/Q4nInD11cTfcPpQRAT0Ls7RLogZ6u8cbDY4VgE4iQGvBxBsBHIMzCbQCwT8L4E9TlLuUHLojBzB2EjQcrofuedbY9dcc41shHz+mAcPAj4ZHzxrXZeZqhuvYc+fFzQCC2zHCnHNMCCdpYxp7wTJN4KxlroIUvUglADwNyLcA0nPS0Y213icS33nbLup97jjmF31EH4HPgITEPDJ2N8OVSGwbh1pLctGF1mMvRaSBRjjzWBYzYB3AjSnqs6913gXY1hPYI9KIeOcs0Hm4PnH74oMXnMN82/O3luvaSWRT8bTarm8IewjL1A0JuLHS1vOY1wzAHkiGDsbhGZvSFgfKYhoM+fsV0yylySDzUn+7fSV0ZfA/AfC+qzAzBrFJ+OZtZ41m83vX0zOT2fk2xhkBGBdBLwfwJFuDcgYoHNmaxp0zhnTOMvoGjhj4zrmaoqUZAsCdxypSclsR0hDuH6PZYIx+hUJ/IE4SQfOX969sn1jNXL7bQ8uBHwyPrjWu6zZ3vdscgE0+XaSmMUYvYYI7wPQVlYn+yqrjabrTJg6J8MA0znjYK/auXMGGBrLaBpMXefM1FhS15nGGAKVjDexjSTK2A5plk26cMiyBUxHTrBuI4AIMmNLZGwixyGtSts31eNdAP4EsARjxu/OWBHcUu08/PYzGwGfjGf2+pY9u3tejHXwND+VQIeBscMYaC2A2eV0xDhk0OBOKMi5xqGrttmbr85EwODUZHJwDk3973L6rWVdKUmmLVJkLG1b6vvImGyHkMqo/y8ZVcDQDIgT2N2MseeIaLtpWetPPa59tJZz8fuengh45jBMT/hmhtTrNpEZkfE3EvBWAhYBdDIDW1wqWZo6d8JNjAcMnrUV5oqMA9wJGkzTNKZId7qWLBknM5LZygCOAEEkUmmSyYzQpSzrx0QS0Q7G2f0gtoUz/O70FZEN0xUYX273EfDJ2H1Mp02P9zyTnK9xZw0YO5pI2fyyYwBqKjYBQ2ciEtKoyWTZW6+68YYCnBl6cc+4Yn17/e/ZG7RNMpORmiQwIWDHkoKlMjKLRYllGMqmmeRz4PTwoaz5oeXLmVViW7/aDEXAJ+MZurD5pvXww6SnO2PHCMkvYKCFADsWwMJiMISbuGwJa+ptDZoG2RTgZOjT+tZbbMol/V0SRDqjdM1SAzHEEg7FkrLUc+WAYRMkbSCih8Bp/dqVrcMlDexXmnEIlLppZtzED7YJ3fMkhVggfhoDex+IFgA4DoBZCIdoiMvmsM40DmYajIKmMm442JArb74ZiyhtjeuXYwmB0YQoqQMCvQzC38HZA4bE/7xzVbSvpIZ+pRmDgH+0ZsxS5p7Io7uoaXg48U+AfAfG9cDLCk05om7AEU2pHJipMzIMxtRt2C/lI5CxCRlLQkjCSFzKeFIUDXAEYDcDe5GA+2RA3n7msuaB8kf2W0xHBPxTNh1XrQSZlWdcZFn8u8SytsCvAZDXG840mGxv1qkpwDVDY2ToYFzZmvnFFQTULdlyiGxHKssM0T/icCGoMDEz1gOSWzn4nZaZ+uFZR3SOuSKM34lnEfBPnGeXpjLBnnzySaM3sOznILYAkMsBFs7VE2eMIk1czGrVoWtMM3WmrCD8/VAZ7CW3ElKRMpC2JIZGHSTSRfXLfQDtJImbwquit69m7JWIcyUP6lecFgj4h29aLFNxIW+55UljwRuX3QbCcrCsKiKnPljXGLVFNdka1TT137qW3QL+PigOsas1lM+JIwiOQ3Jw1MFoXPAiZsy9APodQf901jHNf3ZVGL8zTyDgH0JPLEPlQqgQla9/79gPwdhbQMpGOLfHmlI/dM0ynHATNxQJ8wneb5WP7resFoGs7bIkSAkaGLFpOC5YEfvlHgDDGcJJZ/uPfNXC76n2Phl7ajnKE+a+DWNfIOAfwNgCEOV0G9Y0RofMNe2AzkzlkuE/xpWHcT1rS0XKBPQNO2JkTHAhKd/5VJfoPjD2xJoVkXfVU0Z/rNoh4JNx7bCtWc/3bxp7v5T4NIDXKi9jyqNmWLowYJk6N5UxhG8QUbPlcL1jdVtW//YOWGI0IbnMT8oCjO0hyW5Yuyr8fdcF8TusKwI+GdcV7uoGu2/T2JFS0lc52On5CFiNsGR+MBEK5n64q04Cv3UjENi6NyMTKZnX+oIxEBF7Im2l3vPe4zq7GyGjP2b1CPhkXD2GNe1h3bp1mrXo5HBrKHAlQJcxlbEoR1E33wWdgXRLlAfURbimQvmd1x0BKcl5cWdaV6E/8wcsooSU7FZtb8+ljz9+h+2niqr7MlU1oH9oq4Kvdo3VVefev3U36cHou6Sga8CYshWeUjQOtES0TFe7Yeoq4KRfZjQCyYwU27stTemXC0SR+wPjdJVIR58+8ziWnNGAzKDJ+YfXg4v5k4e3Bbs6Ow6Tki5hYP8nl4jKIsI0mJjfaWjKTdmD0/BFqhECioR7hhw5Gne4iiqXszCWgaSbZZCu2zv20ujHjjvOz9lXo/Vwq1v/ELuFpAv9XE3Ej9842gLi6oX8RsZYx+RuOR+3DZ4zSxcqcE820bJfDkoElJ3y9u4MHAEV6jP3WSZ6gIi+GYg2P3bqEubHUfbwTvHJ2COLc99mCohMahWTztkM7IpcYhk6Q3NYczpadBW4ZzrHCfYI6tNfDCLQaMKRfcOOZlmEXPdkxhAnia85Iv1fmWM6es9jrLToRdMfnmk1A5+MG75cxO57bChKTYE1YPRVAPMni6RxkGly6mzReUvE5+CGL5kHBVABiXqGbFLZSiw79y2ZQD9mYLc5ZvppP9aF9xbRJ+MGrol6pLtvY2I5IE4B+NdziaJiRrRENac1qiFo8HICmDdwZv7QjUBAvenFEg76hwVT5JzrlkwML5OU37XT7I6z39A82Ag5/THzqPl9YBqHwPpNyfdCio8CeMdU3TAoYHKaFdV4W7PPwY1bpek3cjItqX/Ezubuy69LxjWaZtwR6A9sX73aDz7khVX2b8YNWIV1j+5qCoVbzmOM3QwgOFkEFUeiOaqJ1oiOUGA8tVG9inIg0BkcnamEoUyZaVjpcTddww8oVK9VqH4cRxCNJgQNx7IpofKcc7qDGPtNcmzk/vPetDBV/ah+D9Ug4JNxNehV0PaeDbEjOOFMMHZDLnJTGTU6Wgxqb9YkY+OZletVTM7I5KAAh2Xy7I+A+pdKqtd6IpZyKFjI869ecvrjlIwAjSUl+oZtRcg57ZIZ2HZA3tQUjX579WKWLrlnv6LrCPhk7Dqk+Tu899nYuxhj7wdw7j6ie6WyMllrCjLZHtVZayRrslbXoog4oisizjqOTNkXBKRiNsmUoFCtCZmIHDkezMyURAkhSUVaDlUCCAdLMsDmGgtzQKjpsTyR7Srpfzq0UWqL4TFBY0nBcqktCJCMcG0mTd/x9ciNW1GfjOuE/foNYx8j4F8YcASgVACvFo0zam/RlN0wU9k26iTSAcNEdEZRvXBsY0lI9FtSl5Q7TGeZckuhWFdQRoCCRK/aSxPIUYk+JZEpCfF9ZJwzSH7RMQlJzpHROI9qDA5DNo3fqxHuGByD8YTOWYCzqSqjov1Pkwq2Q4qMaWA0+7iX79x/j3N+2+nLw3+dJtOaUWL6ZFzj5SQivn5T/JOM8BkAsycPp5SycztMao1wyXljbIc1hiwRN5XgTh130B0XNEdZgpQBnRQE2EJAZNtlr6fSkURCUkZSVv1R96+BrPwMjsZ4UmcIaIyNkzSDbXKe0jkLsiJJW8vAoOFVVTC4saRA76DNlAlcnvI7CVp35srmHzRc4INMgHIO1EEGTfXTfXhTXyQpgh8HY5cC6Jrco8aZmNthaG3RhlyGXxEnwMdvxUYJaZdU0uOetGwuhI767HWIMpaQnIgCyjFBxelVN+FxMvZ2ICOmCBrM0jhTjuY6ZzxtMAhD44qs66rHr34XTu1BEfLAiKBEWmSzWOcou0D48ZpV0c/XYny/z9wI+GRco51x18Z4l0b0SQZ8LNeNOBjgoqtNZ83jLs0NLSYHFBmXGuKiOy2nyKvUCmkh1E1XxVcmCdi2yIZ9nPbkxRizdQbJGTMYIE2NOyZnJmOs4WtX6cZJZYiGxxz1j8upy6l+LmMM7L8ev/OrV/jR3ypFubx2PhmXh1dJte9/NraMuPZJgvwACFPiS7RH9WRbsxYMBVXujcYXlQZvn5qiJGG609JSOfbU7TflqFd6CmRvw1IqEzhPzKmkiVRWSWqMSY0zpdSRQY3bBmMBllVFT6+i9MixhGC9Q072tXRqoQQD+0GcR644bzlTa+6XGiIw7TZQDbFwpev1G0eOI9L+nQFrALRO7rSrzbBbo5qKLeGZG6PaBBGdZf+VUl6IWTYIhgQJ9dI2+UGylD5mSB1SqiaNMY0R4pGArnOgaTrNTd2KE2khd/ZaOW/IBIqD2E9t6Vz5nmPaRqbT3KabrKWdvuk2qwbJe/8zsbdIzv6TQCczsMhkMeZ3GJmWiGZomvc+b/eTcaENIYicnQlbH7OzDOzvnYkLPK7KUO+xWlDXEkGNV2b90Zi9S8m0ZFv3ZnLaImcJGViXsTKf8TOJ1G6B/APlErb3P5N8i+TyShCdBDb1drRotimjYQ7OvUfECgJ1KVaqiqDSWeQoaUHJPUk7mHDyp/9xCcpp3w1nTHAGrjM+EjW1lukS5lQ5hry8O5MHf0oA7C6Hy6vPWt7y8rRfJA9OwCdjFxblwY3JNzkkP8sYTiKiKe7Ni7pMRENZInZhtNp1EdKYiOjqm/tAvW9/2rGHLMEzghpr9lG7qdeqZ6XC4LrGraiRtRs0azWQW/2qAEOKkHOqkIEUCHc7TuozZx072ydkt0Df14+32cHlydaiu3s2xVdxos+BsFY9ak0eY2GXiZaw1pDszJ0BntT2ea4pj7aEQ8mEQ9EcOFDSEUg7gikPtVaDi6ipOZag9KAlwpYgbZ9JWi0gnPF9MoAUrhpnUuHKsc+e2aMzz9iEl3enkdPKAsgQyd/YnD7znhWtWzw6hWkplk/GVSzbgxtiRzhgnwNwDpANpHNAaRQRR3WWiehZj7IDdLvK5MwSRCM2OQ5lfzgoI2UmkXGYBJRFRLaoTcEZIyKC9HXDVeyQqU05gzQ5d8KGpn74puwZVwerojNFyFv3WtLJrZZSKZx+lYL47DkrW7dWMYzfdAICPhlXuB3ueioxT9fpPwH8KzD1833hbBMqBnE9i8YgOwM8qw0ptLCjlsD2+HhKtLx+WPUU/OAcSzTpmggbXGfw5jtCIUJWpowA/dAi9tmzV0X7Ds4ldHfWPhlXgOddL1BUT499BJx9LVfzBbNN1NurrtXkVkiDckoouqaKjLftI+MKpu83cREBBpaOmBqCGp/y1uDiMBV3pXTIW3ts6di5H26J6Gs8ZX/hjBNmxSoexG/4yhepD0UZCKhcdXYidq7O+U8nN1MvNPM6DLTXMRi80kPOMsCNEh8HLUlyT9IRo5bw7CdyGcsxY6qanCdChqbrWQcSb00rbUls77ZUoPqcghFwbZJHvnLecqZM4PxSIQIeW/YKZ1GnZk8+SUavOXYGwH47eUjFhXNmGXJWs/rqLH47rVbkfY4adsRgyp+6JK83dZRitqRtY5a/7tUuQI3ahw09E9SUQQt0Lzn1JdMSO3sLELIUnyIn+Z0zj5uXrBE0M75b/1CWuMS3PEnG/EDyHYzkvZObqBCYHa267GzNnp+SiLHEYXNWU8TfbnIZGA/sU9IaKiJOOVJsTzjCEtLzJlbV4DPd23LGkhFTM01lZeghRo6nJHb35SdkgC7VKXnLO1fNSUz3NWiE/CUd5EYI5qUx1xFp4Y3xN4Nw/+Qg54qI26K609muMX08O0bNirKOMBio2WAqnFhZa2dJEr1pYQ+mHU/qJmsG2jTuOGzoaYMzXWfeuSWriG97+u18KgtBhH8hO3Lbmccx/4Zc5t4r60CX2feMqK7i9t6/afQwkHYHASdMnJTKztEc0pyuWTpMvbZmSuq7NaxzJ6xnn95LNtNQN2JLSDlkSac35fg34mm2Kznj8ajBQ4aW/Qyq+VdXKfDEEgJ7B/IS8h4G+mfs7r3/jDOW5nPnK2WYg66OT8ZFlvyeJ/eGuB65GpxdPrlqKMhF1yyDIkFe0xuxIuJmg1Fo3FW55DVTRJywpRzMOGLYkv6D3TQ+3hFDt5QTn+4N22QajQt0D9oqjdNUVBn7nQPr0qeWt226hikTdr+UgkDJB7uUzmZanauvJn782WMXMMZunTw30+Syq1VXtsQ1u62oxdF56Vk4JsooARmzBN+TdGxbkk/EM2Bz6owpi4twQOMND9QkiTAcE9Q/4iiVxRQeIWJf44JuOON10f4ZAH1dpuCTcQGY73028S7G5F2Tqxg6o85WHbNaSow5WcFSKv2wytQcySZnK/02rIaK2VJmhDJhs2t6Y69gWn4TFxBoNnWpEsgy1pg0XfunoOIhD4w4NJQnQD0juqo5EP3OW45gYy5Me8Z34ZNxniW+5+nRpVzjfwQwZ2IVXWPU0abLzha9ZL1tubtIXbVDOmRI42Tw0vXDGUEi4Uhtb8pxHEk+EZcL/DSqH9I1y9RUqize0HeAVEaSCk6vMk/ngo9AHwtHo7evXszS0wjehojqk3EO2FUS0fs2jN0Kxi6Y+Oes5USzJubOyn7114TsNMYorIGyD3UlmjVJghyxBB+1pROzhEp7NK2LnhghM9bnBAd2GFqmDCspxmFHO0Rq1kJut3QxqTeUp2q6Bir4kMZYOmRoZkBrTEbx/RPMJjkdcqBCcE4uBOxknJ31xK/CG665xtcfF9oUPhnnQGf9s7HLwPiXJsacUECFQ1wsmB0gQ6sNESv74aiuyFh9gpb2cj5mSyfpSPRnhObIsjI215QsSu2cCUcE+7bJ6O5NOrMz2f1ojg3K4NBuJ9i7xdRTJXrZSgKB23Zrl0zOPtxIz1rApTGe7JmYRqk5h7FU12Fwom3lvIGWOo2G1FOEzBgTYUPTghpXTFizr7ViE4wlBPUM2kzFs5hCyISfkz12ie8QUhhFn4wn4XPPhsQZHLQOoAMyNSilxMLZpoyEavNgp4hYOe+FdVbS44wK1DJsCdafFiLtSI3KsLIodrBq/XcjMULRLU+wwGgPuG2Jpt4tMrJrk86EXf5+VBQkVDw69Q8qHZTS8hxASsQ4JecuYek5S2BH2rNISTMkR494I0t3LCx/zFoDVGb/KsJeSNdEUMt+SzWKkGlg1EH/sMMctR5TKfkriRceuPK8884TZU7voKk+7Teimyul4k4gnXiACG+deCvWOMPcDqNmwX8UEbcYDPtM14pOSRDEcMZBX0ZwS0yP27CWSVDzy08g1PMyM1KjFN7xLDPHBsZJtJqiyFgl4hv/Qi55P0sjSGNLjkGmbS4jzUBy/jKKHX4ck+b09IlRhBzUuR3UuFJfjH8S1Lk4AtQ9YGE0IdjkZc1GeWP8XWtXhNfXWaxpM1zJm3fazKgKQe/dEPsyA/sX9X62vxvl5za7XRezW42a3DjUArSZDE150h1Nnk5akDOUcTBsSc2eBmqJ4MBO2frSoxQc3MlDe19AYLibVU3Ak0FRaSkESYjS3cMndkFcR6ZjPiXnLmVOqBnxQ1dRbOnxjLSaPAtUsUMLN1Wxkg3GraB61WvQw14qQ7S7L8PS1tQfWQb21GwrfMJxx7Hx+K1+OQABn4z3wXHvxrGzGeH7ALomIhQKas7iuYYKEuy6PXG5RBy3pRzICDlmC01Q6bfAeu95FZY+1P0itT/7IA8M76VQ71bS0mOu43fAvJThq3JAkNXhIjUDmVnzkZ59KNJzDqPh5W/L3p7rjWGl4ykNjM65HTI05TLfkBfMeFLQngGbWbn0x8DP1q6Mnl/p/GZyu2mzyWq5CLc8+aQx33zN3Rz8ZMKrDhIKnCULArIpwGtCJO0mk00lZoqOWULFlqCUkJr0KhGTRKhvq+z68y+4Geulpr5tjAmnlkt3YN/q29jOpidxZV87oRakZx+CdOciGlp1KhILX+tKv7UGhDFIjXGnSec8qNXWOzTXXFSGmP4RR9kgMzHZwIIgONfOO31F6Ne1xmG69T8tNletQb13Q+zrAC5hYAfkhzt0rulEQ7X5Vm03mdOkZY32i66BCgbfnXQok7UYKF6/1njl6j8Q65Xzfv9DBEb2sqbere6rIkqdlMuErIaVemD8tty5kPpPOBuJhUeUEsO/VIlrVY90zqxxQtbq7oGp3KR3dGeQmqSuUBYgxPDsE3feeOw111zju0pPWP2iRFCrneKVfu97JnEMcXkbgBUTZWqJaOlFXaZ6CHEdo7bxG7FSRxftWxHx3qQDRcReLNxKoevxXzktLz+uBft2gEmn6JxqPg8FlS3lvhuya/IoHXKmbR6SC46gnre+j2U6FtZ8KtUMoG7IHCytTN8CGq/7o17eoPQEhzH2yzNWRnx1hU/GryJw74bYTxnYuQAO2KxHHBKUhu6+nrjZ4E5Eh3quK0oSo7bE7oQN25NETGga2CkO+e2XNDPWT1omUXQ+1RBL2W2z4eqynxKuy6WcSeyW2eg/4SwaWnkKE8EDrCDLFrXGDaTOuBUyuB5ogMpicNSRPUM2z5Fpugew37FmZfvGGs9/2nTv+kadNjMHcM8zo//MOf8UgPkT5T58QUA0Bdz3agpqTLYaKmJ4cYKI2RI7E3bWasuLZekvrxSBgV3ciPV7dw+NE3LNsq46TVGIYARbP/gFpDsWAeWFmK7nsipzt2TU1HWD19fsTUrCS7syueIfCxAeXbMqemI9gfDyWN49SDVG7eGHSU/Niv+cgLNVZvr9wzWHtfTCLlOluXcVGw5QZ5Ajm5SpSInbMpu92anWBrfYQBX83RjrF6+5/T80Iz4EJqeB/X6NCVlB6IRbMLTyFLn3lIs5edcFm3TOUxFDMwxe29jbk7eVcgJ5aWcaUx7zgGGS9MW1RzfnTOxbwfac1k2KEsO0nl0B4e/bMPYdYrgEhAOs/JcdEiRTd/+K0xlgMEtIGppwJLaOWVmnMq+VBb+7xWrf+DtDS49Nr30jyIadDZxUM7mVPlk99G28fB1Ir/t7WUlbhWUzxWiJsMkD9Y6L3Dtky75hZ7JVknKbfPKMFdE3MJb1PD2oS802p5dRve+psU7S8QMAZ02Uc/HcQDrcxFV2Xldx6QxwmCUYx6UF0eaxjBSyYS6teZdt2Q8/jqaBHWA0TR/ALelA1iamyETQiGt48eM3ydTsQ0tY8cackiZdS4QNLaCSntZTgk1bU7n8fTJg+O2aFdH311MWL47lKul4cYKTZcqmUdoYv5mAj078m64zcfj8ADdcvhWXajlhSZLbYraVktI7/rhE0NNjcunPLmPB/h3Tf6+oqGL1uH8xjr63nufsXX2RrsjZi6XZ1G2Tc7Xb67auGUtm9cc5zuQTSdt5x3nHtY96Eat6yVS3hajXhIqNc8+m+Com6UYGnLK/rvLrXzLfZMGAu5eZJo3JlhIe7GxJtCflOCMZ4ZnvW+WsEep9Ob3o3q+bypW5GK7T4u9KB5/JKuJrvu+JcSQWHYktH7wOMvCKd72nYGoxdZi1iXuVd55Kd5wjspsyn3/gif8Jrz2Yw2zWfFN6afet27TJjMhDbiRAxZ94pbQ365k57bqhlegNV8qclO2aijmhXgILFUlEAxmZ2pu0PXNiNTtNrc/9r5zz6M+5Odo7s/aITSkIaiplDauto6zqMl2HiM0XfUVzwq3VdleT9q0BnQxewmOGS6Orn8K/b0thqpEQ/ZVsdtHaY6PPuzTUtOtmZh20IvDft2HsbcTwRRDevL+qytxxyFyThVy8FatrpCLiYAnBf1Q84i1jVl11d4VgUtHVOp74jdP51L2akRyZGTfiyRNOZ6mgbns/PftQueX867jVMttzBMEZS7SYekDnrC57UAGvMksPjeZ0k7/ricEnz7lm9eo6+tB7Z0nqtiEbPeWHt1EwERu7jjF26URZ5nYYoj2qqUBArmGhMjlHxm3YCvapLCc2x6xGQ/PK+Hp6jDqfvFt0PHUv1xPDM5OI1WwlWbCyMUhcW/Nii5iaswTb3vdZZNrnFata978HNG00avAoY+47OeWajJCEzbsylCOR6WMa8U+etir8VN1B8MCAdduMjZ7rvc/G3gqwLzKmYhWPF9NgclGXyZqK6RLKEF4lEW0xstYTBbFNCSlfHLU8Q3h6MkYdT98rOv52LzcSQ56Rqwzoy6uaIQGier6uUXLBa2nH2Zex9KwFnjt3UVN36hVUSKkqhmOO3DNg59pnPw+tiFy4mrGD7nbsuU1R3okqrba6FafG4lcS8NmJLeZ3GlZ7czaxqCuHUmklVJD4YrGJVXD4zWMZJ+1Q3eMF5EJMqSbaNzzozH7s19yMD7iBBSFrN6r+SbYv+0Zpi1WvWup7eTzgR/3OAOM0dtgxtGvtv3Av3pBbAoZj1kldoRxBtu7JTH3MI/wZkJeuWdXyeL22glfGqd9GbOCM1z87+gYCV7fik/eLEQxwMb/D4KGge48XKn9d1CiqnqAhDGLEAAAgAElEQVTelGN1pxxPEDEXjmze/Bc555H/5k392yq/EXNOCEcEdF2lUpXgmgPOCMLRIKUOISSSSQangtRKtdo742Hw6noGVCaRoeUnoWf1hbCbO2o1s4r6ZUBqVpNp1MP+WN2ORxOCdvVak/FXK3LLE3dGPnmwWVbUdSNWtEOqbPTwww/rqbZj/404u3HSrdhub9an5EurdDiTM2o2lPVE4cM9YgnakbCnpKWpdNxq2qk4l017XhDz/3AbIjueqewBR6naA0FCaxth9hwbZiD3j4yVERgeBPr7ONIpb+w7dS9Wj3l1tLVV62VFZ6H/zedQ/3FrGe1LmlrNOrrZNmRo6bCu1cXWXYXZ3N6dQY6sIL8DZ5etWR55xs25eb0vbxyKGqJ077NjyxmjawH27v3DNAW5mDfLYKGgO0HjlXoiOp5MtOBMko6UW8Ys7hVX5+DADpr7x9vQ+uKjle+DprDEvHkMbR2l9TE8SNizC54g5PFQmwIN8HhMzl2KvSf/I8aWHl/D3V9Z182mnqlHyE2lJBqNO9jdNykLE1M/kfLGM1e2HKBWrGw206dVaQdo+sxniqTrN8QuJmI/mJg1d26H4XS0ZJnTDf0omjSg1eTEC+gfiYh2JBw5agmVybnhJTC0B3P/9FO0/f1/K5dF/ZYderhE+6zy1BtD/YQ9u4FMuvH7T6VrshqT1DV+6ArqPuXDiC88svE4TNgFDCw5q0k3GWpv7qYcQHb1WpTKyAMxIPxaSvmpM49p2Vz5Bp1eLT21CdyG7jdPDx9q6vpVIFzyyq04wOTcDhNhl27FhlJP6FA2xQWxVLnrupO2J27FenKEZv/1t3L2Y+s0liPQbMnrMGu2xOIl5RFxtnMibHkRGB5u/P6rYdzjEnCkkeUnUffJ/8jS7fMaj8UEgUOGZof12mcIUSE2R+KS9vRP0R33EeGatauiKi/lQVE8tQHcRnz9xsRaSPkTMLzyUtLVpsvONkOFnq2ARA6UUIEX1sdN2Qq9yiccKXYkbG6JxtzAJkqtkoVGtz8jF9z/LRYY7akcA/Xbs/wYiUCF3jI9ewg93epBz+1lL78/FavUaczaOOFW6n77RRh83WnMS3Es1N6OBgw7UIdwm6mMzN6OM/aBa8AYbuIs8pnTlrOh8hd1+rWYsWR874aRNgbtkwCu3b8sAZPLubMMREPu6IpVJLZWg5NR4NFOxQjclbDliCW5VNm/GlyCg7tp/kPfR/O2p6qTRZHxsSdUPhsrQ9jyEkMiXnkfbrVUgeiUZUWdH/L2i5+cvwx7T/0wxhYf7daMXOnH4NxpDWRNP6vbK0WkUU4gQzFBPYNTLG1eYoSrzlgVvdOVCXm8k5qC3Mi537cp9maS7IcAjtgvx6wWnbradGhFVAqlyM0ZlJcdRYukZupPC+pN2UxlkW900RPDNOfRXzqdT/62+oBEgYCNFa+rrp+X/g7EPBCoS6Uztkk95FVmUeLCwg6vXE3dqy9Epn2+Z86kSh4aMrRMqA7WFYmUxPaeDKZozRi7cs3y8JfH7dZndvHMwrsJswqTee+msXdzYq+kA9c4E3M6DGqPupPtOaAxajOYSmaXF0NHkrMtbmmJBn0CH6CeAKhp74tyybrPQU+NVv9w2RQWOGpldf14hYwVUJIkLPUG25gimppp55p/ZiPL3+aZ9E2KjDlnTlvAUJu8uh/eIrA6AtQ/bGFgVBxwngh0t2D8s2etiGxozMrUb9QZScb3bRxZIkn7MgPO2Q9le7Muu9oN6Fr1umJt3604UuRW3J1y5EBaMOEB9YQ52otD7vkKRXY9586aq9+0Y6o0y/IUGe/Ll1e/szdlpOTcJbTnjH9GfNFR7qyRC3NRggR1TUaM2sfajCUE7eg58CGPAaNS0n+sPbr5xy5Mx9NdeGbR3URp/YaxExmwnoDI/n4723TMaXfnx13pimcpU7YCt+K4I+WepMNSziSTHTcnWmJfTNjU8vLj6cW//mKTa9HVq9UZZ9IOtm7mSMQbdhs9AD5l4qayv8r6BMvJtXRKab3ntI/R4LGnM2nWJcpnSTtIfVU2m7qlM1ZTodIWUfeAhXhq0plh7MpQJPyN1YtZuiSBp2mlGUfG9zxJIaaNnc80dsv+NQkHefZWHG6q/uFOy5qyMQoVuWHvTjo0mHY8oegyYv1YesdlsirrickbPEvGb1DxJyrbQ7t3EPp7GYRHkpoqjaR6SXJq+1hVjCes5k7sOPtyxBevKla1bn9XufNMTZPNhladWqqIxMpFeijmZENsTiwEPEskLj1zVevv6zbpBgxU2UFqgKClDrl+Q3wFQL8BsORVFYWGuR0G3IiSue9WjEIRLUYsYXenHJ4RdY0KlhMi7tg06+l7Uwt+d4v7wevnzs1g/qHlx9ggSGx9kWF4yFv7T7mEWY1/J+p9y/vQ96b3wksB6XXOHHU71hhzfx9N2LmjcYHdfdaBweezP5H0kTUrm28tlQemYz1vHQYXEFz/XPINkOLR/ZHCOGeyo02nrtasiU5VRVlQRHUmIzor2Je6FQ+kHU9gqydHceQtH5ZaugbqAMMgrDxWRWgrT9WwazvQ34upT+dVLU/1jT1CxiIQwtYPXov4ISuqn5NLPajszQGNU7TGumNHEPUPOxgYPfD8MODqjHC+/Z5j2kZcmpLnuvEEYbiFyronh1rCAfMTILp+f5/NIc1eMNsUmoaqg58o345OFai4AGrDlnC6Uw6zPHArZlJQ28bfjx1y39eb3cJ4Sj9NIeCoMj6pe3skevYw2FM8rmomYskdSwhYUn0jV71XSh4zT8Wet34A/ep2HKrd0pUro8GZEzU0R+O8pvgMKlVF/xRVxU5I+dG1R7c8WK7c06X+jCLju58ZO0rj7AllHrl/AdqiGhbMNqtej3FvO0YqwWihzvYkbfSnvaEH5VYKK795LjFR41u6IuQjlktohV7cibB7J9Dbw0DKy8KDJfuIBwnZePUSaTpe+vDXkZz/ipm8JwALaBzNZm3NsZVVxd5Bm2z7AFNDYgwfOGNF9JeeAKIGQswoMt6nL37FHlHpuTpbddHRppev15wEtgor1BUs/DW+T1fMMoJqu1tL3AjmcHf8qJsvfsWipMRmlVdTpLx4CSEUVk5b43vLsQm9e4HeXgbpjR+pvBPMPuIR4AUPHUA95NHwUScy0qu/TFS+qAe2NDUum01dmTvUco/L/hEHPYOTMoEw9u+6jP/wnavmJNyaj5f6mTFkvG5TXyQkQ59koC9PUFE4C+cYgjNWNRmrh7vOImEY9iYd9KU9ki2GCKu+8V6bZ5Lu2PN5adfWUhaP6I2zU+RcPv9PN/N016G1nHFZfTPGrKDGnYih1fQhb2DUQfckqwoAfydGH1m7ovnRsoSeJpVnDBnf/ezIYo1pf5+o72uNaFjYVf2tQllOzA5wqRUILpRwpOxOOYjbsrzHrBptFG6nadWN754x61sjmKZ26yUyBvDSR76NxPxlFVsQ1gK3faqKmqasUqqKnkFbpWU60COP6Ky1q5rvrsW8Gt3nDDmsxO5/duw1krEX9gOqDNWViqKzrfpvvBJUFNSbdtCdrLFutozdMu8Pt6a6Hv1FTY30yxBn+lT1GBnHDj8ua3fsJTM3jTMnpGkU1HnNvrqkJNk34ijLigMtlzj7h9BR4V/NxISlM4KM77tvc0Au7PogI/aj/ac+3MTFwi7TMbTqVBQKoFaDiVABczZLkuhNOTSYEbXUo5VFaMd86bSy6vuV9yEgssHmVZwyz5yNv//brfBaAtMmXaOIkeXJmuHUN+ygd+hAqwoGfjdJcdmao5tfmml7tmZA1hOoXz8emxVoYn8EcOQr+uKwhkPmuKOimFvk4W4g7WBP0kHj3QXGZ28kRuTyb7/fE+qSeu4DV8aS5MAmGwTPfFW8fOGXEF98NLwU7zigcSti6JKz2pkBKm88RcbOpHdfSeyUM1dFZpw33owg47s2xrt0op79h5FzRi1hrkzaqp6fsi2eXeDhTgLUl3LQk/KOimLBQ9/PdD55d9WPlq6Q23TrRNka2+SAyDP4xRcdlXUCEcH6GcYUWzYGZEK6LkMGr9mPlmUTeoZsKK+8iYWIzkqujK4/jzGPm+cUQ/HAv1dNVuUN537tq68m/oazY68nxv+yv3cVRH5+pyHCwep1Wh0mQ0BlHM1T4ragvSlBSccbD3dKzFVffRe4Y7kP9sHQowqQYBPgMVPojZf9Ek6kzVMr0KRryqpCyVQz9ZwiY+WRN7FIkjcbtv6F044Ld3sKkCqFmfZk/PA2CibH4rcBOG8/FpEmjRbPM5XWoKpPdQXOvKbCXQxmhMrk4RkcmZ1Or/zmeUGfjCs8GeMZo1X0DM+sqZrJi//0PUrOOZxVGpepQjQKNtMZS0YDOumMKcPympS+YRtKd6x+IycUi5F82xmrWh6ryaAN6tRTG64SDO56pD+qNwf7AbzyWRlp4lg8r/qvTJODOgP5QwI56sU3LWRf2qnZzaBcTFpe+kvP4t98sYtJ76hNyp1DQ+sTyX1ZP2pmKVDJ/AZOOMvZfepHddI9JBaDE9Y1hHR3EjbkwkWZuPUOOUhbB4bVJIbrQZEb165kw5Xg6cU205+MX+iP6lYwth9cRZ1tUY3mdVavL+4IcBng+W/XY7YUOxM22dIbHncKg6V3/Gcssuu5KND4fHte3PBFZSKyVYQKOFSz215RGXJUcCJt4rl/u1XzUpxjJWaTzu2wodcsE4gQRHsHbDYySW+c9ZUk9p8G4j+YKR5505uMidj9z8XfJyV+vn//Kn3xgk5dhILVpxmfX1hFQcMZgR0eUlEoDFZ88zzoqVd+myo59wd3G4+SsVqUZ6+8CzJQs/eyitZdZyweDeislqoKFd94cHSqZysR9hLkD1Ja5sbzls/2QGbbiiB8pZHnyfjuTclFTDrv5MTmEYcDRz6TEfpT4aCjwgWvAehK0KtJR0MBTksWBNQra1WqA40xmhPMHxTIISjbYtmfdjz03UhixTffp/lkXMWh8DAZb7jiVxChliom535TxmCFdY016dVffvJJpzzxlHv0JL3x/uo2QN8hsFGdG/8di/XvOe9NC1Puz7T2PXqWjB/YNNouJD+XCCcxhreBoYuR+jTBcxK0kQEqBuPJYOwAx/1QkGPJ/Or1xc0Gl1E9v4pCpVXaEc+qKKqOk+zWMjf1bU0tveOyoJZJeHZd3ZprzfrxMBlvOf86J7b09VVdMmqBW9jQKDQeLrwm+06pKPqGsq7RhcQXjOG3ktDNGEsxop1nrIx+txbzrVWfNQGvWmHHLSQSHwfRpWCYX2p/jDEZDXH7kDlm1Ww8J8ipUObnUUtgW/xA76BS5axVvTl/uqN/zmPrZjHHqsqKpFbyTYt+1QOeCqPpkch7EzEbPPZ0sfPMf9e8ZFGh5AtoXIQNjWnlJhkocUM4TlZvjNHEgZmjCzRXDyY9xNg31qyIfLXEYRpezZNkvP7Z2CVg/CqAygpXpWugrjbDbm+pPh6FMmnLB44g0GDGob1Jx1Okt+y2f02G9m5WSUc9ua4N3+2lCDBu2uY5O2MlutXcKZ/7jzsKZzcoZY4u11EZcCKGrki5VvuOdvdZbHisLB8PdQj+bhr0tlNe2zzo8pRr0l2twKtGWHbvs2PfYwwfL7eTgMlp8VxTGkXSIhXrV/l4zCngAp10JJQVRVp4i/SO+v6FMEf7ik3P/3shBFSgIBXP2GNOH/tEpqc//6CnbI33Qxk1dAT12t1NdvdbGI6VRcYA0SjAvrFmVfSa6bDpPUfGDzwzdpTg9FWAnV4ugEGTYenCYNWh/SI6Q4uRH5oxW2LrmOWZWBT7cfLJuNwdk6O+B92hJ0r59Ocf9FQ4zf2yhQ3NDunZTC81eUPpHrQxNOocmKi02HIzSJJ4dO2q6FuLVfXC3z1HxuufiV/AOF1NE7I7lwpU0ORYurBqdXE2o4cKm5mn0JgtacuY9/SyPhmXulMK1FPH1yJ1BfOQlcyr8nqVjM1swHmdaaw2ZDwSd9A35BR7xMuxsOzJNSsjx7uwM2rehefI+J4Nscs52KdV5MpyZ+8WGasobfm0Xw6pwEA29aVF7b7Jyp34vvo+GVcI3MRmKu2SnTWi8tzZUGJ6lYxV9uioildbKA1iFctjC3L29Fl8LFluDBifjCuG/d4NsS8zsMvKjSvBGGR7VI/P6zSqTqdbiIyVvlipKDySJu0AnH0yrnjbvdrQY8HlJ8/Iq2Ss5IyaOoI1ImMAtLPHYqOJMvXG8Mm44lOxfmP8KyBSZFxW0TVGczoM0Rapzk9ePd51BfI/WCccic0x70VE48IeOvLmi1uM2EBNdHZlLcZ0ruyTccWrV2Myxs5ea0o4zeLC+mRcHKM8NSolY0Nn8vAFgaSusaqCvoZ1yBaD57XR8SoZM8ceOOqWi9tKImN1ubCZhYzmQLLSEktqFENQhqFLrbpYeBVvjfo0rJSMJdKQ3IKlmWAsWFBYRknoIgVNtoCV5ynq5Ztxk64NhQxNBRGoic+2T8b1OQKvjFIpGZsGw7JFhc9AKVOZZTIZ0FhOMiaCGHFkcseYFS2lr3rWKUjGAoS0JpDh7nlvKY1qWACG9Kh2tUL0yyFjwTOwdQOyop+nA/XSXI5lsdSkClCU9z3Cy2SsczYcMfQmgxf5Mapwafb02xgey+sWnadX/2ZcIdxAo8lY2RfniyVvSxK7k05q1BJV3b4rBqdAwylkLEEY0zMQtTkYB4jCCYgICZ0896hZFtYEyj4GFLIfJxXTTbcguMrpVTuVkOFI6FJl4jvgIdHLZKywbjazzh9lwV5q5aFRx+obdTTbLicEgU/GpeI7pZ6XyTglJF4a9Z59sQKROTaOvPnDMAf7JeI1tL4vtLKMCEGSCArNm7YIRbZl1vtOOXzkiIEgmYDNJYSmCLg2bJNPPF2koYuAIuZnrr4flBXBm6WWZJxIC3QP2Ehlysk26ZNxxTvF62T84qj3Hu/0RAxd//tru+PR9Tq30o03yeJZUiYERH6f8op3SA0bSqJsYHnap8dVN2VikjkakeOiiqeKKWy55AuUWLSMiSZPhVt+ZUa1JGNHkr2rx9LiqXLM23wyrni7VUzGJpPLFhZJ41yCVIXUFOpm7CUyZrYFY3QQS269DsHenSXMrs5VlA40KAk6eSjxfQEM1I04k7UxJhAnONl/7unZXYJ/ZPkbxZ4zL9Gs9i6XenSvm6ip20GN1+zrYUePhVhZ5m0+GVe8upWQsYrW1hLmsYVdZtmOIhMFVa92KhN0Hp2xSjoqX4pZnvhG1GNDiG7ZSHMf/BkLDHo4LyODRECRsiiQM6Xi7eJuw+xDJ9lwtAwE99wj7cTJ2tE2+fLHrufp2Qs85R7dpGuDIUMLc6D61/Qcq+uTsbtbvmBvlZCxihrV2aonZ7cbVX27BTio3eQ5TSkkkRy2ZWJX3G74IQ0MdGPuQz+XLZv+wqpSS3BOMAJAKCzQFBEImDq4rkE4NjJpB+mkgVSSw0pzyCoj55iSEFTWAh69JasHT4sRki6+PumGBOeKLJXCQwWuYZAOINzx3rSjrdh68eeQmn84SI3jgaIzHo8GtIDOWE3cyX0yruMiV0jGmNNhOLOa9ao+KVWAoGY9d1Ash4h2JxxnxBI12WQlQaxUsf17sOCu/0L0padLanJAJZXMsmOORHvn+MkNBAVmzZE45HALr1mRQOusMHQ9BCFGMDIYx8vPtWLHywZ695hZQlZlZNBC724DouTYsq+KYJCESsJikLd0yYooMxxIVkhoKiFMuJmw4BCA749qwoBoSwbBJkL2qx0E22JIxTWkkq/uodgIoX8vkKlM12+3dGD7+/8PEoceCS8kK2VAvCVgBAzuk3G5B7Txjz2TJK6IjDUmD51jjoSDvL1cACbWbzUYhXSWM9eSLUm+PGanMiJrB1r/QoSmnu2Yt/5WNL/4VOnjM64IWGDBoRrCUcJxJwqsqCJbxJa/j+Dhe6JIJTT0d1vYs12ZeJVeso97EjAlq7NNQm4Z1Z3V4gKJcnXDSqc110HXfA1GgGHxMoFT3wsYZnlqrG0vCjz+e8Jgr4b4qIPdOziSY2X1YbXNxp53fYRiS49mXsiR1xLQYdbopu7fjEs/alXXrISMNY3JpQuDA4aG2dUI0BHgwsyjMs4IwgujmcaEzVREvHcb5j1wO5pf+FvpUzzyGBttnTqOOtbGG95eHmkWG0W9c73wTBx/eiCCRMzBc3/Tsp/hJRU1IQkEGkzIWVM2ZiOhKSVFaeH+NJ1w+FGEtg6Oo9+Uwso3BBCo/uE4C9tATxJ/eUhD9y4DmzcBw/08X+K3yTArQu4+7QIaXvEmRkr11MBSSzIu3wvPf8CreCtUQsYqLsWyQ4IpzlCaa28e6bqCXOh5QgAqMn5+NFPxvKpp2LRnK+Y+eAdanv9rad0sPMzC4iNMnPH+FDrn1sQ1dYIghKE+G/f8TEfvLoEXN5aoxtlHyMGsY0Njig0LCV0Fki/+Q8U42NKjJC08HHjbGsL8Q5VOozaSq9RPf1xP2LGZ4W9/YojHShon3TEPPaddQCNHncAaqbKoJRnvHbTFcMzhUpaKvU/GFR+uCskYrz20+sfbQnGMG0XG6kacJeK/P1EcU/Vg9JZ3chzzpjSWH189IMVHfLWGFBK7ttp48E4Tz/1NIj5a/FNbee41CQmzATpkm2WQUqZrJXgozlkosXQF4cTTGQ57rSLGksixHPjy6FAkHvwf4O9PWXj+qQCEU3TcdNci7H3n+Rg96gRkHw8bUGpJxv0jTmZg1NEdp1QvPJ+MK94CPhm/Cl2wZyfNe/AOatn0l+Kn6tDXZLD8eB1rPqCh+nysFa8fRgYJf/2DjWcfY3j+6eK3ZI0kwoJlbZHrVRyWQoJzCFb4e169Hiw9ivD290gcdSwQihT/ganFHPbuSOFvfwpi/X8j+whYpKTmHYa9p12A2GsbE1O92dTTAY2rtXcdr6Ex4fQN2ZrtlLpffDIutl/y/t0n43FojLFh6vrfX8uOR+5hTBYxhXrjyRbeeIrEslUB6AXyRVW8KmU2FEJi58sC6//bwNOPFm+szN4UIRelmeJdFa2hcj8nNBs2K6y+UT9oR6winP4B4DUr6iFZUdHx0P8Q7vopIRUv+uOcXHA4uk+/iGKvOabusocNfSCosWbOWHH1T/FZH1BjJC7QO2TDUm7rJRWfjEuCKVcln4wBSKEe6mjhr2+COTpQ+DCtfpfE6ec6aO8ykNsQpOK1qLrh7m3A3T8lPPXIuI1toVIPQiYiJHQJixW+sUVbBY59i8CJawwcsrTuZFYQpz89QHhwXQbdOwuqoRRVxY56PXWf/o9IdS2q6xxCOh9o0rWakPFYcjw+RcYn46qPZ9EOfDJG1nJi4V23UHjrc4UP0dvPkljzAaB1VtGbUlHga1Vh7w7CXbcDf/tTMUKmbOQ3U7r+afvK1JKckC6STr51lsRbTndw4ukcs7qqsluvFaTY+FcLv7xJFiNkJxRFz8nnYeDNZ4Kqy7lQ1lSCupYJ69zgTNlVulviKYG9iowt/2bsLrI5ejvYyVjFmpjz+19Sx1/uL0zEJ621sfaDDK2zdOS0jK75UpU+QPdOwq9/BDz1aOE56ZCI2rVxCMkwG0nNKGibGGmWeOvpNk452/D0DxxJYOOTNm69kWN0qOCPV3r2Quw946LxB706FYPzRLOpB3iZgfNLES+VkdjdZyNtleoR6qspSsE1Z52DnYzD25/Hkp9cS1pyLD9xHX2CwNkXE+Yt1jynmsi38nt3Anf+AHj2scJ7IyglQu64C78ykFJPjOnKciL/TU03CMuPFzj/XxjaOmt3O6/4ZExqKBzgqUck/ut6BikL/siNrHwzdb/zAqRnL6iLusJgGIwGjKhWA51x2iLs7rOgSLm04pNxaTj5N+MDEDAHu+nQX37LDm97Lv/DR0u7wLkfBY5/G4e+3/W2Yrjr23DHyxn88iaOFzfkt7JQMZFbHXcf8xLcQSbrk5yfjBYcBvzTZwhz66tfrWoBbAt4/GHgJ18t2I0Kt7n7rI9h6Ni3VzVcqY050NcSNFp0VsRapdQOJ9SzbErv7LWMVKZUdZZPxhXAPN7koL0ZEyG06yUs+97lErJAvNa1HyS881wV3Kcut5yKFzJXQyklHvp1Gg+sMxAbzk/IOgk0O+7cTpUDxajOIAvocjrnAf9yDTB/savTrUtnyTjh/95p4Z47CprpJQ55Lfas/RASh7625mJxht4W02jVuftknLbJ2d1n8VS61JjGPhlXvOAHKxkbIwN02M9usELbX8h/qE483cJZFyk9cXH73YpXoMYNE2MSP/4KwzOPFfoxIbTZ7tyO41zFnsg/VlOY8O4LHZzy3umJqXJL3/6SxDc+DSRiedUw6gFv53n/hqHXra7xAgMaYz0tAaNVY+6H0UwrnXG/yvbhqylqvpAHKxkH+nbjtTd+khjl0f8ZJuGcSwgnv1uFlZt+t+KJO6d7ZxI/vtHE1ufzWysY0kFUVGfNoHTFMZ2hUIC5jjnAF35ACDRNX0wdG3j6z8DN1xU8n/GlR9PuNRez1PwlNT3HjLFtrabepfMSM4+XIY16uFMPeD4ZlwFapVUPRjLWMinq+t06p+t/78x/O1OqiXdfCJjueTkLIfCLX/7Suf7LX6Z0Oj1l7M9edZU895xzWDjsskpEkeT3ryE8/Wj+QDiKGtvsSrfReLsEjyPDlXNHbpWHimJ35bfTmLPQ9fgdu/fskaeeeqpj2fYU/f+Jb30rXXvttbRg/nz3TL96dgnc9rUMXtqUNz6Luh1v/+DlGFnxpupwLdKaMfS0ZW/GJbialylJIiWwxzdtKxO1CqtXQcbqu6Wqzd2o2BTmSD+O/PJHwdQLea4SbJI460LgHedUNb+JXT/22GPiiiuvlJs2bTLS6XTuYQMBGKaJ237yE3r76tXMMFz8kk8l0vjWVQY2P5dfNxwSDoKy8ttxTKlkqTkAACAASURBVFMWFPlvvG0dwI2/UAarrt6K33LiidbmzZvNeDyeE1dd1xEMBnHhBRfQ56++Gq782Clzt2ceI3z3cwXn0vPO86nvTWuYCNUuR0ItdcbxpMDeQd/OuEJ6La9ZZWQMes2ipjGNo7m80Q6s3TAyHu7DUdd/OL/op77HwXkfA7g7lvsPPPggnff+90shREmPZJxzfPITn0h/5sorA5FIxD3iuvEK4PkCsZmruR1LWIjrOpw8P9BmkHDdj1KY1VVVpL/JizarsxP5ftwm11XapnPPOUd+7rOfxeLFi6v/od32gsAPb3DQsyvvu4MMNMmtF32GjS1d5d46TpoYB7pbgkabXoObcdYdetCG5fhOH9VwXUltKyFjFc94yXxzOGDwWSUNkqdSI8iYOxZ1/X5dcs7vfpk7aL262J12HnDOJdVM7ZW2T/7tb/KCiy4SO3fuLPuae+e6dfIdp57KNbdSxe98OYVbrjfRsyv3j0I1ZKxUFBYPvpLpeTJ6oQjwnd+6gqnqRBmKrFi1ytq+vcxg+wAu/Y//oCsuv7z6G7JS//z1DxK3XFfwR3bLhz+P2BHHuTb3yR0ZnA1HDD2i1yDbx+Cok+wfdkxbUIlfTL41RcULXREZc9CCrkCiOcQjFQ8MoBFkrCfHaPm1F6WZY+fWWy45UuLcSwhLV5R0iy00/0QySXf87Gf0H5deWvEtbPuWLdTZ2enerer6fwO2/D232GqUJmEjKMv+4YBKlmHnEVP9wL3n4jTW/INrCvgHHnhAXHDRRVoymaxoC37lhhvwiY9/vPq3WeV2fst1Ks9eXjl2vO/fMXz022qWpimg8WTE0AKcFYkBUgFSvUN2cnBUmEL6ZFwBfOU1qYSMleFS1yxDdrToFZOMkrIhZJyIYcXnP5gfpNVnAuf/a3kg5qn9xF//itUnn1xVX5+76qr4ZZddFlGqC1fKLdcLPPUIh5OHOVXM49Y8uvRCAhQj4x8+5Ir4+ztZumwZ9u7dW3Gfl3z4w/JTV1yBuXPnVgds906B//mRwNN/zus4NLrsWOw562PIKPvqGpSgrg2GDS3KUULQ/jLHV953SlWhLPpKK/7NuDScctSqhIwZZ7KjWR+bM0tvqXhgRcYBTnqeyAgquPyLMUtKouoOyyQB9dgQVlx7UZ6bIQdOPovwgU9UfRNVn9GP/PnP8vQ1a6qWf2RwEK495m3fbOOmL+gY6Mk9x0rIWEAgofG8j3fKTPDm+6rGdP+ijcZi8nXHHst7enoq3n6mado3ff/77P3ve1+Jn995hlKqij8/QPjJ1wrZHIuXP3Y9jy8+0jUMJkoT0rXdIUObxQDXrVT8HHgVb7HyG1ZExgCFm7T44nlmVU/Es0xmBzWmDsOUTaoSkm6PO+mEI9x78CFCZMtGe+ktV+X+DG9plzjj/YRT3lO1iiIWi8nv33xz+trrrqtaflfJWG2Rqz8KqHCbuYoi4xZHJdkp/UfEYimkuAGRXcupZcXxGfz7l1xLFHf7T3+auuKKK4KxsQLxREo4Ct//3vdw0YUXllCzSJU/Pwj8uLCL9OaPfxnxw5ZXP1aOHppNfdjUuHrpLV+9VEQin4xrsmS5O62EjFVPpsGwbFF1KsBWkyGk5Xb8EgTqTjnOQNpxb4MJgXn/94541/+7M7eue9lKwvs/QVi0pHQiyrNW/f39+PwXvkC33nZb1behvu5u9djk3q4oRMYqVkVY2DCp9EDlST6GDAuC8qSLv/SrEkceUzWm+wG47otfxLe+/W1Uqi/e349rZPz4w4Rbv0aw0nnnWEsyrmXaJZ+M3Tt2RXtqJBlHdSYjOuO5nGclEcVsymyPW9Ux/gQEmGNjyQ8/l4hu2ZSb2d54isCHLpPg2RQ2VZWhoSG68Wtfc771ne9U3de2l1/G7NlVJeI+cC43XOpg8yYN+bwPA1IgXJoZXrbjBE/B4ipcZu6b8Y9+VxWWkxvfdvvt4lOf/rQWi8Wq6tc1Mt68ycG6mwW25net3/zxLyF+2Iqq5M3X2CfjymCt+pZU2bD5WzWSjIOc2e0BpkKh5cQlJSReHLVcmzKzLay85vw4z6Ry34zf/A7gQ5e5Mp5lWfK3d91lX/zhD1f9ee66muJ/fpTC/7srgHQq102OoJGNFqf0m3FcAwqlinOZjDdt2pQ+Y+3awODgYFXnyTUyHuiRuPsOpTvOq97a8uFrEFt2DOB+/Hf4ZFzZka1q81Q2ZOFWjSRjdSOeHeDQ8qDiNhlz28KqK9+bHxAXyVgN4oY1xYIFC+RzGzZw5UXmWnn0IcIvbmZI5LlZalm9cenD1ZmMlWDVWlPMmzuXvv61r7Ezzzyz9Hnmq2llHDx4p8Rvf5L3B2zHef+GkaNPhDSq/m2eIkWtyJgIckePxcaShYKNTBbHt6aoeENVTMY6w7JDglW7ts4Jzlwyfu655/CB88+nLVu2VPwj/LWvflV89CMf0VwzbVM75aWNGdx0rYnYcG65pgEZn7FmDT3y5z8zFe+jkvKhD32IPnX55Zg/f37Fa3PAuA/fDdzx7byi7D3tQjn45jXMCboddwSZ1qChG9x9G+OMJcWefpslSg6fqabvk3El+zHbplIyNnRGSxcG0hovkvW3iGSFyDgtiLbGLccSVLXeVYlR75vx6OgofvijH9HnPv/5ig78ggULxJOPP65Fo1UZrUxdge4dY7jxijBGBnM/OE0DMn7ooYfoH84/n1XyiLdgwQJ86frrcfZ73lPxuZnSsAgZ9510ttW3+lzdDilzYPcKZxhpNvWQwXnpaqUShx+OC9E3ZHPLLpLc9oD+fDIuEd6p1SolY11nckGnmY6GeFWmW4XI2JEke9NOpj8tXLGfrDcZK7S3bN2Kz3z2s7j7nnvKWiNN0+irN9wgLr74Yt10M2CQkmIGkLGaxmevvhrf/OY3s67RpRaF68X/+I90+WWX8fnz55farHi9ImTcu4+MHZfJOKCxwYhhhHkNYhnvHbTFcEwwKcux9ffJuPhmyVOjUjLmDNTeomfmzjKqsnaYHWAi3ycWARSzpdg2ZrmiMM2S8VXnSORzJHFZZ6wgV0Tx/PPP40s33IDf/La02AxNwSB98hOfwGX/+Z8sEqnK4zz3qr+00cJN16rsH9NWTaEmpqwplInbl2+4oaT9HwgEVJhNecXll2uvO+aYir5W8g5UTE3xzvPlwFvOZMJlNUVE1xJBQzNrYWO8s9fCaLxcNZBPxiVtxlyVKiVjxkDhoGYvnmdW9XnUanInpCFvcrmEI7E55o5FBXdsWn7NB2NaOpXbc7AGZLyfkDdv3oxbb79d3Lt+vdy6dWtOtYthGHThBRewo1etonPe+17W3FxVULz8e8LtB7yElkEm6/CR25rAZWuKiRNTaorbbr8dP/3pT+1nN+TO9aduwye84Q0499xz6YQTTsCK5ctdVRVACoHf/0biFzfnVafV6gGv2dQR0Nydzn58fTKumFYra1gpGavRgibH0oXVvQ6bnFFHIH8qDVfJWDh0+E2fGgzveLEjJ1o1IuP9Yw0ODsqnnn6aenp6cpKWbhj01je/mc2bNw+uPthNnuydP8jg93ebsNK5boflm7aleAJpZuZ1+qghGaupKY/kRx55RGzfsSMnroqMlx5+OF73utcx1yLgTcQ0HhO4/xcym2swT9lyyTWIvcZ90zafjCvjPdXK3U+jyuV4pWWjyVgBovTG+bKmqRgVuxI24k7pesF8sDApaP69Pxrr/NM9ua+crz/JyTp9qAjvM7kUc/owhUCk1GzAADJIIq0pd+jcZFRjMm74Uu3ZLvCbH0s8/WheMq6FBx4DizcHNNOsweOdZRP29FuIp8o9d76aouL9WA0ZBwJcLl0QUOG/qroezy1AxpKAEUtgZ6LKlEDql5CImp97fPSw277YmhOww48UOPejhMOPckVHXfGi1LphcXdoCyaVvqYSacQ1A04e86rP3WTjkKWuWMTUGpqK+n/2McId3yYM9dXVHdrgfDRiaMFaZIUeiQund9ySokwdiE/GFe0h1agaMlbmbQtmmyLSxKsirzlB7mgsjystgDFbYsuYO3pjY3jAWX79xbnlVQHQVe67tf9QMZ7ToqHbgYIAiTGNwc6TcumkdyVxwb9WZXXjaVz/8hDw4xsBmf+xqxY344ihiSY96zJVJmEWR7N7wKahmANJ5X7N+2RcHN08Ne7dEPsywC5jFSwo50y2RTVrXkd1FhUtBhMRPb/RetyW2Ba3SJS9MaZOWi8Uz1hxyep3AR/854rx9HzDlzYQfngDw2BfblErCaGpeioUzzgclfj2b1wnDM9gXSRqm2iKii2XfJ4nFi1zVU0ZNXUEa/R4t7vfwnCsXEuKrCb2yTUrI8d7Zm0KCOLqYrgx4Xs2jP4zZ9pVIJpTSX+RJk0unmdWddBU47lN+buwJFFPStBQxqlqHDW/fWScP5nqSWsJ5/8rgdUgiEAlALvd5rtXAxueAPIlY+WQaLXLx7nOweXdhqXi/mLDhAfWER78VV7MRo45ydlz+oWa1TbbtfPPABk1dRbQ8r22VDyjbEOfjKvDr6LWdz87eoLG+JcBvK2SDkJBjiXzS1cv5htjXlOeKPPqtRzjeuMd8er1xjyTwqI7vyvbnvlj7sOz6HAHZ3+IsOL4manjvP5fgS3P51/qJuGgqYIM0UktiQwLgHKYt6kvjo9+WuL1by+f5CvZlPVso37YfnQDEB/NO+q2Cz6N0eVvBLmVrQWAoXE7omtcr4EbdNqS6B6wK3i882/GVW29hx8mPTFr7HsM7KOVdBQMcHn4/IDFqvQAmt+kvo/z66dGLYFtLpCxyh/T1L0dR3wjT2oldWBUQtL3FsgeXQlQXmiz8QnCz77L0N+dWxp1b2u1K7P5cZBEQgtA5FE3tbQDX1/nBRTcleHJPwI3XbvvypC761okJA0bmhMa1xdXnQhhstQDow76hx04ouRcS9kuGMMgAV9YsyKaP0iHu+hX1ZtrnylVSTGp8b0bYx9ixD8D0OJy+1WPeHPaDWqNVqe8iuqMmo08D0AA0oLknqQtx+wKbm2TJmUO9+Go6wuQ7VtPs3Dex4DQ/2fvOuDkqqr3d+57M7s7s7Mlm14gCRBKGohKCVmCoJACQRBUFOEvikiRNKqBgIAKaYCC0gRERQFBJVQpyYamJJJGD6S3TbLZ3dndae/d8//dyW7YOjNvyu7M5D5/yE/3lnO+c98395177jnF+RXitvA64P3lKjC3azIuT+Hro94ArC6WeGER8Nt/SlAat4dOF2u629dUM579E1DVdUmpcK9+csN3Z1LD0PSWXCp2GSgy087DUYTUrlgRchLPR57dxaNPOomS6pzEfCl1yUoyVhotWlk/lwg/BchxSQlfkcDQgam7KgbF8BsrGfekyVVhNtTJgx66qc6zeW15l9Y843xgahpK8qS0XNLYeff2YPQK9LpPun6DPUlWhm4R029IRLrwtav/+5BRFq5ZkFLkTRoRSX2o1f8F7rw+5jibpl6Cmq9+HdKd+vvRMpGKLy52G2ahIVJKRdCV4Ft3RbDbMRnT+sljih1v5lI3QvIjZC0Zt6j03KqG2wGeyhwtu/MKSF4zZUzZHvX3BU+8VXTooaO3gdDmOnFxkcCwHCJjpUth9SYcPvfSri156jkSZ14AuAty38+pEumog7uV73Str1qZqeyK1cgRCqDRcEN28ensKwPu+DPDXZD170HcV7zRL/HK0zb+9ViXZwvKR7z++9egdvS4uMM5aVBoGrXFLkOlEEh74hLlL96+OwJ/U9vLHqzCFxlBBt6RjFtJcImA+Cax/b/JY0tzwi3RHuOcX4RPrKku9thFnxOhT4tyxUUGHzjABdH1reaE1lovN6Goq0zze10V9tamiEoelPLuqnDXVj504TQpwoGud4rKb6z8x7n+Zf3RezYe/53A5nVdrz8XN8FnpR4LXG9wl1Wi1e542KHg6+9GikslofWUsUYsgQ/+Byy4NuYU9Ud8lbdMvICC/Q9MqyiZdFHsqrVQvScCu93FOwKWsGVdMPlL5RvSqkwPDpbzZAwwLVpVN4xgfNaCo9sk7tvLxeUp+o3jhbip+XaH7Oj16FQfsiJ2r/eWNBzwxF2dJw1SE3zlRIkzLwT6D87d3XGjf2/l4hVvx4CMGb26cvY6RLpJBBESbnAXFxHKKhgz51oYeEDuRqvU7ASeup/xn9e7fJ/ZMLHx3CtR86WTHAIYu7kKaSveG1+ckTWpdsU7azu4fDcbgqacNqp4ZVqV6eHB8oCMgef/5+/DJn8M0D6fa4nXwIH9UzvvUuCoeONYICm/8ebGCBwe9HZq9qLtG/ig+2+ULn9N17vj078PfONbgMexK72Hl5pyG4SBpx5UB0xAONS1PC4ZgC89OaOjk9SZEnaMW2H9hwBXz2eU9sq99yESAd57k3HfrTFlbxh6BLZO+SEaDzwsreug0DSCKorCoNRSEHQmlFTx/DWW8he30Y2lPG3y2JKXichZeEVaNU//YLm3+DrB4NllWz1keq8lIW5o+bPPI3jogAL1cZPSEW+5i+DpMqEmYDF4e8DCrmDqOzmyLbt81ZvBAx+fX9RljmPTBZzzY8b4iYSCjJyXpH+VqRFVxMSH70n8/SFg/Sdd76LS4Stur0FjdHesTqw6X+8uN+PoShs/mGagoDB33glV4umjFRILrom5K5UFRdh05k9Q8+VT0m1b9roMNIe0pXts+Bttua3GQigsW+tXbxjmlNNGFi1N+4Q9PGDuLLw4QD23on4EBH3c0qzILSKD+rpDRQWU0qGCuk+kEgfFenaHbN7SpO7NOykH0/mIRds3yAP/utAu2vJZ15/NQw+xcfaPgcPGCIgYTu0eXlxtpt+xmfHE/RTbPQGgyGYUyfSvy3pTwoqxOy7vw/jWjyWOmSBAmblFllZzqB+3bRsl/jDPwroPY34C1h1xDLad9n0EBqQ3uEAICnlNQ7ko0hea0Qqk6j0WdtS0cwESPyYs+8aJR5WvTyueWTBY+hd9Dyn1woeBoXbY+oAI0ZJIgsjuVWrYAypcKfkqFED9CglG1yHHaLRYbgtE0BBp8wueNBLF697noX+ay676LmrCqZGP/ZoF5bLoN9jI+tOnHVsYT/8BWFYVe72ZDPis5C55xEM7RBaaDDN6fbKrZ+BQxvlXMg4ZqQg53og9+/fGehtP/4GxeFHMw+NQRX9snXQhaseckHZ5iwwj4HEZKt1sWsqQtRbQlgxFxuoAr/UjJZ81ZazvH/nmolA65g0Zv7TS39ciegTgiS3GKys2eEhft9IyaT1VR69JXBrjAoiab0fAwrZAemLLXQ11sm/VP+y+i582wDEIfsJkC6eeS+jd38jaCIvtm4B/PAq8uyQ2GRAzSixKzakUh28aBRCKQ7IHHAx89zJFyJS1hNxYL7HkORt/fyjmoaNd4MH2k8/FzvFTwcq9lcaHCOrGHXtMI70DN8vob7KxY3cEgXCrX09CvSA6d+Ko4pfSqErWDJU0SWWNBs2CPLFmjdsrD5gI0L7Cbt5CwxrYx5SF7tQq1SpHgEo4H+upDdu8rclCSKbuqlDzeLZ+Lgc++yD71q6O7fOunGSjchJhyHCBNL9wKdlYfUZv3YDojbB4RKzSfRRJiULbSP5nMwFp1XutEgjFc+8PHQGc/SOJEaMB05VdW+QdW2y8/TLj2T/HDaesH/ElbJ34AwQGH5wAOM6auASFit2mNCm1auxdzap2xNt2t3VRMPCUzTx76tiSfe5IZ1Jnd+u8IWMF80sf+EdZFlS4S/QFEgS7T5nL7tvLTMlVoTyIZa7YMceSIdXOeGcw9UxuLUvGu+FjDHz+YRR//n7sVTTqKxJHjwOOOVlkxaFesImjyX+WPEdYnsA5i1syvHYK3y8OXrIwMRoN7jLUrWWoIQdLnDxVYuTRAr36ZgchL6uSWL7Uxn9fj7sbDQwYim2nno+6kcc4ACexpgTiQlOg2JWZ8wqVg0Llomh/BdoG/9/y3cv/dPNJJ6XnEzQxdbutVV6R8XMfBA7kiPUnIuxzkJX7DDm4r1vtiVKKqlBJOfvEufymYo5VZEVElQNJx6O+3Neusgc89wg8W9bGlr+4ROLEyQKnfbtnw952bVeha4z3lwHrP42/vlTAS5GdRPbqFAAOkEQgSiSx5SurkBj5ZaByosBBI6OZZ3rkkTbj9X8RXnhCYs/OuD8Mgf5Dowd2dSOPzYi4hhBhrylkQYauPysXxfbdFgfDbQ5ya5j5/6aMLflXRpTKgkF7aHVlRvPX13FhU0PjOWD+Y8sMRQXCGtjHZXsKUjvxVbvjCreQbtH1ibwKc9vcGKbasNM6XV3jQVbYLlvzTmjAK38zCnZsjH9qffKZQN9BwClnxsw6l3YLhEOMj1cy3nlN4D+vA+pWWLzHLQGPBKIJ8rr5aRKMYIJRE4eNZRx/qtolE8oq4pJhWjVRu+HNnxNefooQCsYdOthnMLad+n3Ujk3/gV3L5AUqXabLkIIo/nqMK3HHBjX1Nm/ZGW7LTUR/JFi/mDS6bN/lriSGzuoueUXGCunnVjYdw2S/1VIphAiyd5mpMrmltDNWY3sMkuXu2MfsKsxNHeaF0+Q7VvOKQFOkbM1bwf6Ln3YXVG+K/wJ4fcC4U4FhI2x89SRFHpmzs4p13fyZjaUvCXz2AWPj2sTIShFxkQSMHiDillcyIAD1TyJPr77Kh0w4eryNw48SKPIm2DGRwTtps/Z9Cx8sN/DOa8DOrQSVzyPOE+o9EFtP/T7qRh8PdeMuE48gyCLTkB4zMxOEIyx37Ilwrd9u874SxE8mjvY8SETxgciE4t0wZuZe0m4QvrMpnnlvz1CXYS4g4Jstfy/zGfaA3m42Rdd17RIRV939UPkqXDE2VBHJvLnJQl3YTiu2ipDL33870nfx0+7CHRsTe9P6DZY4/EiB0gpg0rcZpit9Mtk2Y+kLEhs+NbBji8THKxMnJ+WaKOxhIlYGV78DQQeErPoMPNDGgYcIDB4ucewphNJykTb3hcL0P68S1n0MbFprY/1agUgoIZtFQ9gmXoi6UcdmjIiV+m5DSJ/LYEFdlyVL5F3qqk19o82bd0bYtlsVHiV8KllOO31M6fOpjJ3tfRMydLYr0Vq+J9awu8iq+6YQxl9b/n+XSbJfuYnyEjNxwuhEaQVWkQGUx6nqtCtk29UBi8LSaSXb2EiLUJPt+/wDq/+/Hzc9m2Kknmw/jCpsOvore8l40DDgxMmAyufr9FGuiOVv2PhguQm1I/50tURNfB9mq2kYBZKiO+KecE10pm+UkAkccBjI4SuTGH4YwVNMOOAgC8d93YCvlBx/hKgr4ip7nfKxKzfE5x8Byu+eiJunWZ9wr37YdNal8B88NqNELIhkkSkytiuWEry73uLtu9uW2WLm+cKm2yd9ybfT6ZLNpfZ5R8YK/BdW1R/HoKcYGNhijL7lLu7XK7qhTElntbcsT2B3rJIH1UfSf5OMpC2LtnxGg/75ABVv+MjZWlMHUCVlwIEjVMjWF3179wNGjImgd/8mCMOKxjYrkl3/sRfbN5lQ+Q/Uo+rUbd0gsXNbMj9qNvYe1hnprx3sDIYOrRUhh4gREBKcxI6vpFzigIMI7uar1Arnin6Mg47wo/8QCZdJiFgSDbVFWPuhG5vWin1uB1XBeftmoHprzGrOXWkYKe/LG749jfwHjUkRhPjd3UKwzx3dFSdj/7gTNAZsbNkZ4VCkTXgos8SVU470/SbuADneICViylbdF62qLRdkXMqMW1tk9BaKcP8KFzyFqcUcK8A8BqHMHRu6mqCF7UFb+Y4zAlPR1nUY8szvpHfDR4RUr2GrXXJphYS7wAJF88QSwkFCo99EU8MXxJGsJi62UGAzTDYRO+9SsjOk3k+ZyYJE2FDEnDrZKEx9ZWF4vBwNw5CSYVsm6msFGuuVzVKSWeUmbhw60to68Qdm49DDUxorkc6G2hW7DLvIEHHD6hIZr30bhYZyUWzc3u7gDnjZtuXsM44qfTeZcXOpT16SMTPTC6v9Uxn0TIsxSJDs38tE79LUXBVqvL27Y8GuGMRiM2N9QwT+SObOGwqrN3Pvt59v6LXsNY8RbEz5gDIDC1dCxRAX2XtjULonkjg1NdRPUUhQwgd7qc2WVG91OLf+u7MQGDCUQ30Hd8s77DIEl0SvPmcmvk8lkd+yM4KmYIck8reIouLbJh1CMdL8JQVj1nXqFkP2hNaLVvsPJ+ZfATS1ZX51kNe/l0t9NaZEXInujgO2tDY2RIyAnZ5beZ3haDTW2wW1O8WwR38J957qbLEnw2wVtpatu+GuFmZ0l0xqhwyEU98kp3P92+4i/vSy2ynYd0jarzh3JacQZHkNESw0jZSSbsXCoSEgsX5bqP0Hgyoacf2k0b6/pRPDbB0rW17etONz3zJ2DSloOp9ZPtQyuCFI+Y2pojSxYIRYQrlENF8FF8SIO1bn9Wp3rCIrUvsojQcPw11TjQMfn1/r3fBRKaXqtog3Xay/G5JRLNUlre69yJGKzF31VZu0CEkEDcTMh5yJuTsZ87MLb0Co3xCoELbufExBXOY2mTLkK46oRFu7rUhdg9U2bJNxl8conn3SKGroTn17aq68JWMF6PMr/V9j8O9ANKIF4D5lrmCfclMYAildkVbjKd+xOsyL9Sh3xVp/BAErc+6KlvnNJr88/PcXCTPgB+rNekioDPQpfQUktDCVn9klQ/DIomi8WHZtJhNSoctG6le0xZ+sKmLZafAnO5KIoz9ujUNG+D/7/q+LbXdRt76zQpBd6nY1mQSfI7EdNFauiXVbQyzVWUXLQxQm5lsnjfHd4mConG7arYbtbqRef53Nxl4NFxPhnpa5hSAeWGFSeUnqu2N1obbYpOg/sZ76iORNjRFK2zXpGJONvvNcmIF6RSBf3MBjstAgqmGJfmkkZxum9MNnlzWLo16lvF5P+9JvquxvGXVfMEMl+/RIOA0KngAAIABJREFUEb0UQ0DtiGNqN0z9eak04/z6p/clY5cQ4bKCaG6XjNjWspl31Fh2Tb3V5oVk8KNhbrr6rLH9q9OrUvaOlhGAs0nd51Y3nA/m+1UB5ha5BlS4w73LDLV/S5mRvQZQ6qK4KYU/rQ9zo5X+ULf2WO8j4/Z/UOTcnixt+BE0qhGhMrD6B3a0W4tPhaJx0gwV4C9kNQplEdxckvek62QBN4gIwkJ9faT2PaDcOiqFSvQyTEcB9ow8uW7j5Gkl0kjjxZ04eqoc3uWFrsywcPPcgZDE2s2dnc3Rgsljimc6MUWut817Ml62jF07XI3TQHxHa2OpPMdlvvR8waudsSLkeM+HdSGE0lEsL5GdcTxh9N8zg4D6OQsYTYigubI1qfiMlo8H9XOo/iPhYokCNqES6ifw7DjmW9h24gXgzKQP7iABAVxkiiavy8xYsUVbgrftDtt76u32u+LnDcaMiXmaKrMrc8dnkAQWSrY3eW6F/ycQtFCtry92x65wRampfvxTZmR1Ia/EJBTEySjYZDF/5g9RJvm4y51xthtJyxcTge3HfhvbK7/fbWSsDrt7FSSww0jBbsGQxKftd8UMFXv0uyljfFekMHROdt0vyPiZ9/aUuYQxm4jafPYc2N/NJeoULg0oqN1xiXJXxFkG6/xhVjfzEtsPOV9TmoydY5YLPTZ94zLefdQk4qhHJLMPAbJXkVvVREniznxisqld8ZbqcKSu0W53kM5v2cwzzxhb+k5iI+VPq3jckTeaLlrp/ykRfgmg5cAJ/Xq5Ar1LTZdIMYGQAkkB6XMRfHEO81Tbj+vCHLAz4z/WZJw3S7aNIp9/57a6+qFHlXA3FEt1G6Ku1G2WZhLJQEjy2s0dkiCFQHho8mjfZZmcO1vH3m/IWO2OTRK3CiHaGFrtjn0eIy33igqNve6KWFnd1EJgILKqJujKxO5Yk3G2vmqpybX2e3PrGoaMKlHBvqmNFLu3IcjuVZB6utlYs0gGf7YlFAmGZJtdMTP/l5mvOP3I0v9mUsdsHTujhs02pRetqr+YQDcBGNAiW7nPjPSvcBlmmtLXKHeF2h3HS1v+uT8s69NUTbo1zpqMs23VpUee9y95uDFSPsCzN9AtM48qMlpR6Fbb1Ywd2inJ/U02r9/WNgcFMwIEPDp5rO+nmdEu+0fNmGGzUXVVCaTR3zCXALU73qf7Af3csqRYneWlvtDVoMp37DVj+4/V7nhlTTDtSVdG/fb7cPl3ZSP8WqYUEFj9s8dhectTGCF+10JDNPjcZsauPEe/Chn2++sCRoc8SYwVwhAXTxzlzfuEQF1ZYr8iYwXCc6vrzgfTHIAOagHFWygiQ/q5DZeZnttVqlSeImR3nO3xipr4ZXTiv0JtWxz6h8vhqf4suur1kz8IZJqM3SoRkNvMrA8EwJ56O7R5Z7jNtWcG+wF6aMoY3/T8sZhzTfY7Mo4S8qr6+QCp3fG+RTGgt4t7+QwS8fwLCWKsLoP4XAKxot1W7Qki3Rk2R/zpqrBn8xo3aTJO0FK50SyTZGwIipS5TZfIMBUHQ5I/7Xhopw5R3gtL66xvHlW+PjeskRkp90sy/tequokGi1+CcGQLrGodHjS4wCpyR2OH0oJLy1Xprgj5g9pQ2vMdH/jc/Ppeq1/1gTMTrZGZZahHjYdAxsiYEClxmVZzpee0rPuudNmwLSTrm2Sbm4pE2C0lL5gytkRFOu3XT0bBz2ZkF63y30jgKwHq1SJnRYmpEtCrULe04KIG8UQP9ICoR7rVo5wIa/aEoBIJpfMZ9Or99X3f/Ycm43SCmgVjZYqMi0wj5HUZKuFFWtZ8V1DtqVe17Tokjlfnkf9tFN7Kc0dROAtg7lERMmqAHtUszuRPL/cf7nbhPgLGt246pK87XFos3OmMIPIYiIa7eQyKMDgcsOFRiSI+9weVazetNhhQ9Viw39t/LSRVzkc/eYNAJsi40BDw7k0Yn1GcLJvtTzYGDbt94kLCLrb5milHlvwhowLkyOCZtUKWg7Bopf87IL6NQMNbRC1wi/DBgwpEOi6CtFa/eZesEreFg5I9ioSbLJsbI+mtIt33nacwcMnD0GSc5YvPoXjpJmO3ISLFKqIznbuOLnTaujti19RZbSIoGFDb5Kcmj/F9zyEUedt8vybj15nNptUNjwI4u/VhXnmJaQ/q44qTaSL1NSGZsScYUXWA02aHihUvYshLvwVJK3UB9QhZg0A6yVhd7Ch2GdIthErQk7a11xlYe/y23LorLGTHdN47GfbEKWPKlmcNyD0sSEYN0cO6JTS9qiQtQaoaSJuqjoP7uoPlPmNf2s2EBkuiUdCW7A+rGj/peXwbVwWG//X6IqEqOesnbxBIFxkTIewxDVFkGmqzkbZ11xnQtkTk860hIxhqe2gHUICZZ04Z6/td3hgoDYpk1BhpkK9bhli0ov6HJOg2AP1bJnSZZB16QAGRyuWbwUcd3wUtGw2R9Ph4PTs/rxvx8JUlZEe0bTNot+4eOh1kTEQqLaaq8GxkqrBoa1yUe6K23ha2/KIGJFG07MEHZQ3FXzn+eAp0N47ZPJ9+YVV5pnd2l7DH/SyAca0rYZR4BB84oCDjGKWTkF0NNXUj771Ak3E2v3VJyJYOMvaYhiJjyvSBnVJvZ60V/cfumC/WEpJPmnhkyRtJwJDXXTJONLmC3nPv7TkShvkvAENay9yrxLAH9XFndHes5ttLyBINkdTcC2RboTELzioQ1n4fKZQrSy8hOVMl4yJTwKMSsGQ4ckIpE4qwtXlH2GgKdRbrLi6ZPMZ7X0JK72eNNBm3MvhzK/1ng/AAgH1JAAyD5NB+7oinSLStXJuBhZImQuaxc8+grCLjllvm6qhSP0khkAoZFxoGvC7RLUSs9hVbdkZ4j98S7UPombHZheLDTh1LjUmBkOedNBm3MnA0kVBD4z9I8iloVQGkqFDIgwdF3RUZxysdLouxc89AVpHxMVOAEV+xsPRJwvo1Gf/KSOmdJWLwFz7OlMZKU2fLW4YPf3QfLI/zFMOFhpDNscSp1ehLUJdtuyKo8VvoJHoChoFRp430vZ/gUPtds4yTS64h+tyahv6w+SMQ9q18BZK3SGDYwIxvjqNwpUrIWUfGJ51n8ynngwINAs/eA6xcokqsZdfS8JRIPvZ0C2X93PT0gqySLeLrzR/98F6yPCWO5CowRdhjGDAFtaum4WiYhBvXNdqR7bsjRjgSLWTb5iFLTpp4VMmL6hAx4QH3s4aajDsx+Esr/X1tos0M3pfiUhC4xGvYQ/q5U64oncgaS4WQs42MeeQ44NQfAv2GAsFG0LsvhLD0SRN1u7Jjl9x3CPNPFtoo8BhYv4boL7cCTfWJmKlb2jQOPMz/2bdvLbYLixN+X12CwsVu0zaJVHhmwv2SVUiFsW3ZGRZ1DXYHmxLoZTSFzpl0bEX2gJqsohnsl3EjZVD2jA793MqGK0F8Z+tJXCZx/94uu8xrdAshq7kDSYS9ZRsZo/fgIE++GDhi3N64bRUDbUdAD88GPl+RUTvGHFzlhBo+hvmCWwnu5pDyj/8LeuxmIJL+9KbJKlp7eGX9honTfLLAk9D7agqyvaYhXYJc3XDBLvoxp9wTu+usDtteBiRgHjJlTOE6QO+KY62BhIyb7CLK5X7MTC+sbtjA7aIrigqFPXxgQVhQ5oo1tsetybLR6CAOOevIWL2tp/0IOOm7bVVTJzzP3xfGO4tcFFaFHrrxcReBb3w6BNNVgNYRBh+8BXr0hm4UJP5UtUecWL9h4pU+6Y5PxoqIi12m7eom14SSftvuCHbVdh4FJMGHnz6m5KP4WuoW3fsC5Bje9y1j12B3g/q0anMTr7hIYOjAAnXK0234BfbmsVCe1rhz5gwZt1oPtPAixs4tasccV7/klxEBpgs4ZnIDn3F5x4oW6sfhgzeZ/jgngzI4l776y2di24QLIV2xL4SaQkR8phE2Dcpo2aTWGtT4bWtHTYQsi9u7JySYvk8e79OTDqGQc633vx5ZteiyEf5/L6spDbtdm1Tx59by+TwGDujnhuiWM+q9MytCbrIkZJzT/uwk44uAk86LbeKdm/z04FXFaGoA0rlTVqF1hV6gpBfzz35PMLs4z9q5WdKz91j4+L/dcuCV6HrfeuIF2PnVsyDNrg+QXYK4xGVKITJ7Y7S1zMEQ8/bdYfIHOoYsSuZFbFiXnTGq18ZE9dzf22kyjrMCnmA2Clc3fUOw/Du1c02Ueg0M6uuCkabqIIksRuVDDlgyZh7kbCRjnHy+zV/7HsF0xf35ok+XN+KpeV6WFlP9nuQjL1SEhKtAUMUA5u/dSCiOU0Nu7XugB2YlYoZubbPl5J/InV+aLLiLHxG3EChxm228LZkW0JZsV++xeFet1dn5yTaGfbpOAuTMCpqME8Dr+U+5RDb655JBPwJjH5moCyHlPoP7lbtUys1uwzJsSw6o42tbdnoiko1kzIcfyzj1ImDA8MRwUi6DhpomPHRtEdkWwQoz6nZR9PCvq0e5IBThqsM4YTB//YImHHZsIcxESs8z4+N3mf5wXdwfiwSWTFqbfP6tOfX1B33Vx6JtIkH1K+UyBErdZmKYpkkqWzJ27tl73bnDw9jMwvj2lNGet9I03X4zTLcaMZdR/cfq3UNcXPAMwEe31sPtIrt3mSnLiw1TdMdd0+bJVYWQpoiNkC07ROxmIxmj14AwT7mUMPL4ZCpiM3ZtkXj+PoP8NQzZSQ5oYTDK+4JP+BbhgCOcL7VIyMKyF4P0j7szWh3ZuWDA2vNur2s4YLSP6QunmCodWmAaYY8putWloohYHdZV7+lIxMzYYoAumDi2+NVk9Nzf+2gydrACnn2v7hAhxN9AOKp1t0K3sPqWm7LEK1QoUbdhqjaPjZYdzfrWOpI+K8kYwPqxp6PolPPQp08fdCNMiVnYCtv83qth8dS8osQ6dF+rDy+6tynYd1gRQGQQSZVyrcRldjuEioh311nYUdPp10k1mH++G02P/2Bsf33dOYnl0W3EkYRsWdnl+TX+I1jyHwFqs0P2FgqrX4VLegqisZ3diqtKv6l2yCpZvXqylYxnL6uGdewZ+MH55/PwYcOooKB7bjTGW0iBQAArV62Sxucr6asr/tattosnm/r7Bz99BOHy/raLyFC74UKje3fDSgZFxKqO3faaSMfC44R6MP1eSnH36Ud6tiSik27TEYGsW3jZbiQVf7zo/cBXSNr3EzC2tbw+j2H1qzBlkTtaQaFbfY/qYE/VdFKkPPrOc2EGsu+y08w3NuLeVTtw2qmnyjk33sCjR40SQnTj6Wcni6uxsRF//svjvPCuO+3hdq35/BmHZt0S/PSyRyF7DQx5TKESbHe7fJLBtX5Lbq+xyLY7XHWOgPlfIHHz5DHFq7tduDyasPstmwfgPfz6usI+vXtPEsDtzDi4tUolHhHpV+FGoZsyXtKmPZTMHHVbHPDIdHg2ZV8+lhYyVnJfeMEF1qwZ0zF06DCjO33trTFTRPzAgw/x9bNnk0Hg0w4st56adHAyPu2Mrurt0/8Mq3xARufoanBmcH2TbW/fFUHY4jaRE9HbdcxvCqIbJo3xLekRAfNoUk3GSRrzlQ+5IhDyXyAETWufA7ms2JB9y00UuKO7vm7HuPT537Lvnae7fd54ULYmY9X2gh/8wLr0p5fQ4YcdJkyzeyMCampq7Af/8Adx082/iOJU6jbkxaP6Rn5x7ODs8J20ArOnyDga0BKQcvvuiAyGZfsQNmbmd0nK2ZOPKvt3PNvrv8dHIOte2PgiZ0+LZ1c0DSJhXUGgnwAoay1ZTxJy0YqXUfH0r7MHqGZJfrVsKy98bzv8rSpiTz39dHvKlMn8zTPPNDye+Nd906HUsuXL5RNPPiV/e889+whmWEkB333igXzKkNJudS/F14fD26f/xWWVD+jWd3UvEdusoiaagh2SxKuLoMvB9g2Tx5a+GF8H3SIRBLrVwIkIlGtt/rmy/lCTcA1A3wbgaU/IfcpNq7CbfchG3Q4MmN8uD0QWALt0i9/++dub6N3qxjaEN2jQIOtbZ59lXHfNNVRS4ixNpFO1fnPPPXjxxZfk64sXt5HhqD4efv6MQ7mswMwqMraLK7ZU//R3/Wxf725LTqWIuL7JtnbVWkYnRKw+9hQRz9ZE7HT1xW6vyTgNeC76wD8KEfycCGe2z2NR4jEi6lCvwCXcRN3nshh849fSoFl6h2gI23z5kg3426e7O113P77oIgwaNAhXXzVLhYWkdW3W1dVFfvPbe1yKjP1+fwfFvtqvGEvOblMgPL3KJzlaYGTlpj1TZ/WXhcXd5suubbDtnXss7sQ1AWasIMjrNBEnadAY3dK64NMvXu6M+NyqhtEAzwZwRieJhVTYm13k7j5CzkYyVtacVrXBevD9ncLmjgnI1d+LvV6c993vwuPx4Bc338Sp+JKllPzW22+HX3jhRfe2HTvsZ555xgyFOuasUfXhzjm4F+772rCsW3B13/jJpoZjz+zPZkG3kPHOWkvW1FvoLEE8gFUgmjV5dLH2EWdgpWgyTiOoi1b6RxFwMwhTALS5GeUpFFafMtP2eQ13d2R7y1YyXrylXl731iZasbMp5tpzu904+6xvwjBM9K6okDOmTwv07t07ZjYyZpavvPoqv/zyv0VdfT0pMv74k0/s1atXG+FwuMv5hpUU4PHTDsbY3m28TGlcGckPtfPC+RtDw44cAKKMk7FKhbmn3mJbdvpV8gExrpg01vda8tronrEQ0GSc5vURJWTCrQBNBLgNIRe4ye7lM8O9y8yMV1/IVjIO24wLX/kMz3y2J2HkPR4PH3/csZGSkpKYV3+lZF67dq36h4KhUMJre2RFEZZ9e1TC8nRnwx2XPRiI9Bue8fWyuTqMugYbsrOiSMyf2jb9+Iwv6fC1TNo+4QWbSSHybexFq/2Hk8QcEE5vf6jnMsgq9hoY3MeV0QOZbCVjZetn19Vas9/eJD6pDfb4YVlpgcE3fGWQddmYfhnfeSazzndc9hAi/TLrPlFEXNtgK39w+4dBtJYteeGUo0p04p9kDOigjyZjB2A5abpoVe1wIuMqML7TPuxN1dMrKhQ0PIMFTvvd+2O4tn/mRORua9sUkfzdl9bi5Y11Pb7+DvC58Z9zR8psi6JoMUaGydjeXB0RtQ1WxyvODJsE/itZXDFljHd5ty2O/XiiHn8Z8hn7Fz9oHGDZ9uVg+gkBFe119RYKDB+UmTsGvZ76Zdiz6pVuzejlxJZr64K48N+fY3l1z+WUKXEbeOBrw+0zhpdlR2HUTgDMFBkHwxzeURMx/U226GRHbEnmx+HiW04/ovRTJ3bVbZNHQJNx8tgl1HPRKi4nNE4k8FwGBrbv5CkUOGhQgUqDlVa3RfFbT3HZi/dmtX1/tWwrfrtqB2qCMXIUJ4Ryco0Ge13h978/xuXuzuoADkXNBBlX11p2rd+icJhFJy5iBuFSC/TM1NHFOxyKq5ungEBWv6wp6JVVXVUui74VfQ4B+AUAg9oLV1gg5KA+roinQKRtm1y49l30/uM1WYVDe2H8YRun/etj/K8Hdsdel8Dq80bzAK8KbsneJ91kvHVnBHv8VucHdQAiiIzpW16+9vghFMheVPJTsqxeiPkE+Zw5c8TIU2eUeYuFqpTbp71uqmpIqdeIDOrjSgshi9rq0MAF30nLWJm0Q13YxoS/f4iP9nTfu68yhrz3ndEYUR67wGcm9U507HSRsS05sm2X8g/bRiduiag4xMaQiWOKthB1WkAmUZF1uyQR0GScJHDJdnt9HRc2+v07CdRpRYlij8CwAWngUCkx+KZTkhWzW/uptJ9HPr4G6+u7p4jwL44ZFJh19MCiXFj86SDj3fW2Xb0nWsG58+gVohDJ0MGTxlZs7lbD68naIJAL6zEvTbZolX+5AI5SGVfaK+gtEvbQAQURQUh+68aMwXNOzinshj6yAjuaIhmVWWVmu6vywKwMY+tM8VTJeEdNpNMSSc1zsWQ84TLkpaeNKq3JKPB68LgIaDKOC1HmGix6r24yGfQ3gDrcLDMEWRVlptW3zCxMKp94DpKxQnrYIyuwPQOErK48X3v0gOCMowYUmj2bz97Jgtq2/WePVFi9D3AUFRMtxxWUVnVNhBuDsqsfngCDzvDu9i4+6STqmRNUJ0jsB201GfewkV9cU9fLtsXHIPTqrDpIuc9A/woXDIPY0TXqHCXjFkJuiNjcEOmQujEpa1UUmlAVPEZVeJA7PBxV1REZKxJW5ZHUTbqtu7r4wmBYINQL8JSJY0reTgpQ3SkjCGgyzgiszgZ9bk1Df5L8HDMOAKF3+94FLhHpXWag1Gu4jLbV2rueKIfJWCn16IfVwV8u2164uSGkPqWTWqf9PS4Uu4T9rymHimGlBUmN4cySaW+dMBmrq+ANAcnbayw7FO5iN0zYBdB/BHD9xNHFq9IurR4wJQRycYGmpHC2do4e7NU2nE4GVFb44Z3JWVFm2r18BrlMEnFDY3OcjJX+9WGbz3ruk+CuoFW0pSEiGyJ23OvT6nbj4GI3fG6D7jlxKFRqzKTcPNmxUOKSsdoNh8JSNgY5tHVXuKvK1iqceCsRZhaNKv77SaTdEtlh3rZSaDLOMqs8v6LxKBb8EMCDOwuBU8SiSjqVFpvSraq1d5UjOQ/IuMU0NUFL3vG/baG3tzVEySZoS97VFLEDtpQeU4jyQtPwmHs/GbwuEb7hq4OM4/oXZ+2tOgdLrksyjpJwRHIozLRxRzjWkDtBtJ5Y/nLSmJJ/OJhbN+1mBDQZdzPgiUy3120hf8CgCwF0mvG80C1U9jfDWyjI7Yru/draMo/IuD1mO5oi9isb6xq3NoWDB/gKC47pV1w8VN1tzr+nUzIORdgKhaW5ZVfYtizE0nsjge4JMj9y1lhfdf7Bk18aaTLOYns+u7LhZIP4OoBGMHhIZ6KWeY1wSbFhFhQIu9DVqiJ1HpNxFpss3aK1IWPLYjsQksbuervJ32R3mXyZgGrJeJ+IH5s8puThdAulx8sMApqMM4Nr2kZ9eqW/r1vg7GjRU8YogDvdCRV7jKYyrygSBlGJ14BKw5VrccZpAy1/BoqScVPZEARD0tUYkOFddVasG0Eq5eVGMH4fDAcePfvLfbblDxT5r4km4xyx8fOrGicy5FQAlV25LpQqKnRrQG8XCIzR807NEe20mJ0hEPJU7Fh33vxetYX9w7UNtodjR5XsAOgFEvTWpFHeBzSiuYeAJuMcs9miVf5zBGgyg9X1OnXI1+mjdsan/VFVf9JPriKwdux5jeuOOLPIcntjRZGEAV7FLP7cZHjvPXcUxTzNy1Us9ge5NRnnoJX3XhShs4jodAZOBFDaXg1Nxjlo2HYivz1pPmr7HNalIgTUMWEh2/KdKUeWvpT7Gu/fGmgyzmH7q3p7EDgJkr9HREe1LoKqyTiHDdssepdkrG7RAbeRwO5Jo32/yX1NtQYKAU3GebAOFq3xnyQkRjLoAjAfBYKhyTi3DRvyVISWnXKzq758WBsXBQMPEGNN48fF95x7Ltm5raWWvjUCmozzaD0sWuE/iUxxEKScQsxTtc84d40b9PaNLDv5RtNfPqz5HeVlAD1ihyPPnvHlXhtzVzMteVcIaDLOw7Wh3BcmW0d947Gpf8xD9fYLlaRw4Z2Jd6Cu9wgLkFcz07Kmj31v6d1w/ppfk3Ge2pbnQHBDpf6MzWH7rjnucn/1AeOuDQwe+MjpA6kph1XRoieAgCbjBEDKxSaajHPRam1lbvL1j4RR8KVeNz22Jve10RrEQ0CTcTyEcvTvmoxz1HDtxCaJMbSwanV+aKO1iIWAJuM8XR/8k1PHcnFgRZ6qt9+oxeCfCV/TQ3TTcu2myHOrazLOUwPLSyZthLeh0+RCeapyfqrF2EaWfSzd/aaOoMhPC+/TSpNxnhpYXjKZURCIwLRypvhmnpoiNbUa3UwhPpgefvXz1AbSvbMdAU3G2W6hJOTjSyavY2AoDAsoDCQxgu6SFQg0mQ2ImCqh/hKywmfTI4trs0IuLURGENBknBFYe27QyI8nH28YeA1AAYgBT0PPCaNnTh4BVSip0Q3srTTFBHsAPfjqjuQH1D2zHQFNxtluIQfy8ZwJJnZ4tzGai5pqMnaAXpY1DbjqEREecLRggHosssJ99O44y+yURnE0GacRzJ4cin94ho/dtgqBOnCfHJqMe9Ikqc2tdsVWh8yZz5IVPpceWRxMbXDdOxsR0GScjVZxKBNfMbEPR2gpQIe27cpAUSNDsLazQ0x7vHnnZKyKBvwcgu+h+1+p63EZtQBpRUC/pGmFs3sH4wsnFMLr6ccWngXR6I6zM1AQDMO03N0rmZ4tZQS6IGM1LjE/Bilv0hEWKaOcVQNoMs4qcyQmDAMU/NE3hroM1zhBmAPg4C57GmFGYUjbOTFos6dVDDKOCsnYSUxfhxC76cEXNmeP4FqSZBHQL2myyPVAv+gB3fbiYRD2QJY0B0QT4uakJhmGR73Z+skpBBrdDEtVNIz5KN/xIiIsBKGG7n/5o5zSUQvbBoF4xtZwZQECfOnUIbDtETa4VIAvAXAKiBKznT7EywILJiFCkyuCiKEiKRKxs6r88bYt+VaTYIONzfjDi5+Q2j/rJ2cQSMTQOaNMvgjKl55THLEaR7oI/W0SgsATCfhBNHbY6aPJ2Cli2dE+ZEQQNE0gwR/dL6QOAfLfJI1HbEhpGLBBvA5h61MdhZEdpu1KCk3GWWAfdRBnFXjGmwJ9bEmCBA8gxjkAfQmAkZKImoxTgq/HOkcMCwHTADsm43YicwRMrzLkc0xUa7CQkKiGy35XR2T0mHU7nViTcQ/Zgy+ZdLYtqYJU2BmTj8A/BpE6iItVlt25tJqMnWOWDT0iogFBVyHkvksf6ZJKgvEpEx4H83YmsgyX62n63XN70jWBHic5BDQZJ4db0r2eOOcc45xega8y8ZNgHphFhWFbAAAgAElEQVSw7zfZGTUZJ4tcz/aLiCCCLjckpffHuYNWXE3CngjUrab7l0d6Vun9e3ZNxt1sfz7nHAMVDSdKiAng6GUMDxEmd7ywkSbBFBkXNSR2DJSmKfUwaUAgZIYQMl3gdH4pRV0Wr7Dg1ZAUFkQMlrth8DPAnm2ajNNgtxSG0GScAnjp6MoXn+6BsCdKxggBAUkoEeDjGahMx/jRZEEFAQljb8YZ/eQGAhRy3StDYqNg6s+MH4JQkoTkWxh4FcAnYEgBRCCt19CwfQ09+UE4ifF0lwwioMk4g+A6HVpd5th56QRvH1k0VoKOVv0Vg8q9h3ilgDiEmI+AwFAwlQBcDcZWJnpfEH8EyY2SmsOZOOoAmQzg6ygISZgRTcZODdKD7W3mU1wLlr7KF53aC+AzJaFYUPR8wS0ZhxDhIDCGghAG82cMsRawNwtQRKodr7oXwqg2CP/BoJc30M1qGeknmxHQZJzN1mmWjefMEdi5xIOIZ6Bl8GAToq8NeAxGrcXYY9vWpoL6+i148u1gS2ypInZcPOmrUmAGucLnwq03Qjlg6haLh4mMU2ne4sWtZd5r06NNoHwAbKM/gD4WYJsmtsG2tmOtvRuLF9s6vjh3LN1aUk3GuWm3hKRWJB7Z9vZXTDfeQYFO9JUQaNnR6L9E/GOat3RVdoijpegOBDQZdwfKPThH/WUnVxTDrEJh4IgeFENP7QABBuYLKzSX7vqPTibvALdcb6rJONctGEd+nvUNL8LyFnaFp6ekKvObBLqDCX8GUJzSWLpzTAQIdB6K6Um6ebG65qyf/QQBTcZ5buhocqE6OpUNe1EqqjLjz0KKy9mQ6wCUpTKW7hsbAcmYai6o+pfGaf9CQJNxnts7euhz5bgRbBopZfRi4F4RDl3H7oINmowzu2g0GWcW32wdXZNxtlomjXLxtBOGsyE+S2VIZszeKQrv7MtBlTtX74xTATNOX03GGQQ3i4fWZJzFxkmXaOkgYwlcaIS9f2V343ZNxumyTOfjaDLOLL7ZOrom42y1TBrlSgcZE+FkeEUVN8idmoy7Mg77AfKlajpNxqkimJv9NRnnpt0cSZ0WMmZ5KC144xM5s1Jl99Juik4swIy7ifhyIIXkPoSdBHkezXvjFUdG1o1zHgFNxjlvwvgKaDKOj1E6WlDIHsQFxnoAruTH4/eJ6WJaUPVW8mPonrmIgCbjXLSaQ5k1GTsELMnmZItyNmR1amSMKmJMowVV7yUphu6WowhoMs5RwzkRW5OxE7SSb5sOMibCa5DGDFrw+srkJdE9cxEBTca5aDWHMmsydghYks3TQsagp2BZs+muNz9OUgzdLUcR0GSco4ZzIrYmYydoJd82HWTMoL+KCN9Id1d9mrwkumcuIqDJOBet5lDmrCFjTwnDtoBQUz6uuxCZ7n4cCW8GJZ+7g8G/F0y/pAVVmxyaWTfPcQTy8aXIcZOkX/ysIeMjT65D7Q4X1q/xpF/LZEdkCdBWAj5h4FAAg5Ibid8nQx7HtqGiIEYlN0Y0IfzdwrRvpzve3JrsGLpfbiKgyTg37eZIar52wlCOyA8AFDnq2KoxpSPOeNxZi2nH+t689n9Jk1Wy8sfoFyDgcQjxc0h5AwOXJjMHMz8uGpp+xMXeP4JwdjJjqD5MfItwue+iX726O9kxdL/cRECTcW7azZHUTT8bd0ChS7wN0EBHHVsaE5rIFmNp4eK1qVz64IGH3E4Ne0agftc3k5IjM532knE4NF26XD8iEvOTmYYlbhWW91aYjVexwC3JjBElY/DPhW3cS3curk12DN0vNxHQZJybdnMkNV89YTDb8jUAhzjq+AUZf0psfp3mv7YhJTJmulIIHsOMi5KSIzOd9pKxv/ESu9hzhiB6KplpJPPFRkPTI7an8HRhGH9PZgzVhxiXIOJ9hH7zQijZMXS/3ERAk3Fu2s2R1Hz9yf0QijzOwEmOOjY3JvBiGPJ7yo+Zr2RM86suikw74RTDEP9OBiMbfJq5sf8rGLplKEtzbTJjqD6S+XzDt/QvuoBosgjmbj9Nxrlru4Ql5+vG90GEHmDG1IQ7tWpIwJ/h5un0q6U7UyDjWmKeDkEnZOPOOErGM8afbBAllROCbByBO6uiOaN5ZmXSlZgl8XfNeUv/moyddJ/cRkCTcW7bLyHp+bKTK2RheCGBzk+oQ7tGzDzPH+Bflv3ujT1JkzHjTTLoOjBfkJdkLM3BtPC1LdHd7cxKTgbnaF9NxslCl/P9NBnnvAnjK1Bz8dGlpV7vtSRwbfzWHVsweIYIGA/QvYsbkiVjZtwjhPULwPylJuOuraDJOJkVmh99NBnnhx1jasFXj/NJ27iSkNwpvwS+b+wWf6dHFgeTJWMCbsDGfr/CgTvu02SsyXg/eO0cq6jJ2DFkudeBLz7aI31FFxLEPclILxmTjYbGf9P9yyPJkjEzX28sWPornlX5oCZjTcbJrMN876PJON8trA6ULj7aZXs9k4SgfySjrkXyWNe8N/5LAGsy7hxBSofPmGGTwHk0r+qJZOyk++Q2ApqMc9t+CUnPcyDgrzyWCW8m1KFdI2J8qSW/bpJk3EhE19O8JXdn886YZ044gUn+C4xypzi1IeNZldvA6O90DIA3kKCLaW7Vy8776h65joAm41y3YILyh2ecMNYksSLB5m2apUrGRPwxJH5OC5b+PZvJODx93JdNYTwG4DCnOLUh4xmVr0DVDHT4EPBvMK7RieUdApcnzTUZ54kh46nB0ytHs8CqeO06+3vKZAx6BYb8Od2x9L/ZTMY8fdxINox7wDjRKU6tyZhnjJ/LRLMcj8H4IwzrFzT3rc+c9tXtcx8BTca5b8OENOhJMmbGX8ICs4vmVa3LajKeVTkMjFsY+F5CoLZq1JqM7RmVPyHC752OwcwLAkZwbvHcd7c77avb5z4Cmoxz34YJadCTZEzAPbDFbJX8JpvJ2H/F+D4eF11JhJ8nBGoXZByZdsIEwxCvOx2DwXOEWXAX3f5KndO+un3uI6DJOPdtmJAGPUnGTLjNmFc1WwmazWTM048rArl+wEnsalvvjLef/w1v377BhoQM05rQQdeACu6heS83Ou2r2+c+ApqMc9+GCWnQk2RMwK00v+qGrCdjgDB9/BmcRAhgG5/xxUe72OcNJ2SYVo2kzT827lz6kAohdNpXt899BDQZ574NE9IgeTJmVQXj6zR/qUpOr/Iu7AFQltCkzY1yhYyVuNaMyjME4Z9O9FNt00LGEj8yF1Y95HRu3T4/ENBknB92jKtF0mTMWEIC/0fzqtZpMu4aZk3GcZegbhAHAU3G+8kSSZaMifkBGMaNNHdx9IRf74w7XzCajPeTFymDamoyziC42TQ0z5owilm+B8B0Ihcz3yik8ZuWMkCajDUZO1k/um3iCGgyThyrnG7JM04YwSRU4vQhThSRUp5lNAYWqSRBSe+MCbdhXtUN6mAqm6Mp0uwzbnL6wye1z9jJ0sy7tpqM886knSvUXCFaVZA4xonKBDGe5i9+o6VPMjtjBi8U/qbZdP/ypv2CjOdMMNkvPwPhACdYazJ2glb+tdVknH827VQjnn7cIBiu3zDDUWXmtJAx4w9BybO9dy7dtt+QcQO/APApTpaXJmMnaOVfW03G+WfTzsn4ivF9pIvmEOEyJyqnhYxzaGfMV1VOYomnARQ4wqlVCk0+5xwDB1T/nsE/cjKGJmMnaOVfW03G+WfTzsn4mqNLZcRzKRH90onKnZDxZgCDnI2RG5c+lE48a8IEZvlHp771NtEUc+YI+F+fwYS5DnAKScbF5oIqNbd+9kMENBnvJ0ZXV31t4TpXAI84UbkjGY9/E6Dj1D2HRMfJ0KWPRhDCyeQebid3gIDHVXXoKBlPH/9VFnQvgKMT1U+1a0PGAFnTK79uCLyU+Bi8VZK43Jy35JnE++iW+YRAwi9UPim9P+rS/On8NQY7SVzeSCxOoQWL32nBzJ4x/i9E9G0AIlEcM0TG7xCwghlng9AnUVk6adeWjGdNGAWWdzAw0cmYrcl47w67chgzPncwxmoiOYPmvaEiXvSzHyKgyXg/MXqUjIdsn8BETl72j4jld2jBGytbYOIZJ/6SSV4DUI+SMYMfE0wLGbgJhDNSMGNbMp52wnAphPKt/8DJmB3IeNqEMjakujqe4EOLiexrad4b/0mwg26WZwhoMs4zg3alDs+ZUGg38DkCnLBPkoBnIczpNPe1fcnOm3P1qsKmRqLQpX1nzGiIpuXkyM1SmNcS6MZEZYm7M75qQn8p5SwCZjoZM1Uyjlb5kOJ6Wrh4mZN5ddv8QUCTcf7YMqYmrKIp3HQTAZcmqjIz7gwExe3F9+69Cq0ea9q4iUIYz4ISJuMAg2815i+NHhymJ7SNl9vEs1zz3lhszxp/FTHdkahO8ci45pqjS0tt7yXE+LWTMVMlYwDvEdNMWrDEcR5kJ3LqttmLgCbj7LVNWiXjK8cdyqbxqpNICGZcIkThn1rn1+WZ449gkHJbJHStmoD1AG6i+VWPpo2MGf+khsbzopdIZpw4g0nOdeI2aQdsWzeFqqRd7D1fEBxlT0sDGdcT6BKav+TxtBpeD5YzCGgyzhlTJS8oK4LxFp0mhPiXk1GIeAq8S1+gmyFb+vElx/dlr6nC21wJjcVYRsSzaf7SaGRBOnbGBH6S5i89Nzre9PFTmehXIByekDwdG7Uh470yTvgOs3REimkgY+g44yQtmCfdNBnniSFjqaFu37FwvQhglBN1bYlTXQvblo1XxM4+r6pEkSgZP082X0d3LY0WQ00DGe8m5rtowdJbouPNqBwiiX9BoAud6NaqbQcytmaN/45gSo2Mrx7nY1u8C9ChicpFwBpIvpwWLl2SaB/dLn8Q0GScP7bsVJPmnezzTuNmAa4n4qk0743F7QeWMytVFYuEyJiBR5sarat9v3+rei8Zj7+XJV3swOfcbnpeTlJeQgvfjB508ZwJpvTLm5KpW9c8cGbI+IqJBdJsuIYE3exwiX1EsH+GYtfrdPNiy2Ff3TyHEdBknMPGi7kbZhDPrHwGhEMAHOFUTWZ+QIBuoQVVm1IhYwLuwsZ+M+nJJ201jj2rcm70EJHhcSpTc/uXKOydSr95IdTS355Rqch4TpLjZYaM1aWYqysPYxvRCinOHt4App3E8gaU1LxGN3/guISTs/l062xAQJNxNlghjTLY08ffRoLOJMDFwIEA3MkMT8TfxYb+T7aQaOsxnOyMiXgBzVu6L0zMnjn+dgKp/Bje5OTC8zSvanLrvvasymuIcROAwiTGzAgZR3ftV48byLahDjAT+opoIzuDQdgBoAHEW8i2voeFb6sSWLo+XhJGzoUumoxzwUoxZFRuCOkxFxLROIBdYJSBUOTkunL74Ql4HYyZtKBKJaPv8KRCxjyr8hpWMbyc1K05dZC4SMyvmtpaKJ5+wmks6FaAHF1hbh4jc2S89+B0ihBCJR5K5VFfFbvUhwUYm0nWn0p3rqhNZUDdN/sQ0GScfTaJKxHPqDyKgTkgjCPAzYh+8icUahZ3cMXiRD/Ehr5/7GxXrPqnRsbjr2LGLID6JiJLuzY7GJhrzK+a34aMozHUUDvu/0tizA5kHJl2wimGIX4H4ODExuNqEsbYltJUrfsEp0842C3k2wB6JzZW3FbqB6mhmZg/JsE/oXl7D0f1k9sIaDLOEfupBDYgmsOEk5uJV11HTrv9iOhK1Df8rqWyR3t4wjPGHWuSsTRR8m/vpuBZKZHxKotxobuTHXvUFx0lecePnwTuorlVN7T0jMZSM90KSjD3M2MnGWJMZ2TMAEWmTzjaFPJdx5LF76BcFoqc1UHf/yxLTnffpa9Tx4ctO1uk/WXOTjVzRyr18mLOBAOoFvD3/jIT3wLQiU6uHyehrXqpbWZcJ3zizlin+PbME+YRaHqilyw6kPGMyh8yYTaAYY7lJCwR86omdNaPZ554B4Ovcjwm4FeHjDS/FRlfOqEYRfJyBn6V6Hjt44zb9+MZlcczYTEYJij9P6JfzMdhZnpKRMQ1CPl3YMAUm26+eV+ceKL66Hbdj4Am4+7HvMsZFRGHp1Ue5jJ4IUAtO+BMSqjq2gWIorfkbqN5VU/Em0zOHL8boF7x2jX/vZ5Btxvzl+zLocwZImN7ZuVsAq5N4mCwAxkr2a3plRcJgQcT1BNEGE7zqtbFas8zThjLoLtBNLb5sNFRAvtEZfmiHW1h5l8JKf6M0j5NdPOTOirDOYjd1kOTcbdBHXsiVmfn14wrhkXDQYZKdXkmgOFd9Gqxm/p3yz8xeSB6Bk/R/275R3VcgghuprurPk0EBr5qQn+W8mMAJYm0B/CWbeE6111VVS3tUyBjVgeLNL9K/Uh1eHhW5deYoUjfUY0/dLIzjpLxrBP/TzA/kOgXCTNuExHvLa1D7rrCiKeNHwADlzMoVmY4atlAM1hZbt9+mkBtdrp7wyui/91ppAUpHzPTjbRgyZMJ2k036wEENBn3AOipTqkuOqA+5ELQKPTbAcPnLnQHBExyKb5q+3CE2AoGVaVi+ArMMFYXNdFi55cJ+OoJg9mWyleswuUSWjekyGzT0p/Sk4jGGEfZYuaEHzHs2QCpcRJ/CE0s8bixoKrTUkb80xPKpYfuItD5iQ8abdn5znhG5SRBuBOIxmkn9FjS/opr4ZvL0xF+xhdOKITbtzdNqekXfsu/L2zPh4FRe37xbAUGBCwdj5yQmbK2UUIvVdZKrwXLOAI8BwINE0Yw5ENgHOPg5lyIwfca85fOaC2kPX38VSSSiqbYJCVmmQu7dqXwzMp72EFWuma5OiVjnjmht4oUduaHZoskxoGxie5cui3jxtET5BUCmozzypzpU4avHucDuw5CxOrNhlBliBLeIe6VgldKpuvNBVXqKva+x545/noCKYKucCjtqkayvu6bt/dadWePPaPyN0TRFKEJJ77vamesxm/O3bwQiMZtJ/ww+GEpxcOmiwKIhN6nhW8HEu6sG+63CGgy3m9N31Fx5ROGLYeDUSwFHUqQl4PpkCRO/xsZfH/7XXGUomeOX8BEPwU7vC1HWCbmVX0llrl41vjrmEmFtyV6wKiG63RnrP4QmVF5vEl8G4M6jeCIs3QY4O3EPBvC3AhgO81bvEYvN41AVwhoMt5P14byOwfrMNgk6zCCUQTBZADHM/M5IBrscHfZGkV1iLSMGNNoQdVb7eFNOmtbImQ8c9wJDEMlmlcFUxN6CGgE4yFaUHVlZx2sWZUXib0Hg8lcUmkeksPE9CYE/QZS1sMw3u8sJjkhgXWjvEVAk3HemratYnvdDsZxYO5ls3ABssCAOIaZzwRxr0TjhuPBRcAWEP+a5i39bWdtkyNjDoPpWbGg6lsxd8ZXHFMCd8H9DKiCqYk+FsCLxfylX++sQ2DaCcPdgq4lovOSCJvr8FsUvc5MeALMK2zBdYbBK+n2N9XOWT/7OQKajPNsAfC0ysNtwlEkuE34mQD1ZlVkU+IAEDIR36pilj8lovto3pK7u4I1OTLGNmnzpeadS/8Rz1w888SHGew0t/FqMb9qTJcyz6g8XhJ+RsA3AJTHkyHBvys3xjYGLQI4mgNEgKQNlgZISHDU781M6hLHp2Zjwztd3YpMcD7dLMsR0GSc5QZKRDx1RdkF42hJKBTgYxj0tQ4HZKwimSkz9ibsJuBhEL9Dc5f+vUtSu+r4g1iadwFok3UtAR0/IcP+Mt3xpj9eW3tm5W8J/GOAnGSrW0dSnBurGCjPGj9GApOJcYGThPHx5G3zd4YNYhUGaLb6Ugmqq85EvEgyGkS4+P5EYpkdzasbZwUCmXk5s0K1/BeCZ42fChYjGfJkgI5PKIVkNDUjq8t+TiIOOgNTEvCUZP5YCFSjvum+eDs3e2bllcS4DoR+jqxD+FDMq0ooJzPPPOG7DKESuice/UFoIonHqYsY5hZZo/HdTfxNsBwNiWFMmOTgNmJnKitrqKjtve/h3rSZ6unqvQwReL5k2mMsqJrnCEPdOOsR0GSc9SbqWkCeNX4yJB0uyUHGNgYLwVIyGSL6OQwTzOoLudX/bhcaRlDXaC0BCrRc/VIdwPY/aMEbnyQCIU8fNxLCuJ2d7oqZmwh0Py2omp7QPFeM74MCeoRZEaWjZ4skusGct+TheL2i+UOmHXsgDPc3ZHPkRhRLZg/ABYKoY/5iBkuwSuijIFSJ8ZVbx4LC0WGuCkHUFMsVFE9+/ffsRECTcXbapVukil7o2Ha0gYI6AbOPgNEoECoy4LHargs7YiE0yMJvXggnc7uMLx83EG7jZ0xQt+ecxhdvJVuOpzvf+DxRUHhW5Z+Z+TsOd/9qj7qeBP+C5i59JNG5vtg1Q2zbdnThgHK4YPk6knGwiVFsWzVNJjeZIjK4pCCCmxfbyeDpVDbdPjcQ0GScG3bKWSl51gnHSBYXE6CiFYY4VMQG+G0xf+l4J/14xglTGOIOxxWj97oJ1hNjPiLeB7Vv1gnqum2qCGgyThVB3b9TBPiKCYOli88lUnHLGJNUzTtWRVHpdJr/RaKhROBWeR24l/wnKBr94PghYLNkflNIehalVY/TzVHXgn40AhlFQJNxRuHd/wbnmRMOk7CvJlbZ56DK1PdPEgUJ5pdpwdJJyXzK86wJE5ilqtZxWHLzsyLgdQT6SAKbBMlHaJ5O3J4clrpXIghoMk4EJd0mJgJ83fg+MkS3CMIIZpSCotWokykO2nqeUMTGUQV3Vn2YDPzRyAe/9XsGfRdEyVai3js1owmEz0jVoWPaAtjzaMEbK5ORS/fRCHSFgCZjvTaSQoCnH9eLyfUgCAObK1CPSMMNtX2ykE3H051LVO24pJ/AzOMPLIS5iIFRSQ/SsWMQjHUg1IN5DwHz4Nu9VKevTCPC++lQmoz3U8M7VZunH1ckybyVCCcCpG7wqQKoKvm9k8sVCU1rRzDOvLvq7WTcE+0n4L0XTV6Okag/IZm6aKRC1bYRqB7EEWnjLbG538+6KuSaykS6b/4joMk4/22clIY8YYIpj7avJ+BsgHyIXs8lVeFYffJnbN1YLI90+d5Ync5Ds6YrJgwudMlHEP0hcRCT7Qw5FYkRgES1qqhCjM0WRW5zzX/7JWfD6Nb7KwIZe6n2V0BzWW+eVTlM2nw1CZpMQAEDvmiqS4eXEpLBgIAbwHgU86tUIp1OywclM25LH77mlFJYjQMYrhVARnJztBdPXWtu2HvBgwPMeFZssq6mJ3Vu41TsmM99NRnns3Xj6BaZOf5UA/RrgA9qviChrkirCwvKBdEtDzGugu16DIHamnjXqVMVKHpzbtY3PKFwcKDbxWsc5q9IdXrl0lDEbAO0m4F/C4nf0sKq1akOrPvnBwKajPPDjo60iEw/4TRDCFUJ2ueoY3oaW0TyVrB5D81fvCs9QyY3Cp9zjhHpv/Urpks8CKKRyY2Scq8tEvi5Ob/q0ZRH0gPkNAKajHPafM6Fj8bfQj7nvKfDHowAmFVxzscAWoKItzrbb7RFr4fXHFMMl3kESJzFwNTmRPsOlXfWnIAPwDyb5i/V/mVn0OVVa03GeWVOrYxGQCOQqwhoMs5Vy2m5NQIagbxCQJNxXplTK6MR0AjkKgKajHPVclpujYBGIK8Q0GScV+bUymgENAK5ioAm41y1nJZbI6ARyCsENBnnlTm1MhoBjUCuIqDJOFctp+XWCGgE8goBTcZ5ZU6tjEZAI5CrCGgyzlXLabk1AhqBvEJAk3FemVMroxHQCOQqApqMc9VyWm6NgEYgrxDQZJxX5tTKaAQ0ArmKgCbjXLWcllsjoBHIKwQ0GeeVObUyGgGNQK4ioMk4Vy2n5dYIaATyCgFNxnllTq2MRkAjkKsIaDLOVctpuTUCGoG8QkCTcV6ZUyujEdAI5CoCmoxz1XJabo2ARiCvENBknFfm1MpoBDQCuYqAJuNctZyWWyOgEcgrBDQZ55U5tTIaAY1AriKgyThXLafl1ghoBPIKAU3GeWVOrYxGQCOQqwjkAxn7AHgAuAEofVrrxABsACEADc3/Vv+fftKHgABQAqAYgAlA/W9lgxbsgwDqAKh/58JjNOui9HEBUP+7q/dEra2W9eUHEGjWOxf0zHYZFeZFAEoBFLZaV/HktgCEAdQCaIrXOJv+nktk7AXQr/lFaS33FADjAAxtNp4iZfUoMlBG2QNgDYBXAHwIINL8d/W3Xc1/VwbUT2IIKBtUNBOV6qFemHMAnEJE6m+KmJUNoiTMzCsAPAFA/Vu9HFsBNCY2VcZbqXXUC0Df/2/vToCtW6r6gK99YyWpSuKACTIIyUMFZAqEIUoJChpFMYKCwQHDAwMEouIAATUqoAHBhEHDKEiYFAKiQR5iUCCCogIKT0FmUQg4YiRlpop3p368PsV997vnnj2svc/e5/aqOvW973179+5e3b169Rr+q/TZB/39n0TEF0fE9crf/8aWnnwsIv4kIt4ZEa+IiN8owtnjxvqRogRMPpAD+ICDz7ryc6j7/eOI+GcRcbOI+NRyMO4aqvl4f0Q8JyJ+rTxsz/9ZRPzRrpf3+e9LFsb6ZjNcq0yMCfnmiPhH5e9j+WZiXhIRryyaG83mXUWAj237kN6nGX5O2Qy03vs0TfM1EfF3BwzyHW3b/oeIeHlE/OEJwTWgqVGv3LgIWYfGXSLimyLiOqNavPrLFAEC+qkR8ZsR4bC33n4/8RuH0BQB/NkR8WlFCN8jIu5W1lrW+MzFRyPiZRHxH8tcWHsfXNotZonC+LoRcVkxPdwnIv5pRDBFTE1vj4gfKtryh4pgvsgmDZvkM4um+/CmaW57QhseNRdN0zzr+Pj4GeXGMpf5wsFuTA6XR0fE548aRL+X3QRozs8qmvJ7iqbWr5XDefrvRcTNy4H+nUUDnmt05uJnI+KFRUi/dylzsRRh7IT8rKKB0VTuVU7KuSbo9HdeFRHPLHan1+6rE3v4rquhGwjBRQM2F8xDU9Avtm373bKUDwsAACAASURBVBHxWxNryLeKCAc8jevexf44xXi6tvmBiHheRPxqRLw7In6v64sH8NwtiznxNhHxr7MO9xF8Yc54fkT8SkRcuW8zxr6FsWvijSLidhFx16IFEwhLIVeZh5eT878spVMT9MM83MKvaRoC644d7XOjutI0zbOPj4+/v9iRR7V1xsvWFD/CtxTNa+NLyP7O0Pb4MmhoPxcRbyt2zqFtLf09psUbRsQDI+KLFthZviMmjF8udmZ259lpX8KY7ZEpggD+kojghNtXX3YxnamC9sKE8b4yYbveWcu/4/lNIuJOxQ5so8w6D23bcv6xIXOoZtBNI+Iflo3/eScccxltT9GGSJOfiYiXRsSbIuKPp/jIntp0w3KwX16E8JIUrbNYQgj/RES8ugjlWR3Ns268MnqOHx5SG+UbS8jKntZKr8/yyL4lIp4SET+/FDtTrxFc/WEbRQSEA9EVfl8b5Yq2bf9lRLDTjyHhjV8YEf+iREIIiVoTsV3Skp9don6O19T5M/rKGScq5euL32FNwxH549bytBItM4vvaE5h7Jp4+4gwSfcrDro1TdCmr7zijP+viYgrVjgADiza8Lc3TUMICyXaJx23bUuTFX44lNggv6KsLeaWtZJNTwj8QkT85xJxsraxsNF/gfVVbr9zyphMXpkLwviNJepKrsKkNBejxKKyvTJJiAleOwlVIjweFxE/fSJ2eenjIni/pmkaESp+i6C2bQnQ3x7QGeYu1+BHlD+ts0MgpgrCWNTH2BvDnPy4ewk/NSfizQ+BhCP+VETwbWxyFCYZ1xzC2KQQWsLUDmWzbCaDN/zpxebHS75kutbR0dGj2rb98hItsZi+DhTGzF3GwsThxnVoxEwhWcbecfAvOTFJUsw9y6Ho1uWQPCSSZUlL/oESDjfJ2KYWxjbJg4tteJIBLKBRAeRsyGJIhSstkT6jaRrJFswSwggXRQOEsSSUBxXHr/8+ZPql4lRyA5v8qjyAkdcvPqAHlNDUAU2s5pUXlUSe10/R4ymFsTAW2vCcwfVT8KhLm7yuUi8fGxE2z1LI/F7WNM2Ti+BaSr+u1o+ewli0hMiWOxXcgkWOKblTMkNdla2vrKiTjC6KG3Yz+aqIuHZGgytogw35x0u6dWp3pxLGbF3/PCL+fmpvl93YJtri+woOxhJ6K274x4o9dQn9uaQPbduyyX1pSYDY1cfPjQgaPgfR0uKGd/V97L9vYmElS8zi3d/RYbgR/EB3vkCHIpbgvRBXGaT/buyknnx/CmHMxiVagrNoivYzx5/dFruesBgbZt+ZezdpmkZ2kYD7xVIJa3tBB/AgqczAX9y0RIRcRBKTjAffsefBE8SPLIe8kMKLRgQyxypF50eyBp8tLP9tRLAdXURBvJkTxn7oXd9VwmKy5qpPO9dumkZ4lPz/JdMft20rJE389nkEI0M4oUiciyqIN/yBFPfEIgz3MbfS5Qli8emgLS8qcbBy2pN5EkVGU6Yw/raiEUK/ymx39CD30ACThawq4TDsfXPSJzVNI5OLPW/R1LbtfSPixQUHeFtfHexwQtgl95WYsjQ+Mlk8JCJ+cuaO2du0ck75i6gRn2Y3xUsqO8XrdWPnIktown51WnOuHFpYy1AeAxqnQTD2wyGYhYogvvXSD8S2bWFGwAM4L+VUyNS/iojHRMQ2TOFZ+Lqwj2xS9AE5QYCbgza41a7mhxJDnME3ihfcGinfDsnBlCGMYZHy9ErouOhXyNMToboIjc6pObnTpWkaAPrwJZY8D3/Vti3NCnLZefCZ1iY7MTxgVTcqXZ0Drsm0srl8Anco6dprSzOfY92IcHHDE7QwmDKEsU5IcV6yABjMoIQXCWRhWG9OaOu8Jh7SNA1NXEWERVLbtmxrHB680buymWhiMtGqIN4+mwTyr8+Q9CLdXMhm1Yi3z4UY8OcWgKpB+2+sMGbLE0t80cKM+jJbZIVrzB/0fbHj83+nmCfAkS6N/rxpmqccHx+LdVZxoSsADufIRQqNHDpvIizwVnbYFMR5ap/Ldqx0PgcoGT9YhHJvXo0RxmJDhbHN7SiymYWQufb7wSUQOSA1+fRGd0hAJ+P5VbKJsDLmTeHM3gwb8QLzwRsmAFL/a03T0I7Yieckc8CBgT5WtF6g/A4cUITKWA0l86UyxpxkLdHW/ckOC50PtKeafdvIWhJd8NCIgMvAru2GOLejkbnC7SvbN2EsYrpHO6d6TuTJPf6OEtMLq8NNadth7iYFCdKh5E9kHua+sXOqSoTpvf6HCmMDd1oCIp+LFHh0FSB4DNamH2KHlT4rg4uNWxWLTVXpqcdhEXFwiq4Y0u9t/VMSiTAYUpOu75j1W2gVu6+D+EkTZIQpsaWy71yOYIeKjeMwl2Kt8sgYAuGJN4TAXPZV8wIYnYKUlaFHNqgVSBjORfrOoftfSyTSEPCoTV+tI1EO31r2+FzmLnPhIBd10gtPZIgwtsikZQplm8PD7RrG7vq9Bcouq/y2U1OMoOKatOc5xvLvy8mdBVr96U3T0CA3msCUmwZ0KA2YB1+5minIeuSZdlBOTQ7H/1bK7fB5ZOI+bASZsVhXar5NTZQToZTslhlEeMkwA2swNRHCMF7crAixrD2u37BY4CoTkA5HAQdTE/8QedWrOtAQYSwl9fEzYB1sJojgF61BKE9BNGNaPmBy9rGpr5gSMRQ/HasdHx0dHb2wbVuCZErwHyXOP9q2rUOLltTV5jtkrtxaaKZT1d3b9IkQlkHlai8EcSqylmQMyppT5XzqccHYVjmFbX4MkQvMjyJZpiRmLoe8GnTMiL2v9j06J0Hlq4si6XCcOk6a8FfjsfOY+gpjpzzhOHU65keKOYIxfOoFsZlPoNjGJtd+SuEGPFz1g7FVkW+myvLElXXf17btEyJCujLzxJRkLTqkXI37rss+/ZKuzqwzJ6CTZAmYJW4V6vJNRQ5Ozjz7ZgwRVOzEKoJPRezz0M+YdHppkCM7xFToVg/Pe0pwIzeVf1MKnnbqct9FDxLT1X7KooLqzQnyFzLX+VTpNNrdDzHBwJCVojtlqqcFMcYWRyt+Qdu2qmhPYVultb+jbVup7dDoptSGN7MifIoj9hq7p2nQE+x3MhPZVZm95iY3MJq4ww3m71SEh7BhznM87vo2ISylfyoiiJnXviFBKRnSR3Oh5Btn35QROz9aCgQ4JHdSH2FMOJH0bCFTEAGgDpj2FWcce40f00eZYcCyp7pWwkW1EIeOkVb81IgQiJ9N+vTWtm1lvoELnIvcgJRfmuJwcQuhCbuRzH3An+YffA1zN1V5KFlgsmEpNEMI/+FyAwOagpgfQQV83RSN92xTAMKjJiwPpbo80DD7fSf1EcZKn4tCYAzPJgLgncUBQRAvgaR9cl5MZbIQ/dDpxDzNjKOjox8tWusUTsc3t23LDCUMby5yU6DRXXeCD7IJ2/y86mNtqVndU5ZIJArT2BQEiF7E0ZD03BtOiKdCI2byorkvhTYasmzPPvKwa/+ZYX64RAid+07Xj3tOgUHe1Sk0F4LYlYGJYEkEs9RVfQpiQ3S49aXrSaKYqIYdQbwP+E8RACqGT2Eagvb2nSVGtS+vp3yeyYIjnHkmm9ww2Y2lnPclcbJuEFMQR/kc0Rl9+05DFokyRdWYK4uP4tW7OtVVGLOr6OwUJ5q4W1cFERNLIzZkpdNlGWaTq/OQmoDf0jQNLy2nUCa9rW1b7SohNScxBbFPTmFHlSgA3QyA/RKJb4I5gXkmm9RsY2rqYwqjaG0SebL7w/QnBnuq9sf2V4YsBekGYxs6432gWObjXN9LV2HMUcQYfc3kjm7wQAm8PosmuRvnNic20aYW+pZNsrdEEHSl5ujo6Clt20pOyKS/aNuWY5ZpZmyUR99+WVtsnNmebWFehJFb11LJTcBcfs8ESTuvjIiH9XQUizCQdZhNTFBuPlNH5Izpt4OIMuLwzo4Ld0NR/Ui69FbqIozZTKFssXFlElsebZh9csmTRDuWhHDFBKmVIkb6ODJu3jQNoJ0vy5wIaFxt23Kcjsl4GtqlnyvjybTNc9LRwoQRZmWkDR3frveE8m2Sj3Y92+ff+SO066DrSkD+s1HgJNNYr1NAAXQdV9fnWABo8BSvLrKxa7t8FdYj38UoYQzPARpYH6HRpZPiPTlV5nQUdenXWc9IrcQDtsdMkonXJ03zu5qmoUVlhn+9t21b9vq5gcrxUVKEgH/O4Uxi6yeIeLPXQEB4+A+yBaGDmw+gK8l8G2I6O699Zhjx+/sIJ+w67pPPSaJiy882VzDx0pC3mmm6SH8AKJILVFzIIqmPG2yDrDanbsehBBcjE2+ASUAqdiev99HR0ePbtnX1TKOmaV5wfHwshx8Iy9wkXp1TJ9NxIk79/jMndYzlG3OF+GMREF32ZNfvOWABaXU5lITcCf/LjNCR5ShyxJyshfAf32TrZfKCxs1UsZUXXSaep1Fhy0wi1O5WUiEz252yLdoxG6RTPouE+tC2VTzeRdc6Ojp6XNu2owCsT33k99u2pZE5bPdBBLHQoszUVPPjag45bk0kukIIVOYtgY2SU6qLc/xlZU9mRkvJdINhnYXFMtd8SmEX4ZOpJFC4yFL28zNplzCmBbIXDw0gP+ujNDAbJtsGPcdEganMBInntAR/2CXe9O5N0whX4vTLopeV5A43lX2QcJ9MUCACmHZJsKyNZIUp0ZV52Drsmde67F94HZkROvxA4Df34YcYO/fkIgxySVWZhxN8l612413CWMiN2OLMDSPuTntr01xMsMVKe/mmsbN94n0nZhfvLahMIYBZV6f/1zTNM4+Pj2n7+yJlotRPzCIRP+YHtskaiZNHlmtmiq41QyDvIvsxE4bVjcsNZSmJNrvGf/rfmSnE82dG+Ty8YDOfCXq2SxgD+ZbK18fJdN6geVaFiQlnWiNxOPEMZwKfdxXGj2yaJrOaw5Vt23IGihLZB0HIe0ky/Kd4TqnGSw2T3MVnfhkIb0LMsohvhjA+L2TxM0oIXKZj2CELbGgOXJMsXp1shyMTgmBm9Rxp5kIZKaSX0C5h7HTIvPIJvuetFEKzVuLoyIwAUZ0BXOGukkzZwpiJwpV4X/a8r4wI+M7SbzOINixLdGlZnH3Hxr6bGblEmWI3lpW3jXyPiSRL6RJaCDaBb2jNBCQLaFKWqcKBaN2fiRg4tzAWgA/PtxcC/sJmk1Gf9pVluhHyI+yFlriNmDEe3TQNe2gKNU3zouPj46nSXrv0kYDg4Mm6GhNiNEAVO9ZMQvL4abIKy8puFEPOJLSNhALKQMuqZcnh75tdojiWPFfmwXxkzYWxulmfCRk6tzD+3YnSXuecUNrDfUtGYsZ3nZZsa0wG24iD74eappE+m0H/t2ma5x4fH0+Fu9GljzQ2yHhZNcrwT1ztmg96fHO9d2PISpFmC2arZP7YRq7NHMO75EGXefWMeWWOXPtcCGDggBR+mkWDhDHMAKdll7CrLh2VcWdB7NNh1KWfu56xYDE0C8PBgpWFxtO6jXzvMU3TZCUFfKCEtElD3xfZrF+V+HHJDYTx2knMMdS1rIOX/VxsOgG/jcS+ZoLebxU4K5yc7Crlg4SxMjEmMSvrTHqm0io24doJQPnWeMGeg7NZaCbnVdn++qZpRAlcv2fb2x7/jRLSlhmm17drVRhv59jcvJlN4PRdJAt4fjbenHctuaxkjGRVgBbHCLDan2unTGGMFxyb52kmD2iahlc8y3b1i23bArffZ3jh3AJnTWtubt7MJnDWNAmlr9m84TTnZL6kAO55wvizSr58lmd3l8BZ0zzNLYwf1jSNfPksennbtjIg90lzC5x9jrXvt+fmTbbAqWaK7TMOekDG6yXgaFUY990mVz1fhfEwvp18a26BM77H87UwN2+qMN4+t9m8YfoVRnhJ4kcVxsM2WBXGw/hWhXE3vlVh3I1PczyVLYwHacZsxrAQALlkkKQGdabky6+dqjAeP4NzC5zxPZ6vhbl5ky1wqpli+1qRUyCsU3TZ1eg8zVg0hXAh4O8ZJEMKZOLag/KrmSJjNVwVVVND2y7lJewRWa9ZoW2+sCvsrwrj+cwUEq3M7yVFD84TxgKeJQVkOY6k/QqTg+u5dqqa8fgZVOVEanxW0gfcXnHGa8VC2HBULLkMT5FHWbRLGFOQMqsji5kXO7/2pA+5FhLV9p70ARQHoI/S2hnkJFAGZ60gQRse4Asgl2zMjvNC2w4xmgKql3TTT8tYXCU5SZt/lNTevprh4GFXBN6TRbuEsQQm6f3WdgZBenQw7qNgQUb/N22owKI6R1bKvnYHJX14MRso6BDSoeFE0PBpYlm0K+zv20toW1aduCWEtilQCWdXCGUGvaMkKSnEuWZSZUI4aVZqMl7sEsZgO6WTZ5VcAkokJRpW95qJbVeloyzY2kUJY9ch16//vuIZukUxwH9u4hh2CePspI8lCGOYvUwVmddxqfau+Gsl1WRUmKAEZdIuYay6CPCazJJigOXVN1wzOeAz9/koYczB8tKIyNLIZHxBcxJnt1bKhtDEh13C+PKSDp11dV2CMDbubHB5FWRckdcKaE4LY2q5afLm2CWM7e8PJ1/HYUs7WNZSiPQ0y8ETMKtmAv3LPmamPfOQ2nUVInienljqR2XUX46IOycvtrmaY9BX5eNpiR+ETfH2Ai26rdl7FWGcBeZyqML4d0r0z3lwkYlTl96UyhKc5lm2200Hdwljz2VX+oB2xlSx1ugpCiPIgMz6jD9WKtE4+C6hXcKYJsaZkFmR+D2lMB+c1bURLGNX6y4167qOzQEFxNq17qIJYyh+NIUsWyX+wUhW6PSS3P+uE7Kn52hikNWmUFS6CGNVLcB27pIJfdgj5Z5zcG25BarQ6HdmvUl84wtgabDnewtjCPf3KRVe+0zCec/+z4h4YdEAstqcox1XOdULsssU0YxpdGzRF00Yq3qgbp0Eoyx6fXGw7hORbshYmO8oPZl2200/ugjjh5QIiCyTpG+/ptwkz9QEhzBppnceHRHMLFmRProNtVIC3eDq0BrRgPCOrNIj2nR1USInCxN4jjlSjFSYn5Lq2STo/jyBdKhmCg4rG/Y2iQx1uG0KP14CxpL4ncymJEOpKHH7zEZPtNVFGF+z+C7gKWfSVpSyzI8ktkUpIu+ywP03XXNbM8dby6t1uZJ8fnGKZC4UV0gwclID1xAYrhwND7dQlylolwPvUIUxXvIhMNF0WYtdec8LDjub+WfpRPgJLWMOzBaEm7F3EcaeVbsuqw7e5ttsx6qX7BOutc8aeFKRSxSFTCLrCPkzTRQ+1GUDmBxXGF7eTBKcz0a2huoMYosVEVS/bwraJYzvW/CM9SODluLAMxbXwe+PiKyxbfjjOsh+vHQHEjuivZUVb33W+ugqjEWiOBSyiZ2UuZOJcsn0reVWdd3kTsqv0PaZhUg33+oijD37wBJVkdzHj28U5een0jgz+iuCQrHLzPLpp/u1SxgfYpzxhgfK07PzZsdzchoRcsqGLTXU7ePltCIiq5zWtvXeVRhfu4S4Zeybk224/RLy5mKp6erMjwo4MJl1lYtd+fSoUufyEtjMkw10/agOsnfAZMgkG+a1pZT4EqMr2Mll2mFmdrjRST5eZGGMDzSGL0zEqdjw9g8j4v4loeESYJbMhTygLTZJ1aw5MadcW7rWVRh7lrONUM4m7cpbeEt2wwntbRAqYWpkRvZsuqaquwrc51JXYSwd8KETmCp0ztXl5aVt8bZLIqE5inbS3qakiy6Mb13WACdpNnGOMgWIrthqr8v+6I72mCQISM5xN6+pqY8wniKpaTM+Ya13jAiH5FKI41Iki4rv2XZiY1RclhmOHyNFGGvka4sanxmGtOkcgQxS0ZVNmNcS6A7FyQhKdGq66MIYcpuNOsXaMncfjAhefeaQfQvkGxS7pISCbGfZtnXaRxgLbZvyFsE0Scl559SbqkP74olF3rBnTyGIdcHNmm9sZ6BCV81Yo9T374uI7+4wyCGP/O+IEHguxu9VQxpIfIdTyVidmnPQRRfGeCwVGLzqFHG22v/TMqcyq/YlkDmAn1hC2Ka4DmcIYzIBiNOUfhzrnQ2Z1rgvchsDjnSX5Cy7k+NhgqV1v7HLIPsIY+2xfXCKTHVtt0kYuQHaCwPZB72igODPcX3cjK8K46vspnL3pzwAVVd464TxvOetV34XCUP2ThaGc9f90Ucz1qYq5PDHpyKx4GLA5RkAW5+bHDaiuJjFprTX8wmQl50O/77CWMeZEjLTo8+aCCq9CAZln1xf5yBXFo4kKc99+TK2f1UYX8VBpiG3okw8gNNzQxCIcxfcP8facv110+IEzsxu67Pm+gpjh4W0bEhuU5LICnHIqprMkaV3jRJiJq57SiGMZ9YxzdttvxMNEToM3cLRMtGMzuus+Lznl4D07LAYiw4PxEFaEPvaLFUYf2IFACTPjjk+a31tAJpuW7ATOmkvnXbVVWvKZr9JRLxpj+tq092+wth7bijvm8muzUatWAMQLns8c5+bC/va/qbgTZVYc3Jp6P8PFxNFxyUzXAMUHC4RZOrT5eRAfBPqESxk9uUhTgYTI5vO75OLYT0bPLoz8088WIXxJ5hBk2TfNUdzkI1De3FdlohkXdGcCes+JAySHdiegNHM3LWvw/10v4cIY3vFLZFDfa5x4DsgLn4p2YD+PmSfU7LMhZ9wXH6CuWz01s1PFHyUXun4QzRjEw3NiIcQcM7QNvos9JPPSqtkKmH8p80YvAnzY97YbKLNiWgh+W02y71LEssUsZRDx1SF8dU5p9rFPmyJDnogVsCL4PAS1GLh/aytjcZms2/WFeFrrTFzcc6BD5h7T+xad0OEsTbZt6UH2zNzEwwHypdbq71tr5+ci80+x//Tc+FGwiacjS/RhQf8HuRT7yIHYxaN2DlgP5nIRl0Ge/oZYXG/WWxP0g43ISQccDcqKcz+5JRYKlVhfOnM/F5EZOE3D513mo0QLPHv7MubCjXCHW9c1paY4bm0+KHjGCqMfc/e4UvJThHuOxbmK/Pg9/5yO9bG9YtyyAfgv/dJfxkRMKmFy/WmMcLYx55QMpzmipfsPcCVvFCF8aUTZfOLfMgsBrmS5ZDezTHC2I2S2UViVp2L7VNDe3db5+MCl9mbxgpjV30ngZTOuexKvQe5gheqML50klw/FX4VGlTX1rhFPEYY+7IoBPUFxcxmFuccN6rlvM1kIsNOlIZSTYNorDD2UaVVJGq4zmRiHg8a0EpfqsL47InjzIMhDdOg0nAOjBXGvswsw37MIZYhN4aPZnlv8mPhDVvxYMpiKtwKv6yCmYMHtNIXqzDePnHC3IQkwcStNIwDGcLYlyWuQF7LrOg9bETLeUtyDJ7woY2iLGGsE0tx6I1iyJ5ersL4fMazHwsXykYN3NN0z/7ZLGGs46JFRI1UgXxVtjBBDDqhbyjkJYsgUxhvBDINeSrQjdlX8UwfrML4fEZbpwB2hJwJ3q/UjwOZwthcqMwC+5dgvqgk9FHonQS4lIKr2cLYxDBiC+2oERbdl2kVxrt5Za3ySzx+YqD/3T1Z3xOZwtjozQUoTBjnIDcvGsE4cTsw/rTqJVMIYxMDu0IWzb5jkNeySHYJ4/uXsktZ/FxS2aU+c2S9qgjCYXyPPi9e8GezhfFJgQw/JruG4ZKnSwjbpnIHoZxGUwljHXxQCYe5aVpvD7ehXcL43kUYZ4Gvr1UYb1YAz74NoTLDnCn5a12BUwjjDS+AOwl5U6llDtyHfc4BQQz8R37FaBvx6YFMKYx9664FSFrpm0rbObBLGH+8VlrTNFm10tYujHGSyQIaGoGcdUgd6hqdUhjjGbAl4P2HPBeyeznreqc5d11UUwtj/ZCi6EopV3xuHNeufNjnc05YMILn5dEDbPnBpmnuldTRQxDGWAEP4ktKyRw2zEpnc2BqYeyr1yt2ZP6iqaqo72t+OY5BYsJfnozmEMY67/oC+MUPuFClT3AAMpWwrQefwxT8e2TTNINy3k+1+z/atn1WyW47hHnAG5ufwJEcsnSciH3wfA5hbFwyJW9ffEbwkOdCSpuKp5Dj+L5+JiI+MoVp4mTH5xLGm4nifBG8zwu59onKWgDAZ9jbrtzRIGEsjGYsva1t2wdExBKrcY8Z2w1LhRbVaG41pqE9vQsRDgiOwwVWeOahMpcw3rCOn8hP5MtcuOfZ08YcAVzfL9VRt62jcwrjTR/EIItPFMCvDtZaCPiH2EoIceizi5NyLEwf7F4oYLvAze/ZNA3PNefVGHpd27Zs0ENwYsd8d453VQghlC+PCAU/5wCpHzsuQljtP1mGHy2mPA4iEQpZNLcw1m9aMh8HM5Ib3VpyD34tIp5WkOpUsd61L7PmaG855jAsIEDRYNhBVQ9ZKhFaTkkYCe8tNfr0FUQnYHqZhwTAEBIs/sCIeE6Hlz/l6OjocW3ben4ofaRtW1EIzxjawErek5Yvaw/QkDmas55hHxYpVGltKVyp7NDGQ69SeiYexz6E8YYPwjEpLl9XIHeXil+jqokCFq+LiA+cgOjsM5+jnt2HZnyywxx6hLKrDHsyQbMk8wVBy17khKTBniab/NtGAIS8rdjYugaOf2XRjm85cNbf3LYtM1GvCgQDv7WE16AKQhwzRwDSp6yt12e8tK/HFsctW6TKNSfpkITxZlyA6kW98BkpTLEUenPJ7Pz1UhAXJvFeaN/CeDNo/VCi3SnKhCGlel92P2Fm94sIfwK0ZsQ/j/TbNYyhvw+9q9jPVQboSuyJP9A0DTjDvte+d7dt68r4wa4fO6DnCGTzdLtSgqcv7zJY4TB/ZjFJ2PCQvral0R6iMN7wkALDLOegFKWwj32O76AunxwRihgwD50+EDPmvFcbSxHGJzvNcWGzsDnxyEqvZiedsq8qB7DHvqYY601OH1uRjU6Ldi3uQg6b527Rtne9L838e5qm4ajqwWjuzwAACQ1JREFUmpH3B23bigV1uFxksrZUfHEj+9riSJ4ybZ/QFZvKBskJ5O9dNK9DFsab9WcOzIXbCjQ4+zwrjv6sNU4A/0q5xXKWE77wJfrs80n3zpQCLqPjsquAWbMz0QqBxEDSd00fE7PMa/28gsxPQHGiCDHblGwa0nf9BLIPwWmbU48DkHMG7N4YcBFC5TpN0wiJ+6JzDqr/07btI4o22EUIDBn3Wt9x2G/WFkcfv8V9Suzy0DHZ3IpfcsjRuE7WZ+zT5kUQxif5YS+bC3+qSs3Oby7GxCvbX5ztwHzEB2/qGG7q6fWZj1meXbowPs0E/T3dZ4JaNpbkEpqiyUROPiaADxWTw6Z+2aZNGyU7pfFk/6CMsYcT9vphMWR/c/M945eWqhCjcSpXdMWJgq3Z45xlcc78kbPWFvMG56w1ZS5p0Q5SNn6VpNXHc4s6WVo+Y44vmjDuss/tb6Gx/EvmgZmDssbsZo/703yYn5OUMR+zLMW1CeNZmFI/UjmwRw4QMJzGbllZtM9oiqwxHHw7VRgf/BTXAa6MA/wjMiSzoClphoSxsK1KC+ZAFcYLnpzatQvJAY5FRViHxq6fZho7tmifyQBuLuQsTTDoKownYGptMo0D1qfIGvbB08kCfALCwwibQyIarHT1rPA7IZQbfIVD4tPBjaUK44Ob0oMZECfNzUp4o7DB0yXi311Cxji7OHDGRKcsiWnSomWrZdErS9jYb2U1WNuZhgNVGE/D19rqOA6IN2UzlRSwi15d7KFvOsOTvuvdpf277FNp93CBswgPAUydjibKar+2k8SBKoyTGFmbSeMABDsOLHgGXYmW/KSIeHEJNev63tKek6oO6Swz+QEWySOXNtDan0s5UIVxXRVL4sDnlTRVQD99iUB+TEnkWasdmRYLnyUTPrMK474raU/PV2G8J8bXz17CAQLolwpw0lBkr18tzqo3nErEWAO7JTMQxplobWBf2dtrJMUKVkAVxiuYpAvSRah9T4+ITx45Xg4w13Ka8ppImr9il0B0sugV5XD6nawGazvTcaAK4+l4W1vuxwE4AjA9hmrFJ7/GXMGGLPRtDXSLUrjgLsmdfWJJ+BiDuZLcpdrcNg5UYVzXxlI4ANwbnkcGAel5UDF7LF0QASySIec39lZwknfisAFTVeddxoqaoY0qjGdgcv1EJw5kCmMfhNT1kIh4T6ev7+8hJbDUhLx1chfUOGT2YIevtAIOVGG8gkm6IF3MFsbY9tMR8R0LBtRXSVnq850mmGPwquzQXavITNCF2mQfDlRh3Idb9dkpOTCFMAZtyaGn8C3IyyUR7InvLdl2maFsxghGUmkjGnellXCgCuOVTNQF6OYUwhjbFA14UdGQT2Pd7outiqU+uMQUqw2XTa8qdf+WbqLJHveq26vCeNXTd1CdhzHx5aXcVvbAXNV/oVSP2FXTMPvbp9sDegQISHKH/84mDksmCmW5alGBbO5O2F4VxhMytzbdiwPC2tQgVF1jCgIk9MaI+NKiLU/xjV1t/oOIeFhE3CMihmQZ7mrfv6vzxlZcgYG6cGtBz1RhvKDJuOBdEV/84QmFFPbSFMUzXx4RcydCKBmkOrSY4swQtpPLho38JRHxjUsqtHnB13Xn4Vdh3JlV9cEZOHDXIkygl01J4pDfUipET/kdbYsjBn5EEKvjNqaQ7q6+SgdXyPO9ux6s/748DlRhvLw5ucg9Irg+EhFTOLVO81WVYE7DH4mI50zEdFWnpSRfFhH+e0qS5MFReb9qK56SzdO1XYXxdLytLQ/jwPUi4gNJadG7esBswbmnevcTIuIZu17o+O9/qySd3DQiPnWmsbAVS6deK2JdR9Ye7mNVGB/u3K55ZD8bEXebcQCEsigE2jLzhTJFrvx9Scaf2F72b5VJMnA2uvTBYSKd+ie7PFyfWSYHqjBe5rzUXkVwRu17fYpRfmtEXBERV0YEW7PQuGtGxI1KNRKHhr/vq68OEgfHF9RFs24O7GsBrZtrtfdzcEBiBOHHjlzpbA4QxG+LiFtVBq2fA1UYr38OD3UEnxQRqlQ8Ysbr/pp4SRB/sMQsv3lNHa99PZsDVRjXlbFkDnB+vTYibrnkTu6pb39ZnI4qeVQ6AA5UYXwAk3jgQ5Ay/LqIAKxT6SoO/FUJmbt7ZcjhcKAK48OZy0MeiTRiTrSbHPIge4xN2rhK0pUOiANVGB/QZB7wUKxTacTPj4ibH/A4uwyN2ebOXR6sz6yLA1UYr2u+LnJvpRHfrlRQvs0FZASHHWhMKeMVje0AF0AVxgc4qQc8JEkUBLFCm6pkXBQS7yyt+t4RIe250gFyoArjA5zUAx+SNXvbiHh8SXSYEnhnCaxUoQTW80NLwskS+lT7MAEHqjCegKm1yVk4QEOWtgwRbQ5goVkGdeojb4iIlxfMjI/towP1m/NxoArj+Xhdv5TPAeFu9yy/Q8pCYxN+cUQ8NSJUeWamqHTgHKjC+MAn+AIMD0Ia7RhIzx0j4m+ufMzvKiWinhwR71/5WGr3e3CgCuMezKqPLpoD7Mhib79hpeFvykK9NCL+U0S8PiL+bNHcrp1L50AVxuksrQ3ukQMqhNwhImSmfXVEXGuPfenzabHDnHQ/HxEqOtfQtT7cO5BnqzA+kImsw7gaBwDUsyEr/Ani8lMWyh/1+NiGZdT9drUNL3SWZupWFcYzMbp+Zi8cuEHBHf6yiPjmiPjbe+nF1T8Kp/lNEfHjEfH28oORXOmCc6AK4wu+AC7I8IEN3bhUnlZeyd/npj+PiJ+KCFVM/iQifrdqwnNPwbK/V4Xxsuen9i6XA3+9YFywLSvceXlu85e09r9KKaTnlcy5D0XEhyf+Zm1+pRyownilE1e7PZoDtOPrRMTnRMRjIwIyXBY9OyKeEleVjpJB51edclncPdB2qjA+0Imtw+rMAYVDCWZas/1wjYi4dUTcLCIui4jPLA5ATkA2ZwkYfxERHy1C9t3F+QZzeZOc4d/+tHMP6oOVA3ssoliZXzmwVA5sKjurvaf0k5//R1D7k4ZL4/UD8i4+2A+AT9V+lzqrK+hX1YxXMEm1i5UDlQOHz4EqjA9/jusIKwcqB1bAgf8PGPzGMsM/C44AAAAASUVORK5CYII=;" vertex="1" parent="UEzPUAAOIrF-is8g5C7q-2">
          <mxGeometry x="920" y="243.5" width="75.78" height="111" as="geometry" />
        </mxCell>
        <mxCell id="B8WcgsVvd8YaLCZ8lpms-56" value="You can set up external-dns" style="text;html=1;align=center;verticalAlign=middle;resizable=0;points=[];autosize=1;strokeColor=none;fillColor=none;" vertex="1" parent="UEzPUAAOIrF-is8g5C7q-2">
          <mxGeometry x="780" y="129" width="160" height="20" as="geometry" />
        </mxCell>
        <mxCell id="B8WcgsVvd8YaLCZ8lpms-73" value="" style="endArrow=classic;html=1;rounded=0;entryX=0.566;entryY=0.006;entryDx=0;entryDy=0;entryPerimeter=0;" edge="1" parent="UEzPUAAOIrF-is8g5C7q-2">
          <mxGeometry width="50" height="50" relative="1" as="geometry">
            <mxPoint x="632.52" y="501.48" as="sourcePoint" />
            <mxPoint x="632.5" y="542.5" as="targetPoint" />
            <Array as="points">
              <mxPoint x="633" y="440" />
            </Array>
          </mxGeometry>
        </mxCell>
        <mxCell id="B8WcgsVvd8YaLCZ8lpms-76" value="" style="edgeStyle=elbowEdgeStyle;elbow=vertical;endArrow=classic;html=1;rounded=0;exitX=-0.006;exitY=0.633;exitDx=0;exitDy=0;exitPerimeter=0;entryX=0;entryY=0.5;entryDx=0;entryDy=0;" edge="1" parent="UEzPUAAOIrF-is8g5C7q-2" source="B8WcgsVvd8YaLCZ8lpms-2" target="B8WcgsVvd8YaLCZ8lpms-4">
          <mxGeometry width="50" height="50" relative="1" as="geometry">
            <mxPoint x="330" y="230" as="sourcePoint" />
            <mxPoint x="380" y="193.5" as="targetPoint" />
            <Array as="points">
              <mxPoint x="240" y="380" />
            </Array>
          </mxGeometry>
        </mxCell>
        <mxCell id="B8WcgsVvd8YaLCZ8lpms-77" value="" style="endArrow=classic;html=1;rounded=0;elbow=vertical;exitX=0;exitY=0.5;exitDx=0;exitDy=0;exitPerimeter=0;entryX=1;entryY=0.5;entryDx=0;entryDy=0;entryPerimeter=0;" edge="1" parent="UEzPUAAOIrF-is8g5C7q-2" source="B8WcgsVvd8YaLCZ8lpms-33" target="B8WcgsVvd8YaLCZ8lpms-38">
          <mxGeometry width="50" height="50" relative="1" as="geometry">
            <mxPoint x="770" y="120" as="sourcePoint" />
            <mxPoint x="820" y="70" as="targetPoint" />
          </mxGeometry>
        </mxCell>
        <mxCell id="B8WcgsVvd8YaLCZ8lpms-79" value="" style="endArrow=classic;html=1;rounded=0;elbow=vertical;exitX=0;exitY=0.5;exitDx=0;exitDy=0;exitPerimeter=0;entryX=1;entryY=0.5;entryDx=0;entryDy=0;entryPerimeter=0;" edge="1" parent="UEzPUAAOIrF-is8g5C7q-2">
          <mxGeometry width="50" height="50" relative="1" as="geometry">
            <mxPoint x="710" y="74.5" as="sourcePoint" />
            <mxPoint x="630" y="74.5" as="targetPoint" />
          </mxGeometry>
        </mxCell>
        <mxCell id="B8WcgsVvd8YaLCZ8lpms-78" value="" style="endArrow=classic;html=1;rounded=0;elbow=vertical;exitX=0;exitY=0.5;exitDx=0;exitDy=0;exitPerimeter=0;entryX=1;entryY=0.5;entryDx=0;entryDy=0;entryPerimeter=0;" edge="1" parent="UEzPUAAOIrF-is8g5C7q-2">
          <mxGeometry width="50" height="50" relative="1" as="geometry">
            <mxPoint x="573.75" y="78.5" as="sourcePoint" />
            <mxPoint x="493.75" y="78.5" as="targetPoint" />
          </mxGeometry>
        </mxCell>
        <mxCell id="B8WcgsVvd8YaLCZ8lpms-41" value="K8s nginx-ingress LoadBalancer" style="text;html=1;align=center;verticalAlign=middle;resizable=0;points=[];autosize=1;strokeColor=none;fillColor=none;" vertex="1" parent="UEzPUAAOIrF-is8g5C7q-2">
          <mxGeometry x="350" y="109" width="190" height="20" as="geometry" />
        </mxCell>
        <mxCell id="B8WcgsVvd8YaLCZ8lpms-80" value="" style="endArrow=classic;html=1;rounded=0;entryX=0.153;entryY=0;entryDx=0;entryDy=0;entryPerimeter=0;" edge="1" parent="UEzPUAAOIrF-is8g5C7q-2" target="B8WcgsVvd8YaLCZ8lpms-2">
          <mxGeometry width="50" height="50" relative="1" as="geometry">
            <mxPoint x="464.52" y="122.48000000000002" as="sourcePoint" />
            <mxPoint x="464.5" y="163.5" as="targetPoint" />
            <Array as="points">
              <mxPoint x="464.52" y="122.48000000000002" />
            </Array>
          </mxGeometry>
        </mxCell>
        <mxCell id="B8WcgsVvd8YaLCZ8lpms-81" value="" style="endArrow=classic;html=1;rounded=0;elbow=vertical;exitX=0;exitY=0.5;exitDx=0;exitDy=0;" edge="1" parent="UEzPUAAOIrF-is8g5C7q-2" source="B8WcgsVvd8YaLCZ8lpms-2" target="UEzPUAAOIrF-is8g5C7q-45">
          <mxGeometry width="50" height="50" relative="1" as="geometry">
            <mxPoint x="190" y="170" as="sourcePoint" />
            <mxPoint x="240" y="120" as="targetPoint" />
          </mxGeometry>
        </mxCell>
        <mxCell id="B8WcgsVvd8YaLCZ8lpms-83" value="" style="sketch=0;points=[[0,0,0],[0.25,0,0],[0.5,0,0],[0.75,0,0],[1,0,0],[0,1,0],[0.25,1,0],[0.5,1,0],[0.75,1,0],[1,1,0],[0,0.25,0],[0,0.5,0],[0,0.75,0],[1,0.25,0],[1,0.5,0],[1,0.75,0]];outlineConnect=0;fontColor=#232F3E;gradientColor=#F78E04;gradientDirection=north;fillColor=#D05C17;strokeColor=#ffffff;dashed=0;verticalLabelPosition=bottom;verticalAlign=top;align=center;html=1;fontSize=12;fontStyle=0;aspect=fixed;shape=mxgraph.aws4.resourceIcon;resIcon=mxgraph.aws4.eks;" vertex="1" parent="UEzPUAAOIrF-is8g5C7q-2">
          <mxGeometry x="730" y="169" width="40" height="40" as="geometry" />
        </mxCell>
        <mxCell id="B8WcgsVvd8YaLCZ8lpms-84" value="EKS" style="text;html=1;align=center;verticalAlign=middle;resizable=0;points=[];autosize=1;strokeColor=none;fillColor=none;" vertex="1" parent="UEzPUAAOIrF-is8g5C7q-2">
          <mxGeometry x="730" y="209" width="40" height="20" as="geometry" />
        </mxCell>
        <mxCell id="B8WcgsVvd8YaLCZ8lpms-46" value="Repositories" style="text;html=1;align=center;verticalAlign=middle;resizable=0;points=[];autosize=1;strokeColor=none;fillColor=none;" vertex="1" parent="UEzPUAAOIrF-is8g5C7q-2">
          <mxGeometry x="1150" y="143.5" width="80" height="20" as="geometry" />
        </mxCell>
        <mxCell id="B8WcgsVvd8YaLCZ8lpms-87" value="Amazon Cloudwatch" style="sketch=0;points=[[0,0,0],[0.25,0,0],[0.5,0,0],[0.75,0,0],[1,0,0],[0,1,0],[0.25,1,0],[0.5,1,0],[0.75,1,0],[1,1,0],[0,0.25,0],[0,0.5,0],[0,0.75,0],[1,0.25,0],[1,0.5,0],[1,0.75,0]];points=[[0,0,0],[0.25,0,0],[0.5,0,0],[0.75,0,0],[1,0,0],[0,1,0],[0.25,1,0],[0.5,1,0],[0.75,1,0],[1,1,0],[0,0.25,0],[0,0.5,0],[0,0.75,0],[1,0.25,0],[1,0.5,0],[1,0.75,0]];outlineConnect=0;fontColor=#232F3E;gradientColor=#F34482;gradientDirection=north;fillColor=#BC1356;strokeColor=#ffffff;dashed=0;verticalLabelPosition=bottom;verticalAlign=top;align=center;html=1;fontSize=12;fontStyle=0;aspect=fixed;shape=mxgraph.aws4.resourceIcon;resIcon=mxgraph.aws4.cloudwatch_2;" vertex="1" parent="UEzPUAAOIrF-is8g5C7q-2">
          <mxGeometry x="1172.64" y="475" width="50" height="50" as="geometry" />
        </mxCell>
        <mxCell id="B8WcgsVvd8YaLCZ8lpms-88" value="" style="shape=image;verticalLabelPosition=bottom;labelBackgroundColor=#ffffff;verticalAlign=top;aspect=fixed;imageAspect=0;image=data:image/webp,UklGRuIrAABXRUJQVlA4TNUrAAAv88E2AFWH47aRHEnMP+z1fvfuExET0N+gox3c0U7cajJ3i6wEFSET1lhZo5ppMG3btjTWNlhveiytRWWRGZD5Ldq41xLe+f+Xy3XzD+W/uCTpSru6JNZlZr5mZl9mZmY0XWZmZmbmq4tzz3meHzxH+R1vSNetam8VUBWFsaPKXMqZ05hUmbc029WZ9Ya0o8ozu8UJV4ybiUEzG1C1Y9iAUhrKqy6cGE40Y9jABkuNqnSMmtmkRLXXZWiLu+p2ZlPRFuGoS5dJx7Sh3p0cNNZOdzNbyEw6c6vgVjtqozKcrG7chc1qXYW20o7DiWJc/wOpdtJRi+rcRR51a6gy1oxmtjjVndlo9A1VG95WczecrMwaY6cwbbdheGYes73mVTKqQl1qT9TFncowGUsPezdyxfbF4gQUc4updiZq02pSSxgA4HSib97rZpvZzbZX3V22bdvGXD1NdX/06NrWnlZwfGdebh4gdbpJyV1SMUPNWDFVzEnHaOkXmNmWrllo918SJEly21QDszhIukmtAexgAcp+Wp7//7glJ/9F/iSNbdu2bdu2bdu2bdsz53nOuedOnxrsYi9tO+ndrbqxrbMYLGM829grG53VqZrVVK9ip7dTJ77Vq9gc7WN70FNnGa54w972LvUsU2XbzvhWxXaySmU5VbFt2+iquPfxE9s6sdWr1FOzip0ss52quJexM+Yytp3xdFXsG9zqZYwT2+mqb2zzVzXL2BjP0tPbqdnGtp0sndxl7K7BblYxnti2rfF3OVWxnbsf97KrGEWSJCXXx/XGBcr44gHEFpxIkiRJEVH8+a20GO4/bbL/riBJdpJewKz3DGTK/2VAcM/mWppw3LN5WAacJnIgnf+k8590TrIo7ZiLa6dV6En029gt68iGeUTTPJxlHNo+DmudSg9vnkfpmsdqXSas36ZVbLMJzCL0w4TL4pRjVqEZv3Ebwid6HGg3u1BsYCdt7SJq6oklyxEjFCfEIV4F1fMdxquE6yQoYWMEkuahsTfW6hVbz368mcWi2+FqoLAYp3mdWaQWqvEmVBah+3Gbl8ECYpMrRdsnSVPPvKFPcK+3GsYvo/qLKBGGjTBIjODECDQAg0wNwNjXGMUO9Rdx/DKurxLW840sGn9lbZ5FG9nI+0mK0TrHOfhGqTMHz2zoAFp9+Gck46h8WAb4l++5r1vfbtbEK2ukALdIUEIOvtoGv4BEvg5Hj1/GUqPvpJ2TuOvRdsy2aQmyU9pMVL9WSAH/HhLS9WizGNUpF+Zl66HtcoNb+ZkagElCHDn4SlTSRyXEsTEKjb3Rtk6T/qNiZpFWztiFcFR1foZRIkwv1332DM3f8eRZYhplIWFFsqHRmjo0/EmafmTdjNTTy3ZRKY+8YWHIKgmWIgYzSnRvf9qTuvlakNQrbdI8SVKABr+wRCALX22qNO1grpxWsS9JOpXsnRamVqlmUn/yCWl/lSkHFvjlBoz0Tb4wwiMHrbSB7ezKm1xNrSUyaU2TZ0n3Q82sArM0IVCmxKzn9K8QlAYN9sogBTB6x9T2SZRBL5HJGEWbXSiXIB0PkTRP9RKxPr/5u2jzXrlQjVWi9NpXhCBpJvWnP/OZUao7m6oSIySDRKYGv0jJ9o7SNWG/7hKFTBOUwvYXkinV2zL/A2XJ1CoVglGchu1k+eTWL6K6/oUWxG2DJAU8mX6DLL3/7qwlGmnvd/lBgiIN1SvJ9Z1OlziayvxkyXQWrHE9DbTXKekmkVJfBXU7UmeBJUlBP4meDkkqmQhDXUzUswqNUmQmybbsc3DqJ9lZLkU82c1MErOJlSIRjowwTLHHSJ6lk+p2AM1wVlnvN6LkZkYovt92jtOJ6jZlSPEQGZjVv1w1zo7/kt754goXLlyclUxSu7R7FN+vXiLn0Ta9VCxM9wDwoQ1/QGKESJTS32+qFB3WOiq9TO8W3bLwsiWZKhTOJ/uTxmxb+K6KiExkrNa5xVuWQUt1jDBQuBdlLFjjN7qeoWcJbR69kQIZNNArtTujFcnFW0K6YO3CCA9rM/FjHME8Lp8Ix1qJAiMMkhToR3GyRAPEhnqrCDXlljLD/k1L9qia/Sb6IOXVTsgVIqAqLE4+2IdmSMeYLEc5r0HR6m/hjk+jUBx/Uyv3Jl54FB+HP+1uqG3kgxCeBdDXLL4k6aIcMC9iVzyucK7CuYrn2J4/APjHhQiqrRVhH8NZx5RpaoSCRId1axfxDFLFYSHIdTRb1FdF/Np3rtN1Od48OPEOqObySiADHGOX65cxBwk5RjKnFUIEVg6RdYzbtKRO0SiJiJp6By2v9df2KZ9ZvANHI5inKF8OxijkH8Y23aS9wzRBCUmksqg5aHBYmnAynqB8FUIUr3zAOCbTqSZeqAPhzuE67R6lLd3w61lwaeeEzyzWXF64jbM4fglxMEbwBrfSoCk0qtkHHiwRKypJgeyA8Ry0akhaQA4125hVqFu9TH6HdN9gPUhITqPc2ztKPDmT8ctou3NyLe9cXx+9XX2VUG5EnyRPh3SOMKl+b+aRUyAFn2mi+o3xy5ZF2YVF6cdGN7IMEqnq/kGdzFQwnVw1+8CyctICHzE/wwFX79boO7uxfL7Vy+hSMLVKt3IVUWUD45fxuebkOqUftse20Mvf7noUFWZ9u+kcPAsDhwZJK6fTqXIxmuexCP3Y2Hr24JKkbfgTeu5vAObgm/XtJregITEMGTqZKcyVDyRpv8I5tmdnZ7c9u+LFc1UALLmY9rmO3TKnyFBfcuJVYP076Rx8Czdp+zgpK0n6G/fV3WuAp8H9g14vafNPpt8AFiefD/3gElUmISH+/8Chnu0zAqyrGrc9S80yIBBFABBFEEW1pV3Xow3ObRzDmItr2jqNHSRy3De6kc/LciArJMnXdxjbCHymUaqWbuKEOJK0T7sozQFAH71tgiLSUg0ZUqbpZLqN5U8rTMuGDiDfhUWRoA0oikXiKrBxdZfjtYMFBSt3NFvdN8BMYpU6xbVSlPn2ECxJ8ptYzY8uSWuLMkbrnI+YCAOJSvHL4cbW8/mYjuWdMejIVWRJktNoSHPCoj+6dWnHKkYxzP9EU1+01n13tyLAkqRjQ1u5Xsrwso8FCA3uF7+d1W1LLgky5uSa9g6To1Oe5zFC0U7ZnR1Q56B6hDf3+cSDxjJfM6k/Wddz57jr38niVTBVj5skeTJK1wIAmj57OlOpvkr438+AYoKGtalnFtXwB+G2AHvqa4wRrKUbTJt+Yt/F8E7zFKy9MGTVtIk9Ubww4nRA4SAmMYRP+tKctpWsm79nU2h3kGnc5vn1LIL77u4AxX/t0LqF2/hROIzXuDbxwilnpc/vbrgJYjb+FYgPGYXJ5IpiDqYtmo1v2jqJqUrpOdqfL24iZ06uSpmm1k0+s3GbVnQDahOrhcMGdrIlSJ57iLXppdKhLB1lP3Bq1cbugvTM3daEa+wX4T2qgqXInsPi/mJDvdVQosG3oU+yRdcV5CwMHa1exs+1ge10YcgDUl2NVQ6dT1a8E3YTNCxHjKIsTDe1UixJPFmNJowQOw2AcAOz/qjZ+bbl64ju4K/k/0+r0Nxe1xtZL27cZ08PaB4suK+e7lTA1Z+aSpT67cm1K7tnm0n9uTXS1L3Qw9bAUsMYsgwaFPHKiO7YL34Zb3ahWoJ8ckhDOTa9nDX+ymaQWQx99A5GKGzOK4HHNIo9dYrpKdF2PFOxuydO16NNyNbwWlvY/YO47CCzGrI15hTzsGybZ3GCIpZo0CXPwlCOHjgsRvXtLyZPAhiG8F1zjt068Te90MNgq6Xtl7f8bALN7k61BOMvx6iFbnO0+vC93G0FS8YwomnMQFdRPv9Qsws0l8Wo55BOOZluxzGMfWjsnU6j3ICvN27yOdJSBrc9Mzuo4/AUAcGVg2M3B1tYlHp0OpPdgq6WWHQ+0Wh4G5Hn1eAYo31s4S76YECo6/Gctog6/euwe/VKOLob/0UjEtorElY8Li5u84Ff7ewu7I83FiensFpkCdPKVX4tFVmvNZJpAmJNrt3Wu5c+P4pav02J7+cOY7+ye7UdZliJKJensQyLa/fym5afPt/a1jw85I/bWoWAHBfGODf/Zblhb2AIp9qCR1pTNu/aOIveiJzH6nimnJ/hkVmCja0V16OcNcKgw7lKw/DCA6k4NQEHzffLHluTRY+tyRdw5laK81ajX0BmfWthLAkH3dB2pqNL4zT0iTufrIGce++9t0OiGdouEuKIsghu+TqeSayZfU4vzAPNhUmufW9/9VsPIu0zwB99MCKvpcAQZhGp36ab1ybLwXC2gYKliMdQDoE+NniI5Fmmp0OXIkOHtk/MDgFoChOUYSt5kGqfYajhwvv08KhmyRCuQXuLmqaf+LxsR4F6VqFagnQiOe6GN7NEGKKcfZNuh1tWr7HcJ5ow/Gefz4NGcQcFniJkxUr+DGFTyyVt424jG6Vwv9zAEuRjz+6Us+7rOkwWYHhGD5PrU4+2rz9EbjPw+foc9vYe9sTYe1RDVC9/mb0VNcxgMerRylVMiVtxAf8iDukU69CuaOGWT67dGb3GYI9UHG5Ub48zcj21v/puQLVq9kjJ/VTzR9n3CANmMIl+S5ElZelo5APGaVl+AwTTk5YsS4cRBsmzZDjryGgCPOw9EIRFYAZLF76lgLALLwzZmJgY/xUNmFUeAUH8PKK9vSGIGey0pkRHIx9kRukOwjFh/XKdxAii3DuV7Km/ZvMJvYO62KO0/uO3vdGjqI7j+am2YpCGazNIA2GYiUEjn/NXB9jHaZhBL32tG2UFaeyN+wvIHzb1zGlP5NZbRe3PF4tTTjZnBeyRVMOV3vZcDOaY/ngxmN0Qf08SZh8QIbKCh5Yoaf08np9hBWR6md4fLbf4n7m4hs2PRBMAmDLA/vicUUNg1uX4qG3Shbn7plnEsb1LBDCChSDf9kmqpWQVIZlFZFq8iRwosW7lmr8Qi7G0sj8+SrgjgQsf//hyU1a8h2EsuaDsWnHNHtTl+DGsYDah+Tk9LeYCMrPYtHAb0eJwpnGbNgYT5oIejx8GaAxyK/YuRHtdUe19fD78QgwLYEZ4qyPScrz5mFZAppNr6hljFBr6IiMYZwYvPT5OE9f/jtmSBHC3OaQt5jCU2wCRa0UEVjB+43otWk72wQIyqW5NmSY6ShIj5L+uwVpqV8OOG9t5aUV0bYpxkeNCvKMIskLZvTAwRmO0L2fVS3RqpABvKyCjdE23KEt7HLrOQOGOtaPL8d1x0eXCuGMFuRkrDZDqwsdHGDaoRbawPWruc0hXL2D+b7/1VkOJlpWPwNb8vr+LO4Ew1JYbO/6uyH2rAxB2XYJYc0cyaqQO53LhWAQ6OpotSyoXzKuRjC61sUEmfxGItSuU4dqMGUbtGlNkKC36nc3FtYIxO1+nThE9NfVVwn7jPVNLq/ZXXyTBfUWC4G5JkSxegFG5IBir43tgCyOZRmq0v71ToTjgsFaZQaIPA0R7lrIrdyLl2RUu5HHP424G5NIEyHxxsdKw8CFaZMvuf5YBh0Csup79zBTzFRKMnxEP6pKHSO6FML3rehp5Rk5tCu8RVjJbXL9WwBbGbJvJSFKA67hlNdVry3L7Xv6lUAehOfn9c31Ns7rlz8/6xYbO5p8gIw9mOyEG5JGpUJCGwjzCb0AE+55m+nbf0NlUfcFrp8gQN2MEv4kRCr5aKXjd++mqglBiA9u5VtL6mjp8vu9ZDrmzj+l0qh7GPnY33Eh6liOak455fNDZUHUhjpUgiieiGDz8GrCFVyTC98m/BNQzSswn9dzXbny1aPUybvyN5tce/ej6fhPDAYXgJJ4JcWStz3+mp3uFjmeq/uLDj6/1rQA9DDbxy1hLwiDBgZ1loTzEwjzQjGeFfDCcA8GSINAwhYlrV7Kcr+/onQtwdPKxW6+DBYauxponP1TyHKROsRFNUxZ6xm9YtpoyQ8/9DV2N1YMG5egd80PxvtFvKvXW3D23Jsn/WV+DmWh88pyDNBrQ7sBKZiVPv70vUOwvQnl22RMm1+6p0syXqGG4qeVcBL4WYLhpFfsYHWMvf7sBot2lqAnqP9a7jWIYa10J+WNYjqSUTPOPZJzZGSrnOQepfMzV6MJH5i+PVYRIiBrlnjXh5D9H1t02SR6mVK+AVhqKX4J80rMXwGhOnmvjLI5XxkTn895ngoaNneHCPsScY1cYf7uSW+lq+mGrIEKQ5lnztDQU+55aiajY1HKh6J/VTskuqrZu+ZpPpVYMfaHaPgXOUaDAOUhi5YMCWqMZ3pGNBQqE8vN7InpTsyuUW59dAVvU/nwlkZE0T0cyTYrlUc5gLZHw3RvazJ6fqV2xKhcgFabWBGWykVmRrQqdXJ+amVmazST9y6pyoSBUBhFtd0W20HNfV5Pw8tU2zpL5mV6RvEFvf5qjE97drsO56oGYmvM1t+p+/CFCfMxFzKa0kA/Xz459KsseVyAUgZkP2riPmYYlbMEjn4mwkGIVyaT6+Sy+ZG8lIQ7PCExFrd6VT4Ed75hkzgp/uGDDsyRbvmMrc1Q7E+eXLS/y/Y2+Uy1h0eQL+XPF8UGrmEpErJ0iQ56GuVdLmdnsmEzYYwIRzAqF9tv7go9Mla0yo/rgmPtg7c4ijkWGcMDWLhLSzpf329Zp+piKIqjHgYb0bJF1SzfRVCrF3C71QZrMoT4E9Dr4gM+8bIT1pwExxlwmzL1ObI6DtRuqBoaoo5mKFG39Rehkuk5DORXEUI6xAZgQV94NbueXAhartk3ocXaMjZXNiW4nrJZJRPolcOsTyBKGtUlPiVDGCDZC0QBRoRjGa54PSVomRoj+0qy+HjYm865sKh8Ho1BzoJZZ5eMQaFcsYS6uSpajDcCEkAa/SPBWt+C+vsRUKv0SQmsapf76n0uEA/FlcqnSZETTCAxX5uPgVDlQQ7tfDe2z724SRjO8w5IVWd7CGMHEl8JaH+kMLV1HZxBan3rWxDAiv+1Vm6fRvCzDcNRi6IVwGiR2f2ZKnzYXIhJTWJpwGcZ2/W6JeDD9fOvPF1rW5F3ry75eZ5MVMF1mdS6EVaEIkcIk2VinkBpYoq2f7H6kewT6gLOObBwZ/8Wsu8IzQPJ2KPFCde06JFMHLxQIbFEaij/G/ZL3nPNVgLTEXO9VVgXGy2aA5O0LYWMJm8xqkWgp3l6dUJuZpJ+ZBYnAGI3WMXlakN5u6B9WafcoFVzr3k9WcCtLWGv31Ff3wPzfpSAmtASBLjS64a5CZjFoc+aZbepgvYWamccEaTTAHM3Ncf9L2lW27p//B/OLK64quK44rE38QlbCHPIKswot+79226zOYJE7SxDJ1iZzbTNzc3Mzs8CCnCVYAtWiWgQWaSinPLqWjLp/wgGig0IyQSkylJAGYNL9UAtKQIF1SqxWAj8nf9xqdWxDbeU1kchXQc4SJjGbwH7Md6f1mM8g1cqA2quRqQTncTwLBLIBDTBLgwWur22RluPQxUQDGvajmVr9ymoKkI0IDNM8bLueg+TR0m601/ouAGD/iokaHywhPLayXnss01DOoUEYG2GQNuNWzzf6J1AGWNquJihDeu+QRRvWfUPtwpC7bfwSJqL/mEhbcGj+nszF1UoBs1KrlRJQVJ8tQi0C2/RVZwom4I/yKYLSJGhLDmcVyuGXHbIsJbQKBgHzdMBLS4kRgmedvpP9EmSfhuJvIrBeBz6W5FudV37sRWkelEMQGhsmHi0vTHftHiWmBLn5pp54m2fJoVs/T4RW2yfJPxB05Qxu9oFOqVagJLAVmLzARE1Yv56UYMug1QsvXwuC8/U1t+SSGqXMSJZb2YCNevokeaD6vYdoaxiNYd/6i+HRlMUoRtiWOgBGeW0PQKHTHCAzMFJf4UlzC6Pfzk+l69SkqKMlN7KRPQqAshjyHgCNbUG1GJgtry35Q2NERnKaJy9JTIaiA0bEwCHx9DQ644a2CjfSybIZPnVqpQLloYLoqWxm3LqkDgwsWDCbTHlxZBOBlZpZrA51GTdC1qH+Jr4BI7KRAugJcbj2R4ESIRD1OgXN1Ihe9aIIIgBE4IZANTuHSfRrEy8kXgURDvFLaOOr+QdRbm47m6yyliUja6oUHckwASiPeTWnNtna5i0YGKMmqUlioC36GEMEhurKhyQcPBt/5W9Jx4K/7FWCCV/Bd3cASmUwCww0i4iguGOsWV50CSzVGO1zEy+UcLjM6ZcGARV/tRVPwu9rHzgsDwigXCZEUU21qxAjCiLXs1Vf+T73S0TCIj70mlT3LWp/oTw6Udf8z0+aI1tyiVMp3X9jqzowmy1nWYSatcP4jWuLt9wIRURDIgy9ehYKRjBN10mEA9HFlcv/uHxa6U5EmBXMdoC8Zmpgru5yFQuSFp/FdcZsn8mZQrO3fBWRfFunNril63j8xkVZ/7uZ1REyicBezc/QXYxX+U1JhmYfosl0q4aQGWT7e5JkE0yzbmgrnUWklfc/olhk9uf1G028MAeChr5+j8NbJqILZIOm0KxtnrP7JXAYnDxDeuxvF6N6MIFp4rp1O8YoWBNsNPrYvyNpbS6uHSA6uFi74V8zEY7bOI+/BUxmmpdteurvt/LH+G5a/bfnf1mP7P6Y2EAk3mMmsRnaNm77Fqb4pe7PeH8zixWY2PT2j/Gaj2aBPSJ8sb3fy73n3aGPJXj9nu75T7Pml80oVRPXLSMbxm6Hm495vfvF5v20GRLhsN699JOzgAlOC0N2aMd1lUQYwl9Y07d2dHCsRg+zge1so+vFX2y3rbO4mSeWJE/cj+6Ln4pXwd88cGiYk2fBhKfHHMIvz1VfBX++Fn+95PgSlLC7e0n3ksGm+JaktXWLt1F/8f6xwASo7xnCJ75OH2whCSJt1uBz7XdmsTogmAilmY/px2levu1Mvr5a6iUWxiikyND2F4rROue5uOaAYHLUG/gP5RQbX8uaemL36abV922sUjxdWa3WQiuVfbX17+QDRoaSewGTpg6oG8EsexpotnvElGlyFje9Z1SUEQato+fnUVH6mz3Tkbbyf51NNpv3yFmFKghMqIqZVqHGbp0HjLZdjtVfd7wVVtjfSF1+3+te9/Q/MNIamruP3usdOp2q+k32o3Rdp9CuaagOGKo0ETbbBTeMQXAPIJCrLhB4yFCZOiA3Uy6RhuLm5uiT3+mlyZz/ZPdfJ5M5f8nP/5debx62WxgyaSge2Koo6CybjWYBpTycVLSQRWowYShWWLKgdSzFCRmRDeJhMPCerrMKt1l66S6r9PRgsiBzVGFBurzmmbIgCGxWQjM2m1WYKJgUXCxZkDaWEoCpnzWR3KIIACYJKqL+EJUuOmNpHdJHCJSbWilzsxL7zdaZe0KMsCAevGcKeCYA1HkPmyihWwgEikWL8VYHIDBJ/Pef3CMPMe1PGJKKgR9XQecMCqVh8cc7OTnpnOYEgQkCudg4II+IqfVox5JIeUgbyjzum7GnRtWqVcEkodrFRgEtkGYpvnQLpwDF0oI8aP1pIHdHkoVYX5+U04R5QaDoY1Jak2p/cO4PpdNH++8Bmcx9xeZEcndYYx40YRNMuTsbDIZieMIEzRqlU8zVYLgzHcWK0SSO5KKiXWtsGUfBFijPyJm+lpeNje0EXIqCGF6rUiwV32UkYS6zdiedTqVzOm/6RQDATET1PWmekhR8X1qZl62FShDZLO0k86lz8tsrgFjsnFViL3uUTHJKXTa2SpWrAjhHRsubGJHeZCnkygumtzJnuRoAYkWZ1Upbbr2KjkNuYajCcfge5yVhRVEV3p4D2fjX+dUQ9yk3UAkBQca3aHUVyky0s1dVzk4tE0iYj91reDQq/4ifyFRJh3wnlQA4NrYse7QTCEMlORK3+enempNVuA02Sxx+WTnnJMILOGZ0OKN+Xjq5qWcCgJpWcrQKbSuSMjkdnf28jCMbpsjTJMQEkTTrzIVRnkOsl1AesZUkk4y9qhyx0kXLOQoJTpkQTVKcHx2/4sKTyM4vodsvJO9SXvlUDCMDBkjn5JpckefMELlIt5QCxRAOIB5G5UgiYlQ1AMTqZD45QQukk2XITCuEZBAFomJ0NIqa0TMaGpmfYz4tyBKyLSP4TXvkmBySJ6ohF0ZG7s8ZedzvvHopAq3ubMCxWZkiASAcMaqio3XERJ/ivHLt008EqITcDDmpqFDdJiNi9+HNIzdyqxKtQ1NMaELBuZyS0xKPHR8VH+SyJ5vIME5TZH2joWQM/2i/0FF5ocZyWaijuRt7dGZeRRQdz4mm/UZWi925KMjgH+TdppynF2TP7aciY1wQoK6EPQy/cvjlvjPAVWtFE6OqYhBFKLVPnqdMXHQ89lnGAHDnvVZXKS7c18AJIWEZKo4LWWcUJrOC7M2deUNP2Av3GLdysYATZwOA5CiOhCqPxKaW6/ccVeW8vAC4B5JEOBOc3rvNVYGncioyVIfhfRJ+6CKW53B11IEkIigCp5yrdEtuKG835bqcdKLOCUaE7EzWJATiiHh7FY1ywQb4rEAtMjDhS1JsuikFfIliCnAhwRvBXnnbJ0BpryocOKfiPlFPqcp1qPNE5ouiFRhYG5EwMXaxi4kwAYZC50jQQecOk4OsSRrtZ9A+xcJcrgF3poYA4SgcsCZLcT2VAbR0VJyCW1sArTIk3AYQClchnKbnVqvcXoDSM1WKC8yjuib2RjvukHAREECdbcizQ7a2QJGsYSi+0kmeHSXQl+vL5dlSJGvKxRnqa/WzlYuPpOSQOFwig8Zjy55yNZ3njmKoFf0F1iqhhEHoiy7RatfP3vTlakltlcsmkdOq1mVHd9WRSYea0/HqE4LLAgI/Xs3A4ExDVR2HvQJGpQmohD/BrMsOIJ6XKE0A5RUXmB0mBrpFeEQeyy8pC8Aiws+gESyCRzKACYXIQBE/9AHAagw44l6DYXA0MismYU78j0GxOIAfh8wgaDk8JgWR/ZoPiW0NlvkoJUgqokPwDJqWw2IcWAQA1BmVJv4kZ0WQ8ZnbmH9KoPMaozGMkSGhrTajs/okKK9h28EhSEaC18tp4oLtiVueTgsoqWFfts9mu3q6pG2O3bZ9tpARNdYLMphI/AsV8zS4uhY18OdcDZz6oXoDBBVF3MbJ0VvEbrIoWJ0w8eRMgDe+QaMyIDZcV8VRTMcNiqTOAIxB+51vTB9QZP4OOAd0LvOxw0U6qObwkiIxmVccvcOO4ziF+2xpkTQRg1+osZdMy0KjC+RUKmZVsRMK8RkKbqEcHiI1E/u+hherMnCYnMoRN2lfkAQA1uYny2dQFIY76pBoBF8xz0Boy2GpOKfoA1pAl7YFLjfoGDkNx7qqQJkaKS0VHHL2Ohe0MMrrrQ1aVxU6acuW03FPCo7jNNiL4vRlb5Ce9xeaQlfl7QYQ7BX41NDxkrW4betlKeC+ST8sVVV4yuC3PjoDwJ1VZBVVzKj4YOgvGTT2g/uFGjwlz7okP/EoXcJUBVCc8xw0SxiB5zWa82ZglMhhh0V35SuJfY4hpOKSdxil+SL7qWII4bnfrY2SqQUEwRE65njBUUcY3fyTI4zGL+jSsBrF/2j41+xWQ5XJOkAvRTubBrymSkNYgeU1uodImyJhQMELVRRESQQuiudJuBBR+gNGwxOBIbwKpyN7T7Mc/amdy3I4L4rVERhUhJ7TU1CeQzmCYxkBUBn4zcvqIv7kg+JDBp5H8Vh+QGoH1OAFCSoMHCcvLPrgECfrYZBftGf0Sc5wqMhzgWgxIlFCj6CBxsAHfQoJIq8n2PKBvVDwSKyZp2zDIbLIOu3sdl6DyPnEzFBnCFidR1IQ5Fd1uikmChpUaCZ9onIUBEn5HxkEgNIv/p0ohNKX3k8Wed0RHR4gLBgQ5t+roVzRZRJeET5EwieyyLbbWxVMeFyZweRk9Kkc34ACHbfmkAVXDrcBbKhFTRlFoEOQk6BrgOJC/kmSPpIcKI88G4kBDbKLD4DbCE41jOZTLApuckzKI//GeyG2pv3xQAzb6GePrGyVHo8oeKbNH1n5N2s8Okl/CABdrOJhiL05w5EzttCAPDrKuAHKRcTN6zKoW3kNGUSddIvO7zdHriFK6bGo8R2ZGRw+GiyUoOpMyzpyap4AwCLnAQ8unYzplTTIW5/QIpRGgxcI6yUObooIsP0QiUDVFpUrWXDl1EMnvOVzUlOLoLoLFMJVhB+Qn8ICayNyJm9JYg+/qWo8CkTV5VpAx1o5bp1yOcSCcyGP4VINAMlyLAR1A4Q+DWulLAAw9I4CslbiJQBkYvkKyO72mQBfVxG87jwBwKpdFbKW5QC/ESk/VgIA/S4FmwGAZwas8pG1mDrhyEt/GHK7XS8ApIL2E+Igow7ppMNyNMRaRQCgnrgd12hlt6eRvYsquj40VblldSALwF1swO7ZIymoSHbED1cVanF2zrvU4RffRnH5P6yYp0KQaL4TA4GOuyV9pZMChc2kDFoJ/osg57FaQJf3lECUoIWEcVuFgCglsIS1niqgBtPGyL+zMaVSuQjbI0F+j3UCTOkFDBpHJy3XC0QgjhCSIuACrpAnxmFjEUrl1tPG6hhc4b7UUnnmQUpGg/cq9QHMbDl5frEFNcjq1h1VVUIyOvJ2OWQBMpJtL2roKHgDFVl1qeUoSEDs/Q5DVlFVxRQCT8NwgvXJAR1pIkjQlkv3SFC1RzlNJwkyVuI3ur9eWc4HrRG29JTIJ/+XQPLwmBwSi7O66U19tfG45Vg8qrc0lFpkZHgyihQ88FgFIaTzvuGmN/2Jj7wuwfItG0p3ddSy8zAehxUpznCBZ4JsJpxbRHsR4cc/i0oayjuSHMKL5R0pyOSEsgRIM4IERHM2IwavSEcFhtEbjH70o1fkvdugMFwQxwQOyjMP8hzk/BbQTI4gqxcbJfubgZbMWtcgMvsuv/x9r1Cl0ex//GvTrnqdcIjIrVBUZvmcRtMcBca1SWfoRfybVd1fdxMzCxhLeo/sdcg8q5OBfFS5Amkoyq2mlbwA7YUq/1eF+z6y4962YGF1rsGKaHIrMM+/Miv3ff4xjnGMEqu3CiBJYKC04yCIml3RxYacw9XMlYztPpb7sk7PzHyntt2EiNjwUGJlWvmblAOA14dmvfg3b4+7f/nGb4iZh5fNdf28n3YZHJ63ceTiDMTBK6cjvtVncHKk4qoqbrWuimlRChYgmvcxIEeVo+JCa/J/CdAjBUO7z0HVeOhKJMh8pyxtOnjnS0ZS6J1/Q09SLEQtJlonrbJ4JEJ4OLhYmVNKC2qIkLYIkzdtrd/mJQFIha+vPHCW3gQZtJ0l6ctiZ+CfUztvbqSZKnw3fl5AHMCTb62YyMvl6RzpgEjsKbkFwBHpKAwqDnvlX62JORmowLzAFSXQ8gLsCpHbbYZGE6QIalZ1Z21K0/JVIb8ckBQxx5XWb0aPaB87CRKzOMppKHfuK126mNIepvQSAKgzGRvWUJHZjFlZ3c+ap+gqzld1dTXkLo86Jx4pAnkAiEV0udyrZ3ju8rKUPSViJn5dLH2UNwhfztlP5+goZICcPI9OVUqFh+eO5Z70V2T+T/oB7KbTyG63XsqRzREsvzeL0Cb57EaCuPg9SNYrSlXS2q+7jkXNzN4j5vAAMDk7hF38DihmxcxxZo+64UFo+3o0/Rwej5UPyGanQ/Z10elUKlzXR4oA8Gwov1y3tAGWw/sUNEAmJ7xrxYbPamPwnsETFHqRXIj6iSuQtDs8gTZBtLDFIn86s5Q6wtSD1kYNjsUgdxi1lOT7MkZsYnbrBQDDhGzqMZhI1xZPkDlvkQA99J8GSFPv4nUFDG+QJQGU/qg1iFXMUUY33xe9DXEHt/IAQBWgBvomCVSQd6UTOMBb47rqpr0BiuCRDNXkvUV7o3US5BqdqLYd2TSHyOd9y8AUhN5psdNW0vCInPQ1GiR6ASgoFSIVKMQdCUjIa3p8uxJ6c6xBn7cxAPncCBLea+0vv9cgocvKTAuIegcpOlCtDgkSu3WArKaKivDuFnLQ7gCKnQLPKXLSAc46PLFOggUAw20IOmZGp40BMnw1zxOCSAjP3DB+graBWXMCT3hEJCwrRGVqgNEErn0TJMTWcaUDQ5o0UzEhiFgxyzUJbmYDgPN/1kciIZ0mQmtXRQdXvCEj1nDCb/c0apDZhOdU4afSA0aVCDKFRP3kVX5iJKJf/TmJEvtehuq4d3eYGjoEfvhmoBq1IHrFqnDbP64xEJqvs4Kujc1rZb+d1wh/XxNwlf0tdhSMIAjEzum6CJTIoNCo2k8roS+sRlVFCqTMTiWoLNJWE3ZsWHooCMLDWGvXNZ04AQC61lqWEQT+olBD95onQXfhNdDmdI1LFgadvAdEqfc1CiIIQhPE2g+7Azc+HwC8Hv9FeEEQiMmUtsGUzHyQtiTkDfSoUgRiq/NxGsh0lrss8ioGXfUyXoAjljg77HpZxIQq52G84LzcznqoM/2A1eqnUCGmKvHaKyo0IiD0DBqryL8TqANOXc5wACeF0CpzJjPzTr3SinKn1k3comVEHY/XQkSj+zHxQL+MlkWKTQovV82qJkKrdAom1azqc8uinK2fJquyOz9aWZnS/NNMTExmZjoctAHo6eFhyqnGpDc/hsZqsmiyqvHQBnPMuxoTN10qHvrKk0j5y/FXY7KZkppOxYCrh9vVOKrxVMFZDyEqmKtmVRGCVklGjN5OVo1JNSbrLzEdA5mPp3OsX2Rk5GXLvUENIlPpK1YsV9EViFQqNmfGfZ7Cr4yrCACHkfmr5clxWkvmtJwBCHTVMn6nKJ0xZyXOPquGd7mKtZwzcap7rYoyoY1OqFVGlTdsVCcKUayx1yrV97nPU1zW+84A4FUqfcVyZQSnHekzPepsSOt3tjEzOjpHBpSOnC519gviGY0ZnfqKNKRkTh2d+jZEe5MWQVWgL2H8JCpM8hT4A/XprA1AvfX6dOr7gJqyNjOiOpuScJBFfTqSP8Ec4pSvVFK16eiYaYeE0nTq228u3Z/ziGLa9O1AJnKl8590/nNvUCDes3nwMqEX6fwnXVIAAA==;" vertex="1" parent="UEzPUAAOIrF-is8g5C7q-2">
          <mxGeometry x="1260" y="475" width="160" height="70.4" as="geometry" />
        </mxCell>
        <mxCell id="B8WcgsVvd8YaLCZ8lpms-45" value="Monitoring" style="text;html=1;align=center;verticalAlign=middle;resizable=0;points=[];autosize=1;strokeColor=none;fillColor=none;" vertex="1" parent="UEzPUAAOIrF-is8g5C7q-2">
          <mxGeometry x="1040" y="440" width="70" height="20" as="geometry" />
        </mxCell>
        <mxCell id="B8WcgsVvd8YaLCZ8lpms-89" value="HPA" style="shape=image;verticalLabelPosition=bottom;labelBackgroundColor=#ffffff;verticalAlign=top;aspect=fixed;imageAspect=0;image=data:image/png,iVBORw0KGgoAAAANSUhEUgAAAFYAAABXCAYAAACeCrJSAAABQWlDQ1BJQ0MgUHJvZmlsZQAAKJFjYGASSCwoyGFhYGDIzSspCnJ3UoiIjFJgf8bAw8DPwMcgz2CdmFxc4BgQ4ANUwgCjUcG3awyMIPqyLsgssYhyl+R9N01Xl7IWG0ek5WGqRwFcKanFyUD6DxAnJRcUlTAwMCYA2crlJQUgdguQLVIEdBSQPQPEToew14DYSRD2AbCakCBnIPsKkC2QnJGYAmQ/AbJ1kpDE05HYUHtBgMPZyNzN2NKAgFNJByWpFSUg2jm/oLIoMz2jRMERGEKpCp55yXo6CkYGRkYMDKDwhqj+fAMcjoxiHAix1B0MDCbNQMGbCLHsdwwMexYxMPC9Q4ip6gP5txkYDqUVJBYlwh3A+I2lOM3YCMLm3s7AwDrt///P4QwM7JoMDH+v////e/v//3+XMTAw32JgOPANAByBXn16gPoaAAAAVmVYSWZNTQAqAAAACAABh2kABAAAAAEAAAAaAAAAAAADkoYABwAAABIAAABEoAIABAAAAAEAAABWoAMABAAAAAEAAABXAAAAAEFTQ0lJAAAAU2NyZWVuc2hvdGw1vGEAAAHUaVRYdFhNTDpjb20uYWRvYmUueG1wAAAAAAA8eDp4bXBtZXRhIHhtbG5zOng9ImFkb2JlOm5zOm1ldGEvIiB4OnhtcHRrPSJYTVAgQ29yZSA1LjQuMCI+CiAgIDxyZGY6UkRGIHhtbG5zOnJkZj0iaHR0cDovL3d3dy53My5vcmcvMTk5OS8wMi8yMi1yZGYtc3ludGF4LW5zIyI+CiAgICAgIDxyZGY6RGVzY3JpcHRpb24gcmRmOmFib3V0PSIiCiAgICAgICAgICAgIHhtbG5zOmV4aWY9Imh0dHA6Ly9ucy5hZG9iZS5jb20vZXhpZi8xLjAvIj4KICAgICAgICAgPGV4aWY6UGl4ZWxYRGltZW5zaW9uPjg2PC9leGlmOlBpeGVsWERpbWVuc2lvbj4KICAgICAgICAgPGV4aWY6VXNlckNvbW1lbnQ+U2NyZWVuc2hvdDwvZXhpZjpVc2VyQ29tbWVudD4KICAgICAgICAgPGV4aWY6UGl4ZWxZRGltZW5zaW9uPjg3PC9leGlmOlBpeGVsWURpbWVuc2lvbj4KICAgICAgPC9yZGY6RGVzY3JpcHRpb24+CiAgIDwvcmRmOlJERj4KPC94OnhtcG1ldGE+CjmnFZ8AAA6hSURBVHgB7V0JeBTlGf6STTa7m2zuhFwCIlgjWB/wQAIeVEURj3pUqQp4AEXwQqVorYjWRwoWoVrlKWoVbVWw0daiVGkfDxTUoiAKiCiiBAwQkpBkk002Cf3emfyT2cnszuxmNrs5vueZzOwc//HO93/X//2TuIrq2iPUR5YjEG95iX0FSgj0ARshRkiIULmWFZtkTyB7Am+JclNbW1vJ29TMm4+OHIldKRYXqzIWgLqS7BQfH3hQNTK49Y0+AtixRjHHsVpAD3ua6fX1tfSfzzxUU99KZ49w0bgRyXTsUU5KsidKWywCHBMcGxcXRw4GyZmUSDgGHaz20dLSQ/Ta+jpdZiw+yk6/uz6Hjh/gVK4D4EZfM/maW5Rz0TqIKrB6gO6v8tHiv1fQ6o88pjAZUphID12fS0MHOii+7aUA2IbGpqgCHBVgITed0jBOUDh0Z5mXlq2uon//zxygWtRz0mz04JQcOv2EZJbLMtdHE+AuBRaAuni4QzYK+mpPA933XAVt3d0oTnVqn5lqowcmZ9PYE1MUgJtbYEk0USNbE11FXQKsHqDbvmdAnz1I2/c0RaSv6Sk2mntlJo0f6WZzTbYsYD3Us4joCoAjCmxigo0Vkp2wB7Wy3bl+q4ceWXWIdu71RQRQbaGQCndPzKIrz0xjW9gf4CZfS8Rs4YgA2wHQ1iO07gsP3bfiIFUcjp7GnvOLTLr67HRKagMYDkYD28GRcDYsBRbeEcwmwaG+5lZ6b4uH5r9QQZU10QNUy8WTzkmlGRdlUkaKbMZHAmBLgNUa9U0MaOm6w/Twi5XUwtwaq3TVWW66+ZJMykqVlSkAbmI72ApvrlPAagFt9LXSqncP08KVh1iexiqcHdt12Rg3TZuQTgNyk5SLnfXmQgZWGPUO9uWFHw+3s3RdDf3hlUqlYd3xYGSxg+Zdk01H5zuU5ocLcEjAQna6XQ7FqK+qbaYn/1VJf/tvjdKQnnAwYkgSzZ+cQ4ML2gH2spLzeM3b2qaBhVGf4pSHSr23hRa8VEGlH9T2BBwD9mHoQDstmpqrcDA8uRpPQ8D71RdMAYvhn+F2SZy650AjXTyvjIMd3UiIqnscxvGCG7Lp4pI0qf91DY3sYBjb4IGDnaoGQEkBXGj78b/Z06tABQz3/KWCNn1TLyECl9wMmYrHIoIPeo1NqFC1/XXj0inZaer9mWmvZfesereGDh42Hzu499kKWvMwAjzx0mYUXDcFrDD4F6wMXetfd1465aabqsYy0MwU9M5mT0jAfr/fR5W1Psp0J1KCLZ6aDGYtDFlJgOphhdXUi+Sq3sv56gfZKki0ybEPvXvEOUNgbfx2QN/9aN7UEIX3tP17W2Q5m9AWVArWP0NgxdvZsN2cmRGsss5c27rbSx98WU8tLdGzRla+J5uXEAVGZCj8hChY+6n8towKtOp6ZW0Lrd9WTxu28ratgcqrZEWTmBBHJce7aNTxTmk/uNBuVZWG5UAUwoZ3OWxSoCnY3FpQYKEBYWYhSvWlRRH+YK3/9OsGwshYz2Bu/tare6uv+YgUMUPUDHRUTiKVDHXxJgOd7DDmJt2CTZ7cxSJx2NGuzgEruHVvhbFBbLJdfrftO9QsgShxJnPlYU/oocU9B320kgM/2EAjj3PSKADNXD1sYHtQxa/iTvzYsksGNsFAgQXlWCFft/+gzz3htA9yUnDljj3WK8SPv2ogbJg6h5kHbh5V7KSLRrnDaW6HZ1Z/XMfB8gzJ5OpwUXUiKLDCInhro3n5WpSdSGUqDtdmAY0Z5iJsG3joQnaCW7d9by3AeZkMqJDDDGwGz38FI22bg927+dtGSTQm8jwalBgmKvUoILCQrXgQwV9koZihy8akShxy15/Lldu5GD9a8XY1l0nSfXdckUV3UBbtr2ZFxXNhEtAsX6G4QiHUAa4sGZosKbXi/rIIwDTQ+2wifchlLprWL2CRJwxK4nmxbLp9WTkDZWx1HKxupoJsO8HsChlYIV+r61pMubETx6bRvGtzaM0n+pkr6l4tWlUh/SxixTOaOXc0c9X4U9x06ehU6fznrLhkceGhjV/ri6FB+XbZMmgb6g67rLQ2feOlP/2zUgIT5YAgd43oZ8OTafnsApqxdB/HRIKDu2WXVwY2HiNBX/8E5Fhhq5mRr9MnZNDtl2UZtb3D9TJJ8UD5yPFcyEOAjP2MCzOkrbahVVJwABrzZsLMGtBPDobA30eSBywJcGYVM0K4dBpz/TN3FtC0Jft4gjEwuGt5BJ9/aipbBoEtkCDAynLp/S+Cy1cMocnnpofbF7/nAA42UFG2rHgA9OknuOi8k1OUez/b6aXXN9RKQIJ7rKSTjnXSs3MKadqj+6iOX6oevbXRQ4v5QrCATMB4bFaa3JGTZ37Lk2v6bw9DHyIgFIKMXbhSFgWhPLf6of6E4V9y2y6qrtPvcKDyIAoAVii0o6yJJi8so1rOcNSjD5cO5Bh1Al/3ShOQ2nt0eVnI1/rGFl1QoSyQiBYqqNrKw/mdlhxcw4dTpt4zPymy04v3FBFSlvRImIrCJNXeowusMLP0Ai/ILHl0Rh7BAujpdEyBnV6+t0g37Pk+J6CABFZaLHSBFW8BCkNNCbY4emxWvp+8U1/vicewcV9icPPZNlbTmk9kYMXoVl/DsT6wbWGxdzb5K66p4zMIZklvI4D6xC35ft2G7Q1RCdIDtwOwMLPgHMDw3cRehpqeXlMlBUDU53rD8X6OrN32ZLvTI/q8u1zGxxSwtrbgwgH2LrQEr+Tmx8t7FbgA9ZoFZYRgj5Y+54AMyMZRQC11OCPkayD7ELlYANesm6utsDv9RvQNoGKvR29wQAZkimOFNwHvIhAB3NnLfuzR4BqBCmw+29nIS6GOSKJTeKoCMz9VB9kq8rHeNohoIahz6xM/0iPT+9EEzpoWhJDdstfbZ3OXzMwzjC6JZ7tyf/+KA4SZV9Ap7EDMujhTqf6HAz6asmgvQQwYERaj5GfZ2ezyD8j4AStYuqqu2XT65a+f2i+9sQtOlT01+POf7Gg30xDxj0XayqFKEa7M4oUhgiBLMfwPmczn3fKdVwIWIpQDiqIYf3NLyFfhVSh3BTlACHDO8nJ600RUC8UMKUqikcWuICVaewmx2XGqOEOw0r8rb6KrHzYPKspCqBMkRKj0g//4cazwIoRXIW4y2gtwfc39eCGFJgCrebhEmgR00tsb6+ipN6sInBMJcjttdOP4dJp2QQaPKOMaAOq1C/aGHB0rXVfHmYn9JBEKUYr4NcgPWCEK1nwcWHEFaiLKu+eZ/VIkSn1PWz3qU9IxuAgb8moBMOSaVQQwp/LmDpLapE6V2l3uo0m/Dx1UtBeKvJpFZzqn3QM/ZISDFGAFqA3sTcCrCJfWacKMRtxy+emphG3F2moJ4M6sVUBQCKBq3U+9vrStsZMubW/LcNG7z8y5HWWNHExnYFnOBgQWQyIaNIVjuhPPSqOnmXvBwUZRfHUbLzzNTVN52B/L8jsa9Ckr65HHJfsFZBSOFd6DWW0YiQ4kJcbRLF5sMXFsqgTu82vlKe1AdZ11YrLEocMHt2deB7o3kuf3VsjDX4x61KUAC8EL4tyMqFNWagJP7uXQL8emSwC/+oF/Kv5JQxwSoGf8NDYCQnrzjwqwQpsNyFVORR1gzGtpA+q3/DyLhM0c9Qa2NWD44I4iSIkVNLWt8R/EK0aKYghctB0ZLZiWAcUaqGjTpaPl6Sn1Gl0FWOTVw+8FrbirQNr3/TFGYOHUHGWNLhZAC1KAxYna+gbJwIXvu3x2nrinbx8AgXEnJXPqksytWKqkTp/3E6gIbnu8TdKyozHDUmj6hDRa/kZwzRygTuX0Zk6gyHC3++LKhSgfeLyd09JFOQnS3B+6ARGAdWBq0p3+TnYkkYNXh2AZ/E1/3Mcrt9uDKuqHe+sx8o4/evxoSuY8WTAj1n4J5S8w8RMF4iTYGkm1+MbK0pvyKFcV/RH39Ob9q/cXSaACTOQVaEEFNrrA4gIegDJzJtno5d8Wmgpk4LmeTvOuzeIIneyQyBjpi5SAwMpvQ2bxvEw7PdWnzNjUS2avMEPiHTGqAzFSQGDxgFBmOC4ZmkIzL7ImRwvldTcq7s/raqfJlpKestL2JyiwuBn2rdB4My/J4q8DGadEaivp7r9h1Tw/t5BjrnJaQF2DcSKeIbAABWyPcBiU2WJOL+ptyuz5ufmKsjK7+tsUsAAXq54hGhx2G5XOL+o1yuyR6Tl0TNuHIfTMKmCjR6aBhTLz8BDAHt9QeWFuz3d7rzjDzTPQsmclGEsPRL1zpoHFw+BYVAAaMcRFd/LnlnoqDeXAz/xJuVL3oKzMfKNAjUVIwOJByFp8kBF0/XkZPVKZISf2uTkFISkrCRDVn5CBxbP1HE8QymzJzHzKz4i9WICqjyEf/jUMZaWtJCxgUYiQOfhu4Cvs4qkn57SVdKffi3+VQwPzZM8qFGWl7WPYwKqVGT6O8MLd3V+Z3Xh+Go0/NTxlZRmwKEitzIYPdtHcq7qvMsMi59mXZ0v4hKOsLAUWhamV2aRzM+ic4V2XPqTtTLi/oawem5XXKWWlrTtsUaAuCMoMbxmeWXdUZivvLeQPBtukaJ5Zz0rdf71jS4BFwXB7IRpsrMX+8WD/bqPMlt2aR4W8LlYdzdMDKtRzlgErN0z2zNwuG70yrzDUtnT5/VBWZ/Inp0GYkgJjWEWWAYsGYTINwV9QcX9nTCsztbJC9C5Uz0rqZJA/lgKLejClA7EAmjIuk25grog1GlKUqCgrdXutbKfuZKIVFaQ4Hfz1eHkSuHRdtfTleCvK7WwZmAVYyAFr6AJMPVXX1evOWXW2nogBi1wwfBJVnShWU88p+HqJTp3thYnnYbFA9ov/kQCdAAvASrmqbkbEgBWViKl08TsW9gCzM+6qmT74JWyYeSDUeyBvkXqD5Tpq7g21HCvuB6DY1BkrVpSrV0bEgUWlGHZQEth6C1luFfQW4Iz62QesEUJhXu8DNkzgjB77P4IxUJjD4UIxAAAAAElFTkSuQmCC;" vertex="1" parent="UEzPUAAOIrF-is8g5C7q-2">
          <mxGeometry x="660.46" y="169" width="39.54" height="40" as="geometry" />
        </mxCell>
        <mxCell id="B8WcgsVvd8YaLCZ8lpms-94" value="" style="edgeStyle=isometricEdgeStyle;rounded=0;orthogonalLoop=1;jettySize=auto;html=1;elbow=vertical;entryX=0;entryY=0.5;entryDx=0;entryDy=0;exitX=1;exitY=0.5;exitDx=0;exitDy=0;" edge="1" parent="UEzPUAAOIrF-is8g5C7q-2" source="B8WcgsVvd8YaLCZ8lpms-93" target="B8WcgsVvd8YaLCZ8lpms-89">
          <mxGeometry relative="1" as="geometry">
            <Array as="points" />
          </mxGeometry>
        </mxCell>
        <mxCell id="B8WcgsVvd8YaLCZ8lpms-93" value="cronjob" style="shape=image;verticalLabelPosition=bottom;labelBackgroundColor=#ffffff;verticalAlign=top;aspect=fixed;imageAspect=0;image=data:image/png,iVBORw0KGgoAAAANSUhEUgAAAD8AAAA/CAYAAABXXxDfAAABQWlDQ1BJQ0MgUHJvZmlsZQAAKJFjYGASSCwoyGFhYGDIzSspCnJ3UoiIjFJgf8bAw8DPwMcgz2CdmFxc4BgQ4ANUwgCjUcG3awyMIPqyLsgssYhyl+R9N01Xl7IWG0ek5WGqRwFcKanFyUD6DxAnJRcUlTAwMCYA2crlJQUgdguQLVIEdBSQPQPEToew14DYSRD2AbCakCBnIPsKkC2QnJGYAmQ/AbJ1kpDE05HYUHtBgMPZyNzN2NKAgFNJByWpFSUg2jm/oLIoMz2jRMERGEKpCp55yXo6CkYGRkYMDKDwhqj+fAMcjoxiHAix1B0MDCbNQMGbCLHsdwwMexYxMPC9Q4ip6gP5txkYDqUVJBYlwh3A+I2lOM3YCMLm3s7AwDrt///P4QwM7JoMDH+v////e/v//3+XMTAw32JgOPANAByBXn16gPoaAAAAVmVYSWZNTQAqAAAACAABh2kABAAAAAEAAAAaAAAAAAADkoYABwAAABIAAABEoAIABAAAAAEAAAA/oAMABAAAAAEAAAA/AAAAAEFTQ0lJAAAAU2NyZWVuc2hvdBUUw9kAAAHUaVRYdFhNTDpjb20uYWRvYmUueG1wAAAAAAA8eDp4bXBtZXRhIHhtbG5zOng9ImFkb2JlOm5zOm1ldGEvIiB4OnhtcHRrPSJYTVAgQ29yZSA1LjQuMCI+CiAgIDxyZGY6UkRGIHhtbG5zOnJkZj0iaHR0cDovL3d3dy53My5vcmcvMTk5OS8wMi8yMi1yZGYtc3ludGF4LW5zIyI+CiAgICAgIDxyZGY6RGVzY3JpcHRpb24gcmRmOmFib3V0PSIiCiAgICAgICAgICAgIHhtbG5zOmV4aWY9Imh0dHA6Ly9ucy5hZG9iZS5jb20vZXhpZi8xLjAvIj4KICAgICAgICAgPGV4aWY6UGl4ZWxYRGltZW5zaW9uPjYzPC9leGlmOlBpeGVsWERpbWVuc2lvbj4KICAgICAgICAgPGV4aWY6VXNlckNvbW1lbnQ+U2NyZWVuc2hvdDwvZXhpZjpVc2VyQ29tbWVudD4KICAgICAgICAgPGV4aWY6UGl4ZWxZRGltZW5zaW9uPjYzPC9leGlmOlBpeGVsWURpbWVuc2lvbj4KICAgICAgPC9yZGY6RGVzY3JpcHRpb24+CiAgIDwvcmRmOlJERj4KPC94OnhtcG1ldGE+CtUAPcYAABG4SURBVGgF5VsJlFXlff+/fRneLAzMygiyaBAwSCRUQdCosaKlcW2iYESboiYmnihJ2iTVWFRyXGiFkOaYWMUlVgyFmJoYt8QqjKABYVBwRmBgBmaYYdY3b1/6+31vLrx579773ixgz+n/cOfd5dv++/J9WJIA+X8K9s8S74YjETnWm5DyYqtMKHOe8qV8Jsj/eVefPPVat7y/NyTxWFIcToucN80rN11cJOdP9ZwyIlhOpdi/tSsgT73aKbW7gxKJWcTpELEC1QQULxwV8bhF5s0okMWXFMoCEONkwylB/rW/+GXdm93yXl1QonGLuIG0xZJtahJJiyKC056Q888eJTdfUiQLZpw8IpxU5F/9wC9Pv94t2z4KSixhjHQmh5MgQgiS4AKR5kzzyJIvFcol54zKbDbs55OC/Cvv98q613vkg4/7kYYts0g2p3OtXiOCw5ZMEQE24cuzRo4II4r8y1uBNAzZ9r1BiSet4h4i0plESYJ0oYgIiTD7LI8sBhEu/8LwiTAiyP/2PYj3a12y45MQjBfEexhIx+JJMY48LEp97NakzPoc1AGG8crZvkxa5f08ZOQpxBu29MhzEO8PPwlCqK3iGgbS2oq9bqs4HBZJJLQ3qV+LBV4B7/zBuCRhP2gTrJYEiOCVJRcXyqI5gyfCoJGPxkU2AulnYb131YexMsuIIB0HYlYgeN/SMpl7llcoAelgw7fGo1H51poWCYAAdrygOoShDhYQYeYZHrkBRLjmvML0bqb3eQc5ESC94Z0U0rs/DYnFSk5bhmTIzFZUPcYh40r1l2UFwpQADYg+VYxSt31vWHbsPSrPQhLpHa6em5sI+rNoo/f/0mX966ZO2buPSNvE42JoMpAzGV2G/BhBxGcE4UiGLvQ3PEEEC1QwjOuorHujV5ZfVyJzpxrHCcTCFP7wvl++vaZV9uyPitsFEXdwAcYLNB3sJH9MESGpJPJDqOSyxw7LVngeI8iJ/OObOlQo6nHqU91o4M/yPYnA9fYGrcL1G4Ep8vXIuvY1R/q5bTTE/933bkjpzk+D0tarL6mmyG+DC4vGaE3TrMxJxtUL1TICn8cKA5s/WLHuYCgpdQf0Rd/U4O2AgaNrczn0KZf/MnK31Oi7DYFSNJod6BDpI50xBDlkRu7x2ILJUxhjbfkoIBfpJEimyDe2xMRhp3CcfH2njyesXn8MUaI+sYm0w24Rm9Y41cX0r81ml8ZWiK8OGCLfEUjInsaQMJTUA65P/wsojg7p3BlMWwtobTAlR9Vbiuk7O/KBjw5CfbFYBI4DwBD5XftD0JcEqEzOZ6PJiMys/GcHh7S54qhWGDBTLYbc1ICClkynnPZB+81eivZF99cGSrZ1xKXhcFSmViNHTgND5GuRg7O6UuDOni0UScqyRSVyPsJQRn7pQIns7InLyv9sl87umJKAZX87WmZP8Ug0Q3u0tvc/2yZ9gVTI+qOvj5V5CExUNIeBEyAcAx8S+2BbRO7+xVEJheJ5iz6NdTickNqPA0C+KH2pYog842grojk9fScnZ012ywUGpSY/Frdqg0UtmJw8F3H3fKO2iNMffD6VtFiwmjGFDkWw1s6oSmSKCmwyvswBo2uR6lIbkKbEDcDB9IE+P45Mc/eBENrlgTyZWYfGzJ/1gEIaohIZgB/uJX2BIVDeCNiOUk7tIneX/3sLcveERPrHp0ow05sxySWzzkCo2t/eaDy99zTa+2G8M0GX8w2HI9IGt6LUPbPHCD+/vTsgvX0JCYWTUuyzycRqp5w13gVu2xXSfcGk7D8akZ37wrJ2Q7tSAZcDlBoE2KwJqYfRa0OZfKzvRF9d5LfuQXUV2aoTWZsi9SAmGkzTR4DM6t90IDOzyg2XFcuNFxbJjAmuAZ5CG48S8uGBsDz/py753bu9KnjxmAREWj/+WmFcKH07GgJyaVotUBf53Y1hVTFx6Vj59EGHc//Pz7TJz39zTM6a4pYHl5Yjhzev11M1Zp7uwlWuChf3oX/9wQgMMhlkDtR7Fj9qkeSkI39CBtL6NzSHVTCR9irr1k5baABOGKf0JdHtpcOa33XKzzd0yJzPF8iv/3FcTsTT+/J+HrzMuuXVcs6ZbumDO84HbDabNB0d6JqyON8B/atvoqU3HpRc6OiNqyvT1bHi0toVg4VFnYU442rvjmNbKo5b5NswpKvgBs8EF5+4q1IqS7KWkA8uUjXaLmvvrJQbVzbLASRfuVSAxrsOsQtLAtAyBVllrLd2BuS2x5qBPJIInY0F9qL+eWCByWHutqQD8eU7lpr4y2c3ih9sS+jti6P0lJQnv1ct86cbFxoYwydQymI9L9VTdc/686e6gCx79LAyTWCuIbCwagU+6++tkWmnuVS7LLHfujcgQVUXy8AqbVhy1I/w9xg4zEAm/erAc3dP7Dji7OZHAMO2vLr9CbnifJ8p4uzz8EvHZNF9B+XwsWwXxe8aXAgCXvZFn6nrZVuuOQijtwV7CRpYZ8+aJby2bN6s3jUejQn1wwzIiQjCtSDck+5FH93PdY7DzIrtuAKf14qS88BgQ2+uprao7G2MoK+x+mn9WL31wvAxTjACGr1E0iafwI1rcFzhEqgLh9F7174gKqPGXKfIxyDPVy8okhr4Yj3oAnc3vkN3FFcV2esuKpJxY+3y5H93y2kVDpk50dyyc0wGN6pAaibz/ZOfg2hzSo1LdjWETHWfY+49yIozVTd5IryNxWJwHQHp6Ir2JzP9I+v8kMLcNZk1CduqOkBj+PutfukNCLJCkVsvK5GpNU55AlZ+6nineqfTbciv7PDj0053y04gbwZMcg4gwWmB+o31WcT+wovrxeV2idfrlfWbe5ShcntIbmOS80svdN4IOmHU0sW+LxyXjw+FkWAkZWIFas2DAOUx8mg/uXJgxqbXhRErpfGDegQ7n3eLtbOrU3p7eyUQCEj9IRwWgFWEC9DrO+R3JBYzQUJRQZaNVe8z/9BTcBlezS9lNsh4ZmicC7RgZ0dDGElTQqzhcFgikYhQ7Pc0BaBruYYY/PckhMSNUNmGIMDMKKWPbMc6jiG/WPFCuzTnsPjslxgYv6QPNeDejrTwQGvK6NldLhdieKd0wwM0HoGlt4489vTZVdiFYVTYBleYD3wDdqIduvnCH7vl3V1Bueua0diJMfYS7XmOS0e2c39YAlH4/ZLiEvH5fNLmd4IrzKUhHHkomlnGx5w7HViTK/LapBxbUZ8geswHaCDX3VMtq+6sUJb5u6tb5Ksrm1R8TpXIhD2wKfkA1xYIJqS1E2JfMjqFvBcHYlC0AvIZKzcYkdwkUC/TL77TvvGeEOsXyflnF8j2hqD0meT3qR4n/t4IN7npJzWy+K+L5Y3aPvnJM+1Q0RPfecf4vg4ZHytD+QDdnBNpsSUUCoHRqG9HLHLV/YeksQXbPTlK1aT8xGqXFI+yQloGskHVyhFANzQhM8QiuR62HV1olaMQ43oELmsQ0y88d/CHC15CKsssLvNgwivYUrvz8SMqNshFgGDEKjOnOOTFH40TSzye2gsmATjIXdiXo2FiHGwGjM/ZM5PY7MV3NHCa9qi2IBK3lWnw5iAk/fX3q49/N5snn29/91CzbEVRJFdyE8e+PvH61fIqHHlDnZAJTCqJscgVOOWwdGGR0olstAYug9EXd1c4YfqlvdMQZy/Vtj8RIlFqkYyse7Nr4IBDfHr6jS6FOOcwA7WXjzD7O9eWKsTZNkvBv3fdGPnSuQXQI9ThzMczm8vwG4nigMV97MUO2YKK0XBgG4oTj67vUEXNXOJOu7Bo7ii5bWHJ8SmzkGeo+NAt5TK+ygH/n/X5eMfh3DgRY/cgCvzO2hb5H4jrUOBdbEHxlIYf47CyawT8EoI9mz7RJQ/cXDagWVY+r32tRWp7y8OHYaltiMXzjCC0znn8clHM9Aq8FvnmV0pl6aXFpkhoQzJSpKiv3YjIFIhT5cysUzRulVHIo575wTiZjrwiHQyRZ6MnX++S+59qwwTcHTWbIn3I/O9JgCg2JLgZOgOZ2fULCuU8nLKqQZ3eyZJQGuxvjco7kJL1b/fIdqgLPfIopMdmy2IBI4bxH7m9XL5yXvaBJVPkOffdv2yR9W/5ZZQqFI48ATgH4wRylLszk5CaLkBtj9GdB3MGYHtYFmtsiWLbKVUkqQZxCiExzNDMgi0/TMqtVxbLvTeM4TRZkDOWXbGkXBqao0gXI0gyBhKapFBuDD6PO6c8tkJO8sgYvxEpWn9uQHDLiW1Ujg6GsR95S9fHoIPlawZDjMDKimzyH690qCNnarsK/VnOKsD+PMeaC1fJau83/+2Iak8P4oCkcE4Cx+1Ddjv/HI/88Kul6p3en5zIU6d++vdlcsMDTdITQC3OlgrtiBgXMm2iW05HgeIIuFKHU1pV4AqLBsWjbDhgbJF3UROsQbo5E7l/c3tMndmjyE5G+MoKT1WpQyH+3u4+RYgepMoUb+7SMAUuLLbLX6Fay12c92DkYpAEijKt94zJLplY6ZKt2Ffs9seEhpQECCFury6zykM3j4W9Gqg+6USw3QdIf6F3P6bQLuOA1Kvb/Cr2p7uimH7ty8XyrUWjFVemT/AIXc+F2BRYibN0peAet7ToLn96a4UixLXzisROP4+j59++ulRu/5vRqrB57bxCKS1xyNvb++RM7NbcsahUNiGaK8Q+3aO3V8iEcod8EbZgFvb83kSb8SD2EhRTfMgXzgbxF+IA4p8xJnd9KE92e1LW3FkFA6dfbNFwzMl5rSEDoN1XRmQ16u3kaA0WtARx9z2/bJW/gPKFCHUjCOo9QK4V1aDv/ox7bkl54p4q+QMOIj/yXLvMQWz/+B3lsgklLgs4wnj8+2tbZfoUl6y+o1J+8duU6JOzlKqrLvVBPRJyG6qzPuj4S/eepg4gUz2oRiufbxOWzJ7+QZVcPqdAnv1jj9K1f1o8Jq//tAABzB+WX1Mql872wsUkFfI9qMp+jFp4Efe/wOE4dRa/2/A/KLh4xv6Vo22yGcTx4X4fNkN6kFGV410Ayc12qAlVxB9IqmduKGp6S12fMs4l2/bg7B/GZOVoT1NEJqASxOcPUJBgIMY0eSvmm1ThlhAM3FUX+GTZ5ScCGTPsBoU8J31wKcSw2o6UEMYMeumDaHJhNGAE2gJetMLkEH05Nyb84BBr/QW4uPnIiTkeica2Wj+OQeC3TtQCK1EHiHBs/CsrtiE4Sqi21XifBIEo6tVj7NLUkZDPTXLKv3x9YCCTGk3/b95ir3WvwAIev6NCbsJOSd3BqNwPo7Jxs1/KSmzy+1q/QoSZF/GKQg021fZCh4vhy5NyBXRzFwoJh1oiyiCy0EmkiCj1VxEDzwRa75fR97HbMNfCYhkLw8c2NKDzzvYqsV6Mzc0Ixv3ClALZtKVVVi0rF57YyhfyMniZg/F8rAscfAAnKmrwv6Jmn+FWYr69PqhOVBzrSch+bCE54b4+gl5zk/BiGMJDOFnxs40dynIzQDmIAxCH4QFopVm2eh/BC9XjAtiGV5FhHsE3ngVkX7qzVdjYbEKw44Oa1SE1pprMnOSVtS93yPXzi7AJWZC5VNPnnEGOWe+7YezWvdItXlR7ubXlAbLKz4N79PnkKsVZBTC8AXBvnYhSXOmFuA3OGp8ftmAs1OOe60sxlkV+/KtWtEvFCP1Zt7IPbB+DPVFndNGuz5+Ub1xVIg/iOMtgYdBinz7BiiVl8imiLJ5z9TrpZoCMlmSkcFWizFhBKbfWGd/ISQW4p7jzmarjhz147s1O9Y7ESbXrb8sOaE+i0FAykFk4r0BW3DR4xDnUsDjPAfgfA7/2QLN04YinA/8raqhA9LgzxUMEdKV2ErGfgJljsm0wapWqMVZ54YfjDI+oZ/bLfM7fOmT27H+eXOmUFbeMhYGDxY/BVSGqGcrFJMQGEShw49ARYlz+b4qscTgL2rEUhX0WefgfyoeMOJc/bM5rNPmvLbDML3WohISxOq+RBNoBcpy/FTC4P0Ygc5HOkdLBzDliyHPSbgQ99bABjLq40BEFyCiTHpbAz6iyKwkZ7vgjivxwF3Oq+/8vEFaqHP4z9e4AAAAASUVORK5CYII=;" vertex="1" parent="UEzPUAAOIrF-is8g5C7q-2">
          <mxGeometry x="580" y="170" width="40" height="40" as="geometry" />
        </mxCell>
        <mxCell id="B8WcgsVvd8YaLCZ8lpms-96" value="HPA" style="shape=image;verticalLabelPosition=bottom;labelBackgroundColor=#ffffff;verticalAlign=top;aspect=fixed;imageAspect=0;image=data:image/png,iVBORw0KGgoAAAANSUhEUgAAAFYAAABXCAYAAACeCrJSAAABQWlDQ1BJQ0MgUHJvZmlsZQAAKJFjYGASSCwoyGFhYGDIzSspCnJ3UoiIjFJgf8bAw8DPwMcgz2CdmFxc4BgQ4ANUwgCjUcG3awyMIPqyLsgssYhyl+R9N01Xl7IWG0ek5WGqRwFcKanFyUD6DxAnJRcUlTAwMCYA2crlJQUgdguQLVIEdBSQPQPEToew14DYSRD2AbCakCBnIPsKkC2QnJGYAmQ/AbJ1kpDE05HYUHtBgMPZyNzN2NKAgFNJByWpFSUg2jm/oLIoMz2jRMERGEKpCp55yXo6CkYGRkYMDKDwhqj+fAMcjoxiHAix1B0MDCbNQMGbCLHsdwwMexYxMPC9Q4ip6gP5txkYDqUVJBYlwh3A+I2lOM3YCMLm3s7AwDrt///P4QwM7JoMDH+v////e/v//3+XMTAw32JgOPANAByBXn16gPoaAAAAVmVYSWZNTQAqAAAACAABh2kABAAAAAEAAAAaAAAAAAADkoYABwAAABIAAABEoAIABAAAAAEAAABWoAMABAAAAAEAAABXAAAAAEFTQ0lJAAAAU2NyZWVuc2hvdGw1vGEAAAHUaVRYdFhNTDpjb20uYWRvYmUueG1wAAAAAAA8eDp4bXBtZXRhIHhtbG5zOng9ImFkb2JlOm5zOm1ldGEvIiB4OnhtcHRrPSJYTVAgQ29yZSA1LjQuMCI+CiAgIDxyZGY6UkRGIHhtbG5zOnJkZj0iaHR0cDovL3d3dy53My5vcmcvMTk5OS8wMi8yMi1yZGYtc3ludGF4LW5zIyI+CiAgICAgIDxyZGY6RGVzY3JpcHRpb24gcmRmOmFib3V0PSIiCiAgICAgICAgICAgIHhtbG5zOmV4aWY9Imh0dHA6Ly9ucy5hZG9iZS5jb20vZXhpZi8xLjAvIj4KICAgICAgICAgPGV4aWY6UGl4ZWxYRGltZW5zaW9uPjg2PC9leGlmOlBpeGVsWERpbWVuc2lvbj4KICAgICAgICAgPGV4aWY6VXNlckNvbW1lbnQ+U2NyZWVuc2hvdDwvZXhpZjpVc2VyQ29tbWVudD4KICAgICAgICAgPGV4aWY6UGl4ZWxZRGltZW5zaW9uPjg3PC9leGlmOlBpeGVsWURpbWVuc2lvbj4KICAgICAgPC9yZGY6RGVzY3JpcHRpb24+CiAgIDwvcmRmOlJERj4KPC94OnhtcG1ldGE+CjmnFZ8AAA6hSURBVHgB7V0JeBTlGf6STTa7m2zuhFwCIlgjWB/wQAIeVEURj3pUqQp4AEXwQqVorYjWRwoWoVrlKWoVbVWw0daiVGkfDxTUoiAKiCiiBAwQkpBkk002Cf3emfyT2cnszuxmNrs5vueZzOwc//HO93/X//2TuIrq2iPUR5YjEG95iX0FSgj0ARshRkiIULmWFZtkTyB7Am+JclNbW1vJ29TMm4+OHIldKRYXqzIWgLqS7BQfH3hQNTK49Y0+AtixRjHHsVpAD3ua6fX1tfSfzzxUU99KZ49w0bgRyXTsUU5KsidKWywCHBMcGxcXRw4GyZmUSDgGHaz20dLSQ/Ta+jpdZiw+yk6/uz6Hjh/gVK4D4EZfM/maW5Rz0TqIKrB6gO6v8tHiv1fQ6o88pjAZUphID12fS0MHOii+7aUA2IbGpqgCHBVgITed0jBOUDh0Z5mXlq2uon//zxygWtRz0mz04JQcOv2EZJbLMtdHE+AuBRaAuni4QzYK+mpPA933XAVt3d0oTnVqn5lqowcmZ9PYE1MUgJtbYEk0USNbE11FXQKsHqDbvmdAnz1I2/c0RaSv6Sk2mntlJo0f6WZzTbYsYD3Us4joCoAjCmxigo0Vkp2wB7Wy3bl+q4ceWXWIdu71RQRQbaGQCndPzKIrz0xjW9gf4CZfS8Rs4YgA2wHQ1iO07gsP3bfiIFUcjp7GnvOLTLr67HRKagMYDkYD28GRcDYsBRbeEcwmwaG+5lZ6b4uH5r9QQZU10QNUy8WTzkmlGRdlUkaKbMZHAmBLgNUa9U0MaOm6w/Twi5XUwtwaq3TVWW66+ZJMykqVlSkAbmI72ApvrlPAagFt9LXSqncP08KVh1iexiqcHdt12Rg3TZuQTgNyk5SLnfXmQgZWGPUO9uWFHw+3s3RdDf3hlUqlYd3xYGSxg+Zdk01H5zuU5ocLcEjAQna6XQ7FqK+qbaYn/1VJf/tvjdKQnnAwYkgSzZ+cQ4ML2gH2spLzeM3b2qaBhVGf4pSHSr23hRa8VEGlH9T2BBwD9mHoQDstmpqrcDA8uRpPQ8D71RdMAYvhn+F2SZy650AjXTyvjIMd3UiIqnscxvGCG7Lp4pI0qf91DY3sYBjb4IGDnaoGQEkBXGj78b/Z06tABQz3/KWCNn1TLyECl9wMmYrHIoIPeo1NqFC1/XXj0inZaer9mWmvZfesereGDh42Hzu499kKWvMwAjzx0mYUXDcFrDD4F6wMXetfd1465aabqsYy0MwU9M5mT0jAfr/fR5W1Psp0J1KCLZ6aDGYtDFlJgOphhdXUi+Sq3sv56gfZKki0ybEPvXvEOUNgbfx2QN/9aN7UEIX3tP17W2Q5m9AWVArWP0NgxdvZsN2cmRGsss5c27rbSx98WU8tLdGzRla+J5uXEAVGZCj8hChY+6n8towKtOp6ZW0Lrd9WTxu28ratgcqrZEWTmBBHJce7aNTxTmk/uNBuVZWG5UAUwoZ3OWxSoCnY3FpQYKEBYWYhSvWlRRH+YK3/9OsGwshYz2Bu/tare6uv+YgUMUPUDHRUTiKVDHXxJgOd7DDmJt2CTZ7cxSJx2NGuzgEruHVvhbFBbLJdfrftO9QsgShxJnPlYU/oocU9B320kgM/2EAjj3PSKADNXD1sYHtQxa/iTvzYsksGNsFAgQXlWCFft/+gzz3htA9yUnDljj3WK8SPv2ogbJg6h5kHbh5V7KSLRrnDaW6HZ1Z/XMfB8gzJ5OpwUXUiKLDCInhro3n5WpSdSGUqDtdmAY0Z5iJsG3joQnaCW7d9by3AeZkMqJDDDGwGz38FI22bg927+dtGSTQm8jwalBgmKvUoILCQrXgQwV9koZihy8akShxy15/Lldu5GD9a8XY1l0nSfXdckUV3UBbtr2ZFxXNhEtAsX6G4QiHUAa4sGZosKbXi/rIIwDTQ+2wifchlLprWL2CRJwxK4nmxbLp9WTkDZWx1HKxupoJsO8HsChlYIV+r61pMubETx6bRvGtzaM0n+pkr6l4tWlUh/SxixTOaOXc0c9X4U9x06ehU6fznrLhkceGhjV/ri6FB+XbZMmgb6g67rLQ2feOlP/2zUgIT5YAgd43oZ8OTafnsApqxdB/HRIKDu2WXVwY2HiNBX/8E5Fhhq5mRr9MnZNDtl2UZtb3D9TJJ8UD5yPFcyEOAjP2MCzOkrbahVVJwABrzZsLMGtBPDobA30eSBywJcGYVM0K4dBpz/TN3FtC0Jft4gjEwuGt5BJ9/aipbBoEtkCDAynLp/S+Cy1cMocnnpofbF7/nAA42UFG2rHgA9OknuOi8k1OUez/b6aXXN9RKQIJ7rKSTjnXSs3MKadqj+6iOX6oevbXRQ4v5QrCATMB4bFaa3JGTZ37Lk2v6bw9DHyIgFIKMXbhSFgWhPLf6of6E4V9y2y6qrtPvcKDyIAoAVii0o6yJJi8so1rOcNSjD5cO5Bh1Al/3ShOQ2nt0eVnI1/rGFl1QoSyQiBYqqNrKw/mdlhxcw4dTpt4zPymy04v3FBFSlvRImIrCJNXeowusMLP0Ai/ILHl0Rh7BAujpdEyBnV6+t0g37Pk+J6CABFZaLHSBFW8BCkNNCbY4emxWvp+8U1/vicewcV9icPPZNlbTmk9kYMXoVl/DsT6wbWGxdzb5K66p4zMIZklvI4D6xC35ft2G7Q1RCdIDtwOwMLPgHMDw3cRehpqeXlMlBUDU53rD8X6OrN32ZLvTI/q8u1zGxxSwtrbgwgH2LrQEr+Tmx8t7FbgA9ZoFZYRgj5Y+54AMyMZRQC11OCPkayD7ELlYANesm6utsDv9RvQNoGKvR29wQAZkimOFNwHvIhAB3NnLfuzR4BqBCmw+29nIS6GOSKJTeKoCMz9VB9kq8rHeNohoIahz6xM/0iPT+9EEzpoWhJDdstfbZ3OXzMwzjC6JZ7tyf/+KA4SZV9Ap7EDMujhTqf6HAz6asmgvQQwYERaj5GfZ2ezyD8j4AStYuqqu2XT65a+f2i+9sQtOlT01+POf7Gg30xDxj0XayqFKEa7M4oUhgiBLMfwPmczn3fKdVwIWIpQDiqIYf3NLyFfhVSh3BTlACHDO8nJ600RUC8UMKUqikcWuICVaewmx2XGqOEOw0r8rb6KrHzYPKspCqBMkRKj0g//4cazwIoRXIW4y2gtwfc39eCGFJgCrebhEmgR00tsb6+ipN6sInBMJcjttdOP4dJp2QQaPKOMaAOq1C/aGHB0rXVfHmYn9JBEKUYr4NcgPWCEK1nwcWHEFaiLKu+eZ/VIkSn1PWz3qU9IxuAgb8moBMOSaVQQwp/LmDpLapE6V2l3uo0m/Dx1UtBeKvJpFZzqn3QM/ZISDFGAFqA3sTcCrCJfWacKMRtxy+emphG3F2moJ4M6sVUBQCKBq3U+9vrStsZMubW/LcNG7z8y5HWWNHExnYFnOBgQWQyIaNIVjuhPPSqOnmXvBwUZRfHUbLzzNTVN52B/L8jsa9Ckr65HHJfsFZBSOFd6DWW0YiQ4kJcbRLF5sMXFsqgTu82vlKe1AdZ11YrLEocMHt2deB7o3kuf3VsjDX4x61KUAC8EL4tyMqFNWagJP7uXQL8emSwC/+oF/Kv5JQxwSoGf8NDYCQnrzjwqwQpsNyFVORR1gzGtpA+q3/DyLhM0c9Qa2NWD44I4iSIkVNLWt8R/EK0aKYghctB0ZLZiWAcUaqGjTpaPl6Sn1Gl0FWOTVw+8FrbirQNr3/TFGYOHUHGWNLhZAC1KAxYna+gbJwIXvu3x2nrinbx8AgXEnJXPqksytWKqkTp/3E6gIbnu8TdKyozHDUmj6hDRa/kZwzRygTuX0Zk6gyHC3++LKhSgfeLyd09JFOQnS3B+6ARGAdWBq0p3+TnYkkYNXh2AZ/E1/3Mcrt9uDKuqHe+sx8o4/evxoSuY8WTAj1n4J5S8w8RMF4iTYGkm1+MbK0pvyKFcV/RH39Ob9q/cXSaACTOQVaEEFNrrA4gIegDJzJtno5d8Wmgpk4LmeTvOuzeIIneyQyBjpi5SAwMpvQ2bxvEw7PdWnzNjUS2avMEPiHTGqAzFSQGDxgFBmOC4ZmkIzL7ImRwvldTcq7s/raqfJlpKestL2JyiwuBn2rdB4My/J4q8DGadEaivp7r9h1Tw/t5BjrnJaQF2DcSKeIbAABWyPcBiU2WJOL+ptyuz5ufmKsjK7+tsUsAAXq54hGhx2G5XOL+o1yuyR6Tl0TNuHIfTMKmCjR6aBhTLz8BDAHt9QeWFuz3d7rzjDzTPQsmclGEsPRL1zpoHFw+BYVAAaMcRFd/LnlnoqDeXAz/xJuVL3oKzMfKNAjUVIwOJByFp8kBF0/XkZPVKZISf2uTkFISkrCRDVn5CBxbP1HE8QymzJzHzKz4i9WICqjyEf/jUMZaWtJCxgUYiQOfhu4Cvs4qkn57SVdKffi3+VQwPzZM8qFGWl7WPYwKqVGT6O8MLd3V+Z3Xh+Go0/NTxlZRmwKEitzIYPdtHcq7qvMsMi59mXZ0v4hKOsLAUWhamV2aRzM+ic4V2XPqTtTLi/oawem5XXKWWlrTtsUaAuCMoMbxmeWXdUZivvLeQPBtukaJ5Zz0rdf71jS4BFwXB7IRpsrMX+8WD/bqPMlt2aR4W8LlYdzdMDKtRzlgErN0z2zNwuG70yrzDUtnT5/VBWZ/Inp0GYkgJjWEWWAYsGYTINwV9QcX9nTCsztbJC9C5Uz0rqZJA/lgKLejClA7EAmjIuk25grog1GlKUqCgrdXutbKfuZKIVFaQ4Hfz1eHkSuHRdtfTleCvK7WwZmAVYyAFr6AJMPVXX1evOWXW2nogBi1wwfBJVnShWU88p+HqJTp3thYnnYbFA9ov/kQCdAAvASrmqbkbEgBWViKl08TsW9gCzM+6qmT74JWyYeSDUeyBvkXqD5Tpq7g21HCvuB6DY1BkrVpSrV0bEgUWlGHZQEth6C1luFfQW4Iz62QesEUJhXu8DNkzgjB77P4IxUJjD4UIxAAAAAElFTkSuQmCC;" vertex="1" parent="UEzPUAAOIrF-is8g5C7q-2">
          <mxGeometry x="685.46" y="270" width="39.54" height="40" as="geometry" />
        </mxCell>
        <mxCell id="B8WcgsVvd8YaLCZ8lpms-97" value="cronjob" style="shape=image;verticalLabelPosition=bottom;labelBackgroundColor=#ffffff;verticalAlign=top;aspect=fixed;imageAspect=0;image=data:image/png,iVBORw0KGgoAAAANSUhEUgAAAD8AAAA/CAYAAABXXxDfAAABQWlDQ1BJQ0MgUHJvZmlsZQAAKJFjYGASSCwoyGFhYGDIzSspCnJ3UoiIjFJgf8bAw8DPwMcgz2CdmFxc4BgQ4ANUwgCjUcG3awyMIPqyLsgssYhyl+R9N01Xl7IWG0ek5WGqRwFcKanFyUD6DxAnJRcUlTAwMCYA2crlJQUgdguQLVIEdBSQPQPEToew14DYSRD2AbCakCBnIPsKkC2QnJGYAmQ/AbJ1kpDE05HYUHtBgMPZyNzN2NKAgFNJByWpFSUg2jm/oLIoMz2jRMERGEKpCp55yXo6CkYGRkYMDKDwhqj+fAMcjoxiHAix1B0MDCbNQMGbCLHsdwwMexYxMPC9Q4ip6gP5txkYDqUVJBYlwh3A+I2lOM3YCMLm3s7AwDrt///P4QwM7JoMDH+v////e/v//3+XMTAw32JgOPANAByBXn16gPoaAAAAVmVYSWZNTQAqAAAACAABh2kABAAAAAEAAAAaAAAAAAADkoYABwAAABIAAABEoAIABAAAAAEAAAA/oAMABAAAAAEAAAA/AAAAAEFTQ0lJAAAAU2NyZWVuc2hvdBUUw9kAAAHUaVRYdFhNTDpjb20uYWRvYmUueG1wAAAAAAA8eDp4bXBtZXRhIHhtbG5zOng9ImFkb2JlOm5zOm1ldGEvIiB4OnhtcHRrPSJYTVAgQ29yZSA1LjQuMCI+CiAgIDxyZGY6UkRGIHhtbG5zOnJkZj0iaHR0cDovL3d3dy53My5vcmcvMTk5OS8wMi8yMi1yZGYtc3ludGF4LW5zIyI+CiAgICAgIDxyZGY6RGVzY3JpcHRpb24gcmRmOmFib3V0PSIiCiAgICAgICAgICAgIHhtbG5zOmV4aWY9Imh0dHA6Ly9ucy5hZG9iZS5jb20vZXhpZi8xLjAvIj4KICAgICAgICAgPGV4aWY6UGl4ZWxYRGltZW5zaW9uPjYzPC9leGlmOlBpeGVsWERpbWVuc2lvbj4KICAgICAgICAgPGV4aWY6VXNlckNvbW1lbnQ+U2NyZWVuc2hvdDwvZXhpZjpVc2VyQ29tbWVudD4KICAgICAgICAgPGV4aWY6UGl4ZWxZRGltZW5zaW9uPjYzPC9leGlmOlBpeGVsWURpbWVuc2lvbj4KICAgICAgPC9yZGY6RGVzY3JpcHRpb24+CiAgIDwvcmRmOlJERj4KPC94OnhtcG1ldGE+CtUAPcYAABG4SURBVGgF5VsJlFXlff+/fRneLAzMygiyaBAwSCRUQdCosaKlcW2iYESboiYmnihJ2iTVWFRyXGiFkOaYWMUlVgyFmJoYt8QqjKABYVBwRmBgBmaYYdY3b1/6+31vLrx579773ixgz+n/cOfd5dv++/J9WJIA+X8K9s8S74YjETnWm5DyYqtMKHOe8qV8Jsj/eVefPPVat7y/NyTxWFIcToucN80rN11cJOdP9ZwyIlhOpdi/tSsgT73aKbW7gxKJWcTpELEC1QQULxwV8bhF5s0okMWXFMoCEONkwylB/rW/+GXdm93yXl1QonGLuIG0xZJtahJJiyKC056Q888eJTdfUiQLZpw8IpxU5F/9wC9Pv94t2z4KSixhjHQmh5MgQgiS4AKR5kzzyJIvFcol54zKbDbs55OC/Cvv98q613vkg4/7kYYts0g2p3OtXiOCw5ZMEQE24cuzRo4II4r8y1uBNAzZ9r1BiSet4h4i0plESYJ0oYgIiTD7LI8sBhEu/8LwiTAiyP/2PYj3a12y45MQjBfEexhIx+JJMY48LEp97NakzPoc1AGG8crZvkxa5f08ZOQpxBu29MhzEO8PPwlCqK3iGgbS2oq9bqs4HBZJJLQ3qV+LBV4B7/zBuCRhP2gTrJYEiOCVJRcXyqI5gyfCoJGPxkU2AulnYb131YexMsuIIB0HYlYgeN/SMpl7llcoAelgw7fGo1H51poWCYAAdrygOoShDhYQYeYZHrkBRLjmvML0bqb3eQc5ESC94Z0U0rs/DYnFSk5bhmTIzFZUPcYh40r1l2UFwpQADYg+VYxSt31vWHbsPSrPQhLpHa6em5sI+rNoo/f/0mX966ZO2buPSNvE42JoMpAzGV2G/BhBxGcE4UiGLvQ3PEEEC1QwjOuorHujV5ZfVyJzpxrHCcTCFP7wvl++vaZV9uyPitsFEXdwAcYLNB3sJH9MESGpJPJDqOSyxw7LVngeI8iJ/OObOlQo6nHqU91o4M/yPYnA9fYGrcL1G4Ep8vXIuvY1R/q5bTTE/933bkjpzk+D0tarL6mmyG+DC4vGaE3TrMxJxtUL1TICn8cKA5s/WLHuYCgpdQf0Rd/U4O2AgaNrczn0KZf/MnK31Oi7DYFSNJod6BDpI50xBDlkRu7x2ILJUxhjbfkoIBfpJEimyDe2xMRhp3CcfH2njyesXn8MUaI+sYm0w24Rm9Y41cX0r81ml8ZWiK8OGCLfEUjInsaQMJTUA65P/wsojg7p3BlMWwtobTAlR9Vbiuk7O/KBjw5CfbFYBI4DwBD5XftD0JcEqEzOZ6PJiMys/GcHh7S54qhWGDBTLYbc1ICClkynnPZB+81eivZF99cGSrZ1xKXhcFSmViNHTgND5GuRg7O6UuDOni0UScqyRSVyPsJQRn7pQIns7InLyv9sl87umJKAZX87WmZP8Ug0Q3u0tvc/2yZ9gVTI+qOvj5V5CExUNIeBEyAcAx8S+2BbRO7+xVEJheJ5iz6NdTickNqPA0C+KH2pYog842grojk9fScnZ012ywUGpSY/Frdqg0UtmJw8F3H3fKO2iNMffD6VtFiwmjGFDkWw1s6oSmSKCmwyvswBo2uR6lIbkKbEDcDB9IE+P45Mc/eBENrlgTyZWYfGzJ/1gEIaohIZgB/uJX2BIVDeCNiOUk7tIneX/3sLcveERPrHp0ow05sxySWzzkCo2t/eaDy99zTa+2G8M0GX8w2HI9IGt6LUPbPHCD+/vTsgvX0JCYWTUuyzycRqp5w13gVu2xXSfcGk7D8akZ37wrJ2Q7tSAZcDlBoE2KwJqYfRa0OZfKzvRF9d5LfuQXUV2aoTWZsi9SAmGkzTR4DM6t90IDOzyg2XFcuNFxbJjAmuAZ5CG48S8uGBsDz/py753bu9KnjxmAREWj/+WmFcKH07GgJyaVotUBf53Y1hVTFx6Vj59EGHc//Pz7TJz39zTM6a4pYHl5Yjhzev11M1Zp7uwlWuChf3oX/9wQgMMhlkDtR7Fj9qkeSkI39CBtL6NzSHVTCR9irr1k5baABOGKf0JdHtpcOa33XKzzd0yJzPF8iv/3FcTsTT+/J+HrzMuuXVcs6ZbumDO84HbDabNB0d6JqyON8B/atvoqU3HpRc6OiNqyvT1bHi0toVg4VFnYU442rvjmNbKo5b5NswpKvgBs8EF5+4q1IqS7KWkA8uUjXaLmvvrJQbVzbLASRfuVSAxrsOsQtLAtAyBVllrLd2BuS2x5qBPJIInY0F9qL+eWCByWHutqQD8eU7lpr4y2c3ih9sS+jti6P0lJQnv1ct86cbFxoYwydQymI9L9VTdc/686e6gCx79LAyTWCuIbCwagU+6++tkWmnuVS7LLHfujcgQVUXy8AqbVhy1I/w9xg4zEAm/erAc3dP7Dji7OZHAMO2vLr9CbnifJ8p4uzz8EvHZNF9B+XwsWwXxe8aXAgCXvZFn6nrZVuuOQijtwV7CRpYZ8+aJby2bN6s3jUejQn1wwzIiQjCtSDck+5FH93PdY7DzIrtuAKf14qS88BgQ2+uprao7G2MoK+x+mn9WL31wvAxTjACGr1E0iafwI1rcFzhEqgLh9F7174gKqPGXKfIxyDPVy8okhr4Yj3oAnc3vkN3FFcV2esuKpJxY+3y5H93y2kVDpk50dyyc0wGN6pAaibz/ZOfg2hzSo1LdjWETHWfY+49yIozVTd5IryNxWJwHQHp6Ir2JzP9I+v8kMLcNZk1CduqOkBj+PutfukNCLJCkVsvK5GpNU55AlZ+6nineqfTbciv7PDj0053y04gbwZMcg4gwWmB+o31WcT+wovrxeV2idfrlfWbe5ShcntIbmOS80svdN4IOmHU0sW+LxyXjw+FkWAkZWIFas2DAOUx8mg/uXJgxqbXhRErpfGDegQ7n3eLtbOrU3p7eyUQCEj9IRwWgFWEC9DrO+R3JBYzQUJRQZaNVe8z/9BTcBlezS9lNsh4ZmicC7RgZ0dDGElTQqzhcFgikYhQ7Pc0BaBruYYY/PckhMSNUNmGIMDMKKWPbMc6jiG/WPFCuzTnsPjslxgYv6QPNeDejrTwQGvK6NldLhdieKd0wwM0HoGlt4489vTZVdiFYVTYBleYD3wDdqIduvnCH7vl3V1Bueua0diJMfYS7XmOS0e2c39YAlH4/ZLiEvH5fNLmd4IrzKUhHHkomlnGx5w7HViTK/LapBxbUZ8geswHaCDX3VMtq+6sUJb5u6tb5Ksrm1R8TpXIhD2wKfkA1xYIJqS1E2JfMjqFvBcHYlC0AvIZKzcYkdwkUC/TL77TvvGeEOsXyflnF8j2hqD0meT3qR4n/t4IN7npJzWy+K+L5Y3aPvnJM+1Q0RPfecf4vg4ZHytD+QDdnBNpsSUUCoHRqG9HLHLV/YeksQXbPTlK1aT8xGqXFI+yQloGskHVyhFANzQhM8QiuR62HV1olaMQ43oELmsQ0y88d/CHC15CKsssLvNgwivYUrvz8SMqNshFgGDEKjOnOOTFH40TSzye2gsmATjIXdiXo2FiHGwGjM/ZM5PY7MV3NHCa9qi2IBK3lWnw5iAk/fX3q49/N5snn29/91CzbEVRJFdyE8e+PvH61fIqHHlDnZAJTCqJscgVOOWwdGGR0olstAYug9EXd1c4YfqlvdMQZy/Vtj8RIlFqkYyse7Nr4IBDfHr6jS6FOOcwA7WXjzD7O9eWKsTZNkvBv3fdGPnSuQXQI9ThzMczm8vwG4nigMV97MUO2YKK0XBgG4oTj67vUEXNXOJOu7Bo7ii5bWHJ8SmzkGeo+NAt5TK+ygH/n/X5eMfh3DgRY/cgCvzO2hb5H4jrUOBdbEHxlIYf47CyawT8EoI9mz7RJQ/cXDagWVY+r32tRWp7y8OHYaltiMXzjCC0znn8clHM9Aq8FvnmV0pl6aXFpkhoQzJSpKiv3YjIFIhT5cysUzRulVHIo575wTiZjrwiHQyRZ6MnX++S+59qwwTcHTWbIn3I/O9JgCg2JLgZOgOZ2fULCuU8nLKqQZ3eyZJQGuxvjco7kJL1b/fIdqgLPfIopMdmy2IBI4bxH7m9XL5yXvaBJVPkOffdv2yR9W/5ZZQqFI48ATgH4wRylLszk5CaLkBtj9GdB3MGYHtYFmtsiWLbKVUkqQZxCiExzNDMgi0/TMqtVxbLvTeM4TRZkDOWXbGkXBqao0gXI0gyBhKapFBuDD6PO6c8tkJO8sgYvxEpWn9uQHDLiW1Ujg6GsR95S9fHoIPlawZDjMDKimzyH690qCNnarsK/VnOKsD+PMeaC1fJau83/+2Iak8P4oCkcE4Cx+1Ddjv/HI/88Kul6p3en5zIU6d++vdlcsMDTdITQC3OlgrtiBgXMm2iW05HgeIIuFKHU1pV4AqLBsWjbDhgbJF3UROsQbo5E7l/c3tMndmjyE5G+MoKT1WpQyH+3u4+RYgepMoUb+7SMAUuLLbLX6Fay12c92DkYpAEijKt94zJLplY6ZKt2Ffs9seEhpQECCFury6zykM3j4W9Gqg+6USw3QdIf6F3P6bQLuOA1Kvb/Cr2p7uimH7ty8XyrUWjFVemT/AIXc+F2BRYibN0peAet7ToLn96a4UixLXzisROP4+j59++ulRu/5vRqrB57bxCKS1xyNvb++RM7NbcsahUNiGaK8Q+3aO3V8iEcod8EbZgFvb83kSb8SD2EhRTfMgXzgbxF+IA4p8xJnd9KE92e1LW3FkFA6dfbNFwzMl5rSEDoN1XRmQ16u3kaA0WtARx9z2/bJW/gPKFCHUjCOo9QK4V1aDv/ox7bkl54p4q+QMOIj/yXLvMQWz/+B3lsgklLgs4wnj8+2tbZfoUl6y+o1J+8duU6JOzlKqrLvVBPRJyG6qzPuj4S/eepg4gUz2oRiufbxOWzJ7+QZVcPqdAnv1jj9K1f1o8Jq//tAABzB+WX1Mql872wsUkFfI9qMp+jFp4Efe/wOE4dRa/2/A/KLh4xv6Vo22yGcTx4X4fNkN6kFGV410Ayc12qAlVxB9IqmduKGp6S12fMs4l2/bg7B/GZOVoT1NEJqASxOcPUJBgIMY0eSvmm1ThlhAM3FUX+GTZ5ScCGTPsBoU8J31wKcSw2o6UEMYMeumDaHJhNGAE2gJetMLkEH05Nyb84BBr/QW4uPnIiTkeica2Wj+OQeC3TtQCK1EHiHBs/CsrtiE4Sqi21XifBIEo6tVj7NLUkZDPTXLKv3x9YCCTGk3/b95ir3WvwAIev6NCbsJOSd3BqNwPo7Jxs1/KSmzy+1q/QoSZF/GKQg021fZCh4vhy5NyBXRzFwoJh1oiyiCy0EmkiCj1VxEDzwRa75fR97HbMNfCYhkLw8c2NKDzzvYqsV6Mzc0Ixv3ClALZtKVVVi0rF57YyhfyMniZg/F8rAscfAAnKmrwv6Jmn+FWYr69PqhOVBzrSch+bCE54b4+gl5zk/BiGMJDOFnxs40dynIzQDmIAxCH4QFopVm2eh/BC9XjAtiGV5FhHsE3ngVkX7qzVdjYbEKw44Oa1SE1pprMnOSVtS93yPXzi7AJWZC5VNPnnEGOWe+7YezWvdItXlR7ubXlAbLKz4N79PnkKsVZBTC8AXBvnYhSXOmFuA3OGp8ftmAs1OOe60sxlkV+/KtWtEvFCP1Zt7IPbB+DPVFndNGuz5+Ub1xVIg/iOMtgYdBinz7BiiVl8imiLJ5z9TrpZoCMlmSkcFWizFhBKbfWGd/ISQW4p7jzmarjhz147s1O9Y7ESbXrb8sOaE+i0FAykFk4r0BW3DR4xDnUsDjPAfgfA7/2QLN04YinA/8raqhA9LgzxUMEdKV2ErGfgJljsm0wapWqMVZ54YfjDI+oZ/bLfM7fOmT27H+eXOmUFbeMhYGDxY/BVSGqGcrFJMQGEShw49ARYlz+b4qscTgL2rEUhX0WefgfyoeMOJc/bM5rNPmvLbDML3WohISxOq+RBNoBcpy/FTC4P0Ygc5HOkdLBzDliyHPSbgQ99bABjLq40BEFyCiTHpbAz6iyKwkZ7vgjivxwF3Oq+/8vEFaqHP4z9e4AAAAASUVORK5CYII=;" vertex="1" parent="UEzPUAAOIrF-is8g5C7q-2">
          <mxGeometry x="605" y="271" width="40" height="40" as="geometry" />
        </mxCell>
        <mxCell id="B8WcgsVvd8YaLCZ8lpms-98" value="" style="edgeStyle=isometricEdgeStyle;rounded=0;orthogonalLoop=1;jettySize=auto;html=1;elbow=vertical;entryX=0;entryY=0.5;entryDx=0;entryDy=0;exitX=1;exitY=0.5;exitDx=0;exitDy=0;" edge="1" parent="UEzPUAAOIrF-is8g5C7q-2" target="B8WcgsVvd8YaLCZ8lpms-96">
          <mxGeometry relative="1" as="geometry">
            <mxPoint x="640" y="293.61" as="sourcePoint" />
            <mxPoint x="680.46" y="292.61" as="targetPoint" />
            <Array as="points">
              <mxPoint x="670" y="290" />
            </Array>
          </mxGeometry>
        </mxCell>
        <mxCell id="UEzPUAAOIrF-is8g5C7q-61" value="" style="edgeStyle=orthogonalEdgeStyle;rounded=0;orthogonalLoop=1;jettySize=auto;html=1;endArrow=open;endFill=0;strokeWidth=2;strokeColor=#545B64;startArrow=none;" parent="1" target="UEzPUAAOIrF-is8g5C7q-44" edge="1">
          <mxGeometry relative="1" as="geometry">
            <mxPoint x="550" y="439" as="sourcePoint" />
          </mxGeometry>
        </mxCell>
        <mxCell id="UEzPUAAOIrF-is8g5C7q-69" style="edgeStyle=orthogonalEdgeStyle;rounded=0;orthogonalLoop=1;jettySize=auto;html=1;endArrow=open;endFill=0;strokeWidth=2;strokeColor=#545B64;startArrow=none;" parent="1" source="UEzPUAAOIrF-is8g5C7q-42" edge="1">
          <mxGeometry relative="1" as="geometry">
            <Array as="points">
              <mxPoint x="511" y="714" />
            </Array>
            <mxPoint x="538" y="714" as="targetPoint" />
          </mxGeometry>
        </mxCell>
        <mxCell id="UEzPUAAOIrF-is8g5C7q-68" value="" style="edgeStyle=orthogonalEdgeStyle;rounded=0;orthogonalLoop=1;jettySize=auto;html=1;endArrow=open;endFill=0;strokeWidth=2;strokeColor=#545B64;startArrow=none;" parent="1" source="UEzPUAAOIrF-is8g5C7q-48" edge="1">
          <mxGeometry relative="1" as="geometry">
            <mxPoint x="670" y="713.5" as="targetPoint" />
          </mxGeometry>
        </mxCell>
        <mxCell id="UEzPUAAOIrF-is8g5C7q-67" style="edgeStyle=orthogonalEdgeStyle;rounded=0;orthogonalLoop=1;jettySize=auto;html=1;endArrow=open;endFill=0;strokeWidth=2;strokeColor=#545B64;startArrow=none;" parent="1" source="UEzPUAAOIrF-is8g5C7q-49" edge="1">
          <mxGeometry relative="1" as="geometry">
            <Array as="points">
              <mxPoint x="709" y="583" />
            </Array>
            <mxPoint x="764" y="583" as="targetPoint" />
          </mxGeometry>
        </mxCell>
        <mxCell id="UEzPUAAOIrF-is8g5C7q-70" style="edgeStyle=orthogonalEdgeStyle;rounded=0;orthogonalLoop=1;jettySize=auto;html=1;endArrow=open;endFill=0;strokeWidth=2;strokeColor=#545B64;startArrow=none;" parent="1" source="UEzPUAAOIrF-is8g5C7q-49" edge="1">
          <mxGeometry relative="1" as="geometry">
            <mxPoint x="827" y="713.5" as="targetPoint" />
          </mxGeometry>
        </mxCell>
        <mxCell id="UEzPUAAOIrF-is8g5C7q-71" value="" style="edgeStyle=orthogonalEdgeStyle;rounded=0;orthogonalLoop=1;jettySize=auto;html=1;endArrow=open;endFill=0;strokeWidth=2;strokeColor=#545B64;startArrow=none;" parent="1" source="UEzPUAAOIrF-is8g5C7q-50" edge="1">
          <mxGeometry relative="1" as="geometry">
            <mxPoint x="958" y="713.5" as="targetPoint" />
          </mxGeometry>
        </mxCell>
        <mxCell id="B8WcgsVvd8YaLCZ8lpms-14" value="Database Layer" style="text;html=1;align=center;verticalAlign=middle;resizable=0;points=[];autosize=1;strokeColor=none;fillColor=none;" vertex="1" parent="1">
          <mxGeometry x="640" y="680" width="100" height="20" as="geometry" />
        </mxCell>
        <mxCell id="B8WcgsVvd8YaLCZ8lpms-15" value="Application Layer" style="text;html=1;align=center;verticalAlign=middle;resizable=0;points=[];autosize=1;strokeColor=none;fillColor=none;" vertex="1" parent="1">
          <mxGeometry x="595" y="410" width="110" height="20" as="geometry" />
        </mxCell>
        <mxCell id="B8WcgsVvd8YaLCZ8lpms-42" value="" style="endArrow=classic;html=1;rounded=0;entryX=0.566;entryY=0.006;entryDx=0;entryDy=0;entryPerimeter=0;" edge="1" parent="1" target="B8WcgsVvd8YaLCZ8lpms-3">
          <mxGeometry width="50" height="50" relative="1" as="geometry">
            <mxPoint x="720" y="390" as="sourcePoint" />
            <mxPoint x="870" y="430" as="targetPoint" />
            <Array as="points">
              <mxPoint x="720" y="390" />
            </Array>
          </mxGeometry>
        </mxCell>
        <mxCell id="B8WcgsVvd8YaLCZ8lpms-65" value="" style="edgeStyle=orthogonalEdgeStyle;html=1;endArrow=none;elbow=vertical;startArrow=open;startFill=0;strokeColor=#545B64;rounded=0;" edge="1" parent="1">
          <mxGeometry width="100" relative="1" as="geometry">
            <mxPoint x="790" y="430" as="sourcePoint" />
            <mxPoint x="890" y="430" as="targetPoint" />
          </mxGeometry>
        </mxCell>
        <mxCell id="B8WcgsVvd8YaLCZ8lpms-70" value="" style="endArrow=classic;html=1;rounded=0;elbow=vertical;entryX=1.003;entryY=0.867;entryDx=0;entryDy=0;entryPerimeter=0;" edge="1" parent="1" target="B8WcgsVvd8YaLCZ8lpms-2">
          <mxGeometry width="50" height="50" relative="1" as="geometry">
            <mxPoint x="1040" y="430" as="sourcePoint" />
            <mxPoint x="870" y="400" as="targetPoint" />
            <Array as="points">
              <mxPoint x="1040" y="430" />
            </Array>
          </mxGeometry>
        </mxCell>
        <mxCell id="B8WcgsVvd8YaLCZ8lpms-71" value="" style="endArrow=classic;html=1;rounded=0;elbow=vertical;entryX=0;entryY=0;entryDx=0;entryDy=0;entryPerimeter=0;" edge="1" parent="1" target="B8WcgsVvd8YaLCZ8lpms-33">
          <mxGeometry width="50" height="50" relative="1" as="geometry">
            <mxPoint x="740" y="170" as="sourcePoint" />
            <mxPoint x="870" y="400" as="targetPoint" />
            <Array as="points">
              <mxPoint x="740" y="170" />
            </Array>
          </mxGeometry>
        </mxCell>
        <mxCell id="B8WcgsVvd8YaLCZ8lpms-85" value="" style="edgeStyle=orthogonalEdgeStyle;rounded=0;orthogonalLoop=1;jettySize=auto;html=1;" edge="1" parent="1" target="B8WcgsVvd8YaLCZ8lpms-55">
          <mxGeometry relative="1" as="geometry">
            <mxPoint x="1190" y="429" as="sourcePoint" />
            <mxPoint x="1115.7800000000002" y="469" as="targetPoint" />
          </mxGeometry>
        </mxCell>
      </root>
    </mxGraphModel>
  </diagram>
</mxfile>
